# This file uses centimeters as units for non-parametric coordinates.

mtllib ghost_01v_lwo.mtl
g default
v -0.768843 3.013106 2.607495
v -0.327992 2.390062 2.566024
v -1.266898 2.601647 2.060698
v -1.324463 4.727994 1.947946
v -1.735346 2.753339 1.546218
v -0.612202 0.716141 1.266779
v -0.267360 0.145153 1.115298
v -0.125836 0.530637 0.923329
v -1.870721 1.798825 0.576813
v -1.155054 5.654291 0.470198
v -2.049968 2.082773 -0.175918
v -0.554775 5.785772 0.149472
v -0.692323 0.516973 0.081711
v -1.817641 4.656696 0.026912
v -0.203408 0.183244 0.179579
v -2.002005 3.195319 -0.042111
v -1.741166 0.600057 -0.093007
v -0.154480 6.263517 -0.415584
v -1.812233 0.387501 -0.856061
v -1.496284 0.865987 -0.789623
v -1.304437 3.898380 -0.792121
v -1.337609 5.323767 -1.021838
v -1.472909 5.386142 -1.022859
v -0.792754 1.634409 -1.419988
v -2.133864 1.747716 -1.893921
v -0.750506 3.159583 -1.966516
v -1.723678 2.924305 -2.137574
v -0.628210 2.956119 -2.176369
v -1.232771 3.956900 -2.626357
v -1.117600 3.721390 -2.895537
v -2.542511 3.068294 -3.330606
v -2.557239 2.955214 -3.435575
v -0.368614 3.234680 2.853496
v -0.489909 3.736089 2.859197
v -0.963095 3.539274 2.566322
v -0.290860 2.742489 2.728107
v 0.000000 2.357703 2.589438
v 0.000000 2.717187 2.766576
v -0.746335 2.111597 2.269522
v -0.728693 2.510238 2.461740
v -1.415247 3.380199 2.117584
v -1.735955 3.393167 1.642501
v -1.689979 2.311966 1.445319
v -1.321483 1.800506 1.622037
v -1.052352 4.929904 2.102839
v -1.459730 4.883269 1.588128
v -1.695497 4.155221 1.603293
v -1.414845 4.158869 2.095768
v -1.063701 4.197733 2.474938
v -1.977831 3.439993 1.054734
v -2.104104 3.057957 1.194694
v -1.133883 0.926995 1.435412
v -1.522236 0.461363 0.850996
v -1.214565 0.370501 0.744375
v -0.554542 1.411309 1.885671
v -0.891620 1.525709 1.872028
v 0.000000 0.107339 1.175560
v 0.000000 0.584633 1.607861
v 0.000000 0.534471 0.905387
v 0.000000 0.183468 0.768016
v -0.156352 0.193761 0.802272
v -0.545124 0.576696 0.841850
v -0.318659 0.527341 0.512545
v 0.000000 0.499374 0.524346
v -1.646844 1.658458 0.937155
v -2.108765 1.597406 -0.042697
v -1.951592 1.419784 0.258594
v -1.769621 1.138611 0.380704
v -1.717963 4.948092 0.412917
v -1.612748 4.967326 1.044835
v -1.137270 5.421720 1.374275
v -0.627330 5.696529 1.523421
v -0.568468 5.988160 0.716858
v -1.150733 5.565331 -0.183906
v -1.453805 5.424825 -0.061174
v -0.346486 6.145671 0.194784
v -1.729281 5.013936 -0.097255
v -2.110218 2.635584 0.363246
v -0.359698 5.687588 0.031491
v -0.899257 5.406008 -0.155782
v -1.075009 0.471925 -0.252242
v -1.061954 0.755943 -0.499717
v -0.686161 0.700837 -0.348577
v -0.311129 0.231283 -0.150974
v -0.285364 0.311802 -0.424762
v -1.904689 4.164461 0.004841
v -1.930040 4.219556 0.445937
v -1.659763 4.722999 -0.385633
v -1.724414 4.215868 -0.360004
v 0.000000 0.051977 0.128236
v 0.000000 0.004748 -0.247554
v -2.046541 3.343971 0.500368
v -2.214132 3.025875 0.684757
v -1.714528 3.641058 -0.578162
v -1.722106 3.196128 -1.012872
v -1.983279 2.590688 -0.654197
v -1.687642 0.719925 0.591314
v -1.793554 0.305321 -0.783857
v -1.704082 0.390003 0.099701
v 0.000000 6.313408 -0.604084
v 0.000000 6.231050 -0.731564
v -0.192717 6.123358 -0.507412
v -1.595252 0.351050 -0.876841
v -1.131236 4.365353 -0.542947
v -0.681139 4.133174 -0.851757
v -1.105552 3.608816 -1.196067
v -1.703147 5.143241 -0.658087
v -1.581523 5.349360 -0.700723
v -1.591313 5.308272 -1.144104
v -1.618147 5.069761 -0.971268
v -1.161107 5.334952 -0.636054
v -1.121957 5.030233 -0.587591
v -1.399307 5.180637 -1.120694
v -1.377319 5.444417 -0.664312
v -1.459268 5.008867 -0.950743
v -1.175461 1.424389 -1.030084
v -1.471394 1.446149 -1.504302
v -1.245488 1.691470 -1.818441
v -0.556330 1.373656 -0.760759
v -1.985662 1.654999 -2.010137
v -1.602304 1.260698 -1.338542
v -2.307595 2.157910 -1.857111
v -2.465846 2.481528 -2.473536
v -2.476893 2.238592 -2.548374
v -2.377329 2.077246 -2.647988
v -0.500377 3.730783 -2.578258
v -0.350047 3.576813 -2.701230
v -1.297576 3.312212 -1.880235
v -1.238051 3.326404 -1.568510
v -0.740354 3.572708 -1.853709
v -0.901366 3.642997 -2.325893
v -1.261960 3.670023 -2.257449
v -0.814847 3.456133 -2.522217
v -2.173908 2.564456 -1.932351
v -2.087044 2.414487 -1.286151
v -1.739855 2.935264 -1.524449
v -2.112422 2.782725 -2.587518
v -2.317585 2.671945 -2.485714
v -1.604797 2.853577 -2.549299
v -1.958858 2.758784 -2.752407
v -1.036967 3.948803 -2.658280
v -1.290257 3.962262 -2.832651
v -1.434448 3.493005 -2.452345
v -1.295552 3.730727 -2.888735
v -1.057484 3.937132 -2.871469
v -1.008111 3.306085 -2.637771
v -1.295686 3.233105 -2.648726
v -2.597645 2.919043 -3.174386
v -2.554153 3.005080 -3.215881
v -2.601573 3.029783 -3.336454
v -2.627570 2.897300 -3.273726
v -2.484061 3.031920 -3.236905
v -2.425471 3.013273 -3.287556
v -2.525568 3.059171 -3.399393
v -2.595953 2.999593 -3.405171
v -2.427000 2.865665 -3.381508
v -2.501046 2.998467 -3.434957
v -2.401066 2.960355 -3.339950
v -2.546646 2.827348 -3.392791
v -2.608195 2.849658 -3.340816
v -2.457564 2.534882 -3.228651
v -2.563501 2.561821 -3.147028
v -2.604952 2.657289 -3.049608
v -2.570588 2.784686 -2.994596
v -2.483437 2.870079 -2.980367
v -2.370555 2.909460 -3.005332
v -2.264660 2.876669 -3.072433
v -1.877253 2.557895 -2.839717
v -2.231278 2.783664 -3.161290
v -1.947549 2.243103 -2.845256
v -2.298997 2.636783 -3.244698
v -2.181998 2.058455 -2.781124
v -1.592937 1.880095 -2.279832
v -1.816858 1.694870 -2.152323
v -1.403000 2.197344 -2.451944
v -1.071166 2.204802 -2.147866
v -1.104510 2.714319 -2.410390
v -0.870420 2.821454 -2.306800
v -0.698593 2.212549 -1.989283
v -1.437863 2.568927 -2.570386
v 0.000000 4.345154 -3.101351
v -0.190802 4.244829 -3.036065
v -0.182732 4.389202 -2.879902
v 0.000000 4.437947 -2.976258
v -0.490819 4.035229 -2.396864
v -0.295442 4.149781 -2.175081
v -0.157582 4.390783 -2.676289
v -0.694999 3.693134 -1.598536
v -0.423587 3.904387 -1.461790
v 0.000000 4.269119 -0.844603
v 0.000000 3.996568 -1.393288
v 0.000000 4.185358 -2.120481
v 0.000000 4.443912 -2.786175
v -0.164570 4.026312 -3.009319
v 0.000000 4.125738 -3.080373
v 0.000000 3.485823 -2.754802
v 0.000000 2.866575 -2.376035
v 0.000000 2.189655 -1.977777
v -2.097512 1.941586 -1.163027
v -2.129879 1.569107 -1.274776
v -1.142724 1.163361 -0.732137
v -0.522361 0.958865 -0.544033
v 0.000000 1.222107 -0.670475
v 0.000000 1.714028 -1.342351
v -1.329751 4.758546 -0.555103
v -0.728189 4.834927 -0.306642
v -1.612139 0.285830 -0.845288
v -1.224497 0.303299 -0.056571
v -1.468808 0.256717 0.084620
v -1.740533 0.263007 -0.794568
v -0.997517 0.437097 0.509866
v -0.164566 5.956591 -0.390316
v 0.000000 5.977334 -0.499157
v 0.000000 5.201940 -0.067122
v 0.000000 6.248844 0.272175
v 0.000000 6.099181 0.898359
v 0.000000 5.780256 1.642314
v -0.615094 5.095006 2.286474
v 0.000000 5.184293 2.364059
v -0.605202 4.479655 2.662080
v 0.000000 4.611837 2.750396
v 0.000000 3.876353 2.933944
v 0.000000 3.228499 2.898224
v 0.000000 0.154254 -0.574622
v -1.399954 1.147740 1.370057
v -1.522284 1.387958 1.083371
v -1.865987 4.209262 1.030659
v 0.000000 1.317486 1.986360
v 0.000000 1.913769 2.330122
v -0.428858 1.964748 2.326652
v -0.635691 0.551492 1.047248
v -0.264041 0.134128 0.919823
v 0.000000 0.025896 0.912710
v 0.000000 0.337579 1.420068
v -0.428251 0.358161 1.208611
v -0.411403 0.393403 1.054593
v 0.000000 0.838392 -0.577220
v -0.388828 0.549636 -0.457404
v 0.000000 0.501216 -0.612330
v -0.450798 0.399849 -0.031315
v -0.255977 0.373215 0.342553
v 0.000000 0.271057 0.351911
v 0.000000 0.607462 0.745798
v -0.215623 0.615175 0.746135
v -0.527335 0.570603 0.723462
v -1.680928 0.445293 -0.947808
v -1.505227 0.702569 -0.744326
v -1.727427 0.343587 -0.903851
v -2.041119 1.473911 -1.966690
v -1.782858 0.545401 -0.446431
v -1.747963 0.336957 -0.353496
v -1.612123 0.229649 -0.353152
v -1.381548 0.256152 -0.442882
v -1.298398 0.404189 -0.555665
v -1.573161 0.580261 -0.829223
v -2.183757 1.330554 -2.182462
v -1.858733 1.221185 -1.784954
v -2.073023 1.233485 -2.152816
v -2.182131 1.070046 -2.150890
v -2.031158 0.942975 -1.696771
v -2.262629 0.911664 -1.649049
v -2.357900 1.067696 -2.114094
v -2.421639 1.147532 -2.086927
v -2.403765 1.078390 -1.598071
v -2.315370 0.635717 -0.379970
v -2.311001 0.839863 -0.486510
v -2.336383 0.700162 -0.815885
v -2.339848 0.580278 -0.750656
v -2.151274 0.867030 -0.708600
v -2.267942 0.705259 -0.916617
v -1.924214 0.705003 -0.514041
v -2.162067 0.573173 -0.837779
v -2.100224 0.541550 -0.386320
v -2.240131 0.515053 -0.779919
v -2.131433 0.809341 0.003855
v -2.183701 1.035514 -0.165121
v -2.188875 1.211277 -0.423981
v -2.173348 0.862166 -1.106213
v -2.346578 1.084543 -1.095325
v -2.388798 1.329848 -2.080569
v -2.176935 1.454536 -1.741692
v -1.719463 1.017329 -1.188482
v -1.858491 0.687947 -0.113857
v -1.713683 0.823270 0.192524
v -1.761819 0.771056 -0.314887
v -2.172258 0.652220 -0.915668
v -2.010825 0.770907 -0.682325
v -1.772674 0.468918 -0.893071
v -1.723881 0.622924 -0.687631
v -1.728850 0.719009 -0.593266
v -1.802190 0.810955 -0.746409
v -1.885855 0.871092 -1.140283
v -1.837370 0.815528 -0.540468
v -2.350604 1.182765 -2.209929
v -2.265308 1.197999 -2.260939
v -2.299540 0.588000 -0.908211
v -0.970877 3.289273 -1.687796
v -0.927827 3.477319 -1.576928
v -2.485396 2.848315 0.927661
v -2.472541 2.517187 0.608890
v -2.333089 2.764635 1.438828
v -2.014642 2.559822 1.655618
v -1.906860 2.172012 1.585205
v -1.941466 1.968196 1.222731
v -1.774801 2.020661 1.105770
v -2.097307 1.924122 0.916502
v -1.941701 2.016603 0.795889
v -2.097261 2.258489 0.471022
v -2.326842 2.114886 0.631042
v -2.157568 1.725503 1.554883
v -2.168020 1.977386 1.841150
v -2.244912 2.292234 1.882308
v -2.534098 2.490229 1.687177
v -2.808893 2.411202 1.436590
v -2.866701 2.167065 1.172166
v -2.760137 1.911127 1.113233
v -2.509313 1.705713 1.251931
v -2.847867 2.145858 1.589306
v -2.697927 2.241262 1.785673
v -2.883539 2.045170 1.378945
v -2.814484 1.872110 1.405363
v -2.667902 1.725515 1.431026
v -2.540182 1.750849 1.680063
v -2.393783 1.908504 1.830103
v -2.517231 2.072483 1.902288
v -2.755539 1.926411 1.676610
v -2.076560 1.844306 1.358208
v -2.682370 2.637103 1.219172
v -2.733546 2.329895 0.897448
v -2.598255 1.996503 0.850007
v -2.306076 1.782777 1.054939
v -2.003000 1.564915 -1.958205
v -1.737803 1.537979 -1.888483
v -1.782378 1.416289 -1.829114
v -1.874350 1.342217 -1.909405
v -2.083944 1.981879 -0.881323
v -2.069415 1.979553 0.182265
v -2.188997 1.758532 -0.199189
v -2.275968 1.501324 -0.655426
v -2.361596 1.366352 -1.134608
v -2.373610 1.367217 -1.622323
v 0.768843 3.013106 2.607495
v 0.327992 2.390062 2.566024
v 1.266898 2.601647 2.060698
v 1.324463 4.727994 1.947946
v 1.735346 2.753339 1.546218
v 0.612202 0.716141 1.266779
v 0.267360 0.145153 1.115298
v 0.125836 0.530637 0.923329
v 1.870721 1.798825 0.576813
v 1.155054 5.654291 0.470198
v 2.049968 2.082773 -0.175918
v 0.554775 5.785772 0.149472
v 0.692323 0.516973 0.081711
v 1.817641 4.656696 0.026912
v 0.203408 0.183244 0.179579
v 2.002005 3.195319 -0.042111
v 1.741166 0.600057 -0.093007
v 0.154480 6.263517 -0.415584
v 1.812233 0.387501 -0.856061
v 1.496284 0.865987 -0.789623
v 1.304437 3.898380 -0.792121
v 1.337609 5.323767 -1.021838
v 1.472909 5.386142 -1.022859
v 0.792754 1.634409 -1.419988
v 2.133864 1.747716 -1.893921
v 0.750506 3.159583 -1.966516
v 1.723678 2.924305 -2.137574
v 0.628210 2.956119 -2.176369
v 1.232771 3.956900 -2.626357
v 1.117600 3.721390 -2.895537
v 2.542511 3.068294 -3.330606
v 2.557239 2.955214 -3.435575
v 0.368614 3.234680 2.853496
v 0.489909 3.736089 2.859197
v 0.963095 3.539274 2.566322
v 0.290860 2.742489 2.728107
v 0.746335 2.111597 2.269522
v 0.728693 2.510238 2.461740
v 1.415247 3.380199 2.117584
v 1.735955 3.393167 1.642501
v 1.689979 2.311966 1.445319
v 1.321483 1.800506 1.622037
v 1.052352 4.929904 2.102839
v 1.459730 4.883269 1.588128
v 1.695497 4.155221 1.603293
v 1.414845 4.158869 2.095768
v 1.063701 4.197733 2.474938
v 1.977831 3.439993 1.054734
v 2.104104 3.057957 1.194694
v 1.133883 0.926995 1.435412
v 1.522236 0.461363 0.850996
v 1.214565 0.370501 0.744375
v 0.554542 1.411309 1.885671
v 0.891620 1.525709 1.872028
v 0.156352 0.193761 0.802272
v 0.545124 0.576696 0.841850
v 0.318659 0.527341 0.512545
v 1.646844 1.658458 0.937155
v 2.108765 1.597406 -0.042697
v 1.951592 1.419784 0.258594
v 1.769621 1.138611 0.380704
v 1.717963 4.948092 0.412917
v 1.612748 4.967326 1.044835
v 1.137270 5.421720 1.374275
v 0.627330 5.696529 1.523421
v 0.568468 5.988160 0.716858
v 1.150733 5.565331 -0.183906
v 1.453805 5.424825 -0.061174
v 0.346486 6.145671 0.194784
v 1.729281 5.013936 -0.097255
v 2.110218 2.635584 0.363246
v 0.359698 5.687588 0.031491
v 0.899257 5.406008 -0.155782
v 1.075009 0.471925 -0.252242
v 1.061954 0.755943 -0.499717
v 0.686161 0.700837 -0.348577
v 0.311129 0.231283 -0.150974
v 0.285364 0.311802 -0.424762
v 1.904689 4.164461 0.004841
v 1.930040 4.219556 0.445937
v 1.659763 4.722999 -0.385633
v 1.724414 4.215868 -0.360004
v 2.046541 3.343971 0.500368
v 2.214132 3.025875 0.684757
v 1.714528 3.641058 -0.578162
v 1.722106 3.196128 -1.012872
v 1.983279 2.590688 -0.654197
v 1.687642 0.719925 0.591314
v 1.793554 0.305321 -0.783857
v 1.704082 0.390003 0.099701
v 0.192717 6.123358 -0.507412
v 1.595252 0.351050 -0.876841
v 1.131236 4.365353 -0.542947
v 0.681139 4.133174 -0.851757
v 1.105552 3.608816 -1.196067
v 1.703147 5.143241 -0.658087
v 1.581523 5.349360 -0.700723
v 1.591313 5.308272 -1.144104
v 1.618147 5.069761 -0.971268
v 1.161107 5.334952 -0.636054
v 1.121957 5.030233 -0.587591
v 1.399307 5.180637 -1.120694
v 1.377319 5.444417 -0.664312
v 1.459268 5.008867 -0.950743
v 1.175461 1.424389 -1.030084
v 1.471394 1.446149 -1.504302
v 1.245488 1.691470 -1.818441
v 0.556330 1.373656 -0.760759
v 1.985662 1.654999 -2.010137
v 1.602304 1.260698 -1.338542
v 2.307595 2.157910 -1.857111
v 2.465846 2.481528 -2.473536
v 2.476893 2.238592 -2.548374
v 2.377329 2.077246 -2.647988
v 0.500377 3.730783 -2.578258
v 0.350047 3.576813 -2.701230
v 1.297576 3.312212 -1.880235
v 1.238051 3.326404 -1.568510
v 0.740354 3.572708 -1.853709
v 0.901366 3.642997 -2.325893
v 1.261960 3.670023 -2.257449
v 0.814847 3.456133 -2.522217
v 2.173908 2.564456 -1.932351
v 2.087044 2.414487 -1.286151
v 1.739855 2.935264 -1.524449
v 2.112422 2.782725 -2.587518
v 2.317585 2.671945 -2.485714
v 1.604797 2.853577 -2.549299
v 1.958858 2.758784 -2.752407
v 1.036967 3.948803 -2.658280
v 1.290257 3.962262 -2.832651
v 1.434448 3.493005 -2.452345
v 1.295552 3.730727 -2.888735
v 1.057484 3.937132 -2.871469
v 1.008111 3.306085 -2.637771
v 1.295686 3.233105 -2.648726
v 2.597645 2.919043 -3.174386
v 2.554153 3.005080 -3.215881
v 2.601573 3.029783 -3.336454
v 2.627570 2.897300 -3.273726
v 2.484061 3.031920 -3.236905
v 2.425471 3.013273 -3.287556
v 2.525568 3.059171 -3.399393
v 2.595953 2.999593 -3.405171
v 2.427000 2.865665 -3.381508
v 2.501046 2.998467 -3.434957
v 2.401066 2.960355 -3.339950
v 2.546646 2.827348 -3.392791
v 2.608195 2.849658 -3.340816
v 2.457564 2.534882 -3.228651
v 2.563501 2.561821 -3.147028
v 2.604952 2.657289 -3.049608
v 2.570588 2.784686 -2.994596
v 2.483437 2.870079 -2.980367
v 2.370555 2.909460 -3.005332
v 2.264660 2.876669 -3.072433
v 1.877253 2.557895 -2.839717
v 2.231278 2.783664 -3.161290
v 1.947549 2.243103 -2.845256
v 2.298997 2.636783 -3.244698
v 2.181998 2.058455 -2.781124
v 1.592937 1.880095 -2.279832
v 1.816858 1.694870 -2.152323
v 1.403000 2.197344 -2.451944
v 1.071166 2.204802 -2.147866
v 1.104510 2.714319 -2.410390
v 0.870420 2.821454 -2.306800
v 0.698593 2.212549 -1.989283
v 1.437863 2.568927 -2.570386
v 0.190802 4.244829 -3.036065
v 0.182732 4.389202 -2.879902
v 0.490819 4.035229 -2.396864
v 0.295442 4.149781 -2.175081
v 0.157582 4.390783 -2.676289
v 0.694999 3.693134 -1.598536
v 0.423587 3.904387 -1.461790
v 0.164570 4.026312 -3.009319
v 2.097512 1.941586 -1.163027
v 2.129879 1.569107 -1.274776
v 1.142724 1.163361 -0.732137
v 0.522361 0.958865 -0.544033
v 1.329751 4.758546 -0.555103
v 0.728189 4.834927 -0.306642
v 1.612139 0.285830 -0.845288
v 1.224497 0.303299 -0.056571
v 1.468808 0.256717 0.084620
v 1.740533 0.263007 -0.794568
v 0.997517 0.437097 0.509866
v 0.164566 5.956591 -0.390316
v 0.615094 5.095006 2.286474
v 0.605202 4.479655 2.662080
v 1.399954 1.147740 1.370057
v 1.522284 1.387958 1.083371
v 1.865987 4.209262 1.030659
v 0.428858 1.964748 2.326652
v 0.635691 0.551492 1.047248
v 0.264041 0.134128 0.919823
v 0.428251 0.358161 1.208611
v 0.411403 0.393403 1.054593
v 0.388828 0.549636 -0.457404
v 0.450798 0.399849 -0.031315
v 0.255977 0.373215 0.342553
v 0.215623 0.615175 0.746135
v 0.527335 0.570603 0.723462
v 1.680928 0.445293 -0.947808
v 1.505227 0.702569 -0.744326
v 1.727427 0.343587 -0.903851
v 2.041119 1.473911 -1.966690
v 1.782858 0.545401 -0.446431
v 1.747963 0.336957 -0.353496
v 1.612123 0.229649 -0.353152
v 1.381548 0.256152 -0.442882
v 1.298398 0.404189 -0.555665
v 1.573161 0.580261 -0.829223
v 2.183757 1.330554 -2.182462
v 1.858733 1.221185 -1.784954
v 2.073023 1.233485 -2.152816
v 2.182131 1.070046 -2.150890
v 2.031158 0.942975 -1.696771
v 2.262629 0.911664 -1.649049
v 2.357900 1.067696 -2.114094
v 2.421639 1.147532 -2.086927
v 2.403765 1.078390 -1.598071
v 2.315370 0.635717 -0.379970
v 2.311001 0.839863 -0.486510
v 2.336383 0.700162 -0.815885
v 2.339848 0.580278 -0.750656
v 2.151274 0.867030 -0.708600
v 2.267942 0.705259 -0.916617
v 1.924214 0.705003 -0.514041
v 2.162067 0.573173 -0.837779
v 2.100224 0.541550 -0.386320
v 2.240131 0.515053 -0.779919
v 2.131433 0.809341 0.003855
v 2.183701 1.035514 -0.165121
v 2.188875 1.211277 -0.423981
v 2.173348 0.862166 -1.106213
v 2.346578 1.084543 -1.095325
v 2.388798 1.329848 -2.080569
v 2.176935 1.454536 -1.741692
v 1.719463 1.017329 -1.188482
v 1.858491 0.687947 -0.113857
v 1.713683 0.823270 0.192524
v 1.761819 0.771056 -0.314887
v 2.172258 0.652220 -0.915668
v 2.010825 0.770907 -0.682325
v 1.772674 0.468918 -0.893071
v 1.723881 0.622924 -0.687631
v 1.728850 0.719009 -0.593266
v 1.802190 0.810955 -0.746409
v 1.885855 0.871092 -1.140283
v 1.837370 0.815528 -0.540468
v 2.350604 1.182765 -2.209929
v 2.265308 1.197999 -2.260939
v 2.299540 0.588000 -0.908211
v 0.970877 3.289273 -1.687796
v 0.927827 3.477319 -1.576928
v 2.485396 2.848315 0.927661
v 2.472541 2.517187 0.608890
v 2.333089 2.764635 1.438828
v 2.014642 2.559822 1.655618
v 1.906860 2.172012 1.585205
v 1.941466 1.968196 1.222731
v 1.774801 2.020661 1.105770
v 2.097307 1.924122 0.916502
v 1.941701 2.016603 0.795889
v 2.097261 2.258489 0.471022
v 2.326842 2.114886 0.631042
v 2.157568 1.725503 1.554883
v 2.168020 1.977386 1.841150
v 2.244912 2.292234 1.882308
v 2.534098 2.490229 1.687177
v 2.808893 2.411202 1.436590
v 2.866701 2.167065 1.172166
v 2.760137 1.911127 1.113233
v 2.509313 1.705713 1.251931
v 2.847867 2.145858 1.589306
v 2.697927 2.241262 1.785673
v 2.883539 2.045170 1.378945
v 2.814484 1.872110 1.405363
v 2.667902 1.725515 1.431026
v 2.540182 1.750849 1.680063
v 2.393783 1.908504 1.830103
v 2.517231 2.072483 1.902288
v 2.755539 1.926411 1.676610
v 2.076560 1.844306 1.358208
v 2.682370 2.637103 1.219172
v 2.733546 2.329895 0.897448
v 2.598255 1.996503 0.850007
v 2.306076 1.782777 1.054939
v 2.003000 1.564915 -1.958205
v 1.737803 1.537979 -1.888483
v 1.782378 1.416289 -1.829114
v 1.874350 1.342217 -1.909405
v 2.083944 1.981879 -0.881323
v 2.069415 1.979553 0.182265
v 2.188997 1.758532 -0.199189
v 2.275968 1.501324 -0.655426
v 2.361596 1.366352 -1.134608
v 2.373610 1.367217 -1.622323
vt 0.274696 0.166419
vt 0.289491 0.172547
vt 0.286275 0.186387
vt 0.269110 0.182254
vt 0.291457 0.158670
vt 0.289814 0.148279
vt 0.301516 0.147562
vt 0.301382 0.158331
vt 0.251015 0.153768
vt 0.248736 0.180192
vt 0.230850 0.185858
vt 0.226581 0.161650
vt 0.227104 0.139852
vt 0.246510 0.123288
vt 0.258775 0.222565
vt 0.268854 0.226357
vt 0.263454 0.251567
vt 0.252381 0.232128
vt 0.238497 0.210884
vt 0.253581 0.204421
vt 0.268279 0.201942
vt 0.211184 0.199186
vt 0.209469 0.183845
vt 0.279035 0.084072
vt 0.261223 0.094181
vt 0.249757 0.071838
vt 0.259498 0.065236
vt 0.280383 0.114800
vt 0.267599 0.118017
vt 0.294666 0.075338
vt 0.301851 0.084012
vt 0.288244 0.076908
vt 0.296696 0.061611
vt 0.301734 0.060596
vt 0.297696 0.067803
vt 0.288885 0.050410
vt 0.301697 0.056372
vt 0.293393 0.057244
vt 0.144660 0.168728
vt 0.129475 0.183851
vt 0.128195 0.171532
vt 0.220971 0.076992
vt 0.225076 0.105405
vt 0.254033 0.276899
vt 0.228810 0.254567
vt 0.242056 0.243611
vt 0.280601 0.257228
vt 0.277020 0.284571
vt 0.262299 0.302097
vt 0.239306 0.288340
vt 0.235830 0.276049
vt 0.281646 0.303083
vt 0.221170 0.265571
vt 0.144270 0.197733
vt 0.257492 0.311132
vt 0.238466 0.298108
vt 0.273269 0.037041
vt 0.256545 0.030376
vt 0.041883 0.203805
vt 0.027767 0.205708
vt 0.281790 0.030849
vt 0.291403 0.042720
vt 0.213176 0.256579
vt 0.200383 0.247130
vt 0.210967 0.236056
vt 0.207653 0.270382
vt 0.194497 0.261738
vt 0.294446 0.035300
vt 0.289007 0.025636
vt 0.177381 0.223162
vt 0.193377 0.210837
vt 0.170435 0.195009
vt 0.190494 0.195988
vt 0.176309 0.255392
vt 0.158124 0.255503
vt 0.151282 0.224415
vt 0.227440 0.051271
vt 0.227462 0.038328
vt 0.234009 0.041909
vt 0.237447 0.053514
vt 0.236531 0.072284
vt 0.284686 0.323820
vt 0.279126 0.326539
vt 0.176440 0.278492
vt 0.193723 0.288149
vt 0.158856 0.287908
vt 0.180438 0.304784
vt 0.218456 0.275008
vt 0.223677 0.279019
vt 0.218658 0.282060
vt 0.214007 0.280304
vt 0.220614 0.285874
vt 0.225611 0.290477
vt 0.216644 0.293510
vt 0.217367 0.286408
vt 0.221090 0.283513
vt 0.227308 0.284458
vt 0.213828 0.284064
vt 0.053259 0.250627
vt 0.054266 0.229282
vt 0.069689 0.234586
vt 0.071080 0.249999
vt 0.033871 0.233103
vt 0.103958 0.233894
vt 0.118125 0.238258
vt 0.116451 0.249203
vt 0.109997 0.246109
vt 0.104151 0.247174
vt 0.095959 0.236671
vt 0.117702 0.303707
vt 0.112101 0.329739
vt 0.102952 0.329914
vt 0.100030 0.301825
vt 0.120074 0.295483
vt 0.124780 0.286286
vt 0.136356 0.285045
vt 0.127403 0.267904
vt 0.127677 0.248735
vt 0.136172 0.234486
vt 0.142871 0.259354
vt 0.144251 0.284739
vt 0.118744 0.263362
vt 0.119312 0.255559
vt 0.111138 0.272898
vt 0.111968 0.267040
vt 0.119554 0.286453
vt 0.119122 0.290763
vt 0.116266 0.284767
vt 0.121486 0.278817
vt 0.112898 0.284086
vt 0.115971 0.289861
vt 0.112842 0.287886
vt 0.111072 0.296802
vt 0.107371 0.289630
vt 0.110355 0.281053
vt 0.113290 0.256860
vt 0.113620 0.258568
vt 0.111582 0.258055
vt 0.111300 0.256171
vt 0.111809 0.259248
vt 0.112762 0.260031
vt 0.111660 0.261359
vt 0.110733 0.259364
vt 0.110184 0.257872
vt 0.107839 0.260198
vt 0.109530 0.259612
vt 0.109875 0.261487
vt 0.109067 0.258262
vt 0.107602 0.257249
vt 0.109287 0.256069
vt 0.105039 0.256130
vt 0.107388 0.253263
vt 0.111341 0.253134
vt 0.114513 0.255564
vt 0.115817 0.258780
vt 0.114726 0.261712
vt 0.111690 0.263041
vt 0.104353 0.267017
vt 0.108330 0.263570
vt 0.097578 0.260328
vt 0.104937 0.260870
vt 0.099406 0.251846
vt 0.086185 0.252921
vt 0.090298 0.242907
vt 0.088971 0.265820
vt 0.079222 0.271305
vt 0.095328 0.282850
vt 0.095241 0.291603
vt 0.070651 0.278482
vt 0.099044 0.273252
vt 0.108158 0.353779
vt 0.114850 0.355308
vt 0.123741 0.334626
vt 0.134561 0.337956
vt 0.121209 0.353316
vt 0.133890 0.310182
vt 0.146366 0.309268
vt 0.156472 0.318682
vt 0.103636 0.348575
vt 0.125785 0.220970
vt 0.114386 0.217278
vt 0.069392 0.224432
vt 0.048811 0.217194
vt 0.229119 0.015208
vt 0.026413 0.218445
vt 0.206119 0.284635
vt 0.215028 0.305557
vt 0.244454 0.034978
vt 0.244053 0.028974
vt 0.253589 0.041149
vt 0.239446 0.040808
vt 0.246568 0.049114
vt 0.265916 0.055785
vt 0.271801 0.324959
vt 0.298853 0.302929
vt 0.299260 0.282795
vt 0.299748 0.257479
vt 0.282862 0.228523
vt 0.300252 0.229812
vt 0.283384 0.207904
vt 0.300585 0.210667
vt 0.300926 0.189832
vt 0.301193 0.172209
vt 0.288003 0.016144
vt 0.249587 0.099258
vt 0.235914 0.100783
vt 0.224400 0.222768
vt 0.301864 0.091727
vt 0.301806 0.114162
vt 0.301662 0.133504
vt 0.285783 0.134985
vt 0.273443 0.138774
vt 0.287694 0.071271
vt 0.295755 0.071155
vt 0.275028 0.151504
vt 0.278964 0.073713
vt 0.281844 0.064505
vt 0.278946 0.014532
vt 0.282298 0.059857
vt 0.232193 0.024240
vt 0.231539 0.020273
vt 0.226564 0.029248
vt 0.223101 0.030315
vt 0.236399 0.030892
vt 0.234115 0.033118
vt 0.233398 0.030578
vt 0.235868 0.029042
vt 0.232583 0.033245
vt 0.231008 0.031146
vt 0.095147 0.232713
vt 0.233042 0.028476
vt 0.230998 0.029213
vt 0.081926 0.228439
vt 0.090237 0.228630
vt 0.093478 0.227985
vt 0.083759 0.218543
vt 0.088930 0.224445
vt 0.095954 0.213929
vt 0.094895 0.222398
vt 0.092564 0.222151
vt 0.089657 0.215001
vt 0.206994 0.039421
vt 0.208693 0.046769
vt 0.203162 0.044209
vt 0.203630 0.038058
vt 0.204303 0.036049
vt 0.201014 0.032486
vt 0.208235 0.035011
vt 0.205695 0.034226
vt 0.210390 0.031488
vt 0.216935 0.036147
vt 0.214529 0.044238
vt 0.209398 0.037525
vt 0.212022 0.057842
vt 0.107662 0.178579
vt 0.109696 0.187912
vt 0.098373 0.203933
vt 0.088512 0.203549
vt 0.096987 0.225712
vt 0.102029 0.225709
vt 0.072125 0.213466
vt 0.078390 0.207329
vt 0.218118 0.025394
vt 0.222263 0.051432
vt 0.226144 0.064074
vt 0.222538 0.041508
vt 0.219284 0.032946
vt 0.092005 0.225852
vt 0.093356 0.224545
vt 0.206373 0.036812
vt 0.135790 0.295953
vt 0.143399 0.298126
vt 0.175847 0.181571
vt 0.191785 0.182781
vt 0.206887 0.170229
vt 0.217692 0.156618
vt 0.217747 0.140097
vt 0.213670 0.124806
vt 0.220301 0.121008
vt 0.153078 0.165277
vt 0.205612 0.115802
vt 0.159555 0.181618
vt 0.164532 0.171678
vt 0.206834 0.141738
vt 0.201763 0.133425
vt 0.206584 0.128251
vt 0.208992 0.150424
vt 0.202876 0.160063
vt 0.192986 0.170896
vt 0.192293 0.161720
vt 0.179480 0.169239
vt 0.182666 0.159753
vt 0.171098 0.161731
vt 0.177177 0.153464
vt 0.196130 0.120832
vt 0.173950 0.143149
vt 0.190952 0.153559
vt 0.197541 0.153704
vt 0.185334 0.153414
vt 0.184198 0.147534
vt 0.183930 0.139732
vt 0.192746 0.140568
vt 0.200255 0.142894
vt 0.200218 0.147829
vt 0.190848 0.146873
vt 0.301524 0.041146
vt 0.301628 0.049405
vt 0.096087 0.234477
vt 0.083814 0.237694
vt 0.082984 0.234296
vt 0.086345 0.231846
vt 0.284774 0.335416
vt 0.272729 0.331673
vt 0.301390 0.032380
vt 0.300937 0.010878
vt 0.301187 0.021622
vt 0.015311 0.236976
vt 0.591264 0.234573
vt 0.597780 0.224929
vt 0.238490 0.326789
vt 0.187320 0.328724
vt 0.106566 0.360756
vt 0.100558 0.354846
vt 0.119809 0.360359
vt 0.112380 0.361980
vt 0.054550 0.291575
vt 0.032229 0.265859
vt 0.090265 0.332961
vt 0.078472 0.312654
vt 0.141270 0.345729
vt 0.164729 0.332241
vt 0.308796 0.331146
vt 0.301784 0.067591
vt 0.301807 0.071788
vt 0.301830 0.076864
vt 0.131179 0.214550
vt 0.145838 0.184846
vt 0.132506 0.191349
vt 0.117566 0.198689
vt 0.107430 0.208350
vt 0.102447 0.218618
vt 0.327833 0.166917
vt 0.332945 0.182934
vt 0.315673 0.186705
vt 0.312876 0.172777
vt 0.311297 0.158840
vt 0.313200 0.148455
vt 0.351837 0.154628
vt 0.376007 0.163111
vt 0.371002 0.187472
vt 0.353344 0.181321
vt 0.356983 0.123845
vt 0.376093 0.141013
vt 0.341927 0.223628
vt 0.347964 0.233393
vt 0.336209 0.252559
vt 0.331741 0.227164
vt 0.347730 0.205561
vt 0.362551 0.212456
vt 0.333145 0.202708
vt 0.392386 0.186053
vt 0.390175 0.201490
vt 0.324652 0.084062
vt 0.344044 0.065035
vt 0.353864 0.071644
vt 0.342492 0.094265
vt 0.335964 0.118292
vt 0.323224 0.114948
vt 0.308980 0.075301
vt 0.315409 0.076856
vt 0.306786 0.061576
vt 0.305873 0.067772
vt 0.314380 0.050296
vt 0.310014 0.057184
vt 0.457820 0.173612
vt 0.394622 0.080627
vt 0.472448 0.189407
vt 0.378660 0.105919
vt 0.382675 0.076794
vt 0.344633 0.278191
vt 0.357838 0.245211
vt 0.370637 0.256611
vt 0.321404 0.285205
vt 0.318885 0.257751
vt 0.362811 0.277900
vt 0.358869 0.290090
vt 0.335392 0.303162
vt 0.316033 0.303571
vt 0.377836 0.267898
vt 0.457103 0.202678
vt 0.456016 0.189695
vt 0.469124 0.196783
vt 0.359326 0.299904
vt 0.339824 0.312332
vt 0.329678 0.036732
vt 0.335032 0.019855
vt 0.559274 0.212987
vt 0.346237 0.029907
vt 0.311682 0.042600
vt 0.320939 0.030562
vt 0.386146 0.259141
vt 0.389102 0.238600
vt 0.399248 0.250077
vt 0.391136 0.273180
vt 0.404572 0.264943
vt 0.308423 0.035192
vt 0.313518 0.025416
vt 0.423057 0.226827
vt 0.407532 0.213837
vt 0.410921 0.198990
vt 0.431011 0.198829
vt 0.449088 0.229129
vt 0.441075 0.260004
vt 0.422938 0.259213
vt 0.375877 0.050637
vt 0.365909 0.053004
vt 0.369119 0.041238
vt 0.375588 0.037551
vt 0.367092 0.072032
vt 0.312155 0.324094
vt 0.317599 0.327002
vt 0.311591 0.335628
vt 0.421933 0.282367
vt 0.404337 0.291444
vt 0.439104 0.292440
vt 0.416928 0.308555
vt 0.380183 0.277449
vt 0.384425 0.282920
vt 0.379712 0.284504
vt 0.374816 0.281279
vt 0.377614 0.288248
vt 0.380837 0.288897
vt 0.381279 0.296028
vt 0.372448 0.292678
vt 0.370984 0.286592
vt 0.377228 0.285868
vt 0.384458 0.286682
vt 0.546025 0.259320
vt 0.528243 0.257971
vt 0.530243 0.242616
vt 0.545871 0.237943
vt 0.566100 0.242589
vt 0.496024 0.240538
vt 0.489515 0.252518
vt 0.482944 0.255353
vt 0.481698 0.244335
vt 0.503908 0.243638
vt 0.495314 0.253817
vt 0.479558 0.309825
vt 0.497280 0.308641
vt 0.493256 0.336623
vt 0.484126 0.336086
vt 0.461659 0.290419
vt 0.473169 0.292114
vt 0.477505 0.301495
vt 0.471268 0.273619
vt 0.456154 0.264454
vt 0.463807 0.239829
vt 0.471744 0.254432
vt 0.453794 0.289811
vt 0.479833 0.261593
vt 0.480092 0.269416
vt 0.486716 0.273365
vt 0.487319 0.279261
vt 0.478383 0.292489
vt 0.478643 0.296813
vt 0.476755 0.284779
vt 0.481735 0.290935
vt 0.485127 0.290388
vt 0.485032 0.294187
vt 0.481827 0.296037
vt 0.490427 0.296148
vt 0.486446 0.303170
vt 0.487785 0.287454
vt 0.485799 0.263135
vt 0.487815 0.262526
vt 0.487458 0.264397
vt 0.485401 0.264829
vt 0.487183 0.265581
vt 0.486200 0.266325
vt 0.488254 0.265740
vt 0.487248 0.267696
vt 0.488862 0.264270
vt 0.491112 0.266688
vt 0.489027 0.267895
vt 0.489446 0.266036
vt 0.489962 0.264705
vt 0.491466 0.263751
vt 0.489830 0.262505
vt 0.491840 0.259776
vt 0.494072 0.262735
vt 0.487895 0.259490
vt 0.484628 0.261790
vt 0.483197 0.264952
vt 0.484170 0.267926
vt 0.487152 0.269376
vt 0.490488 0.270039
vt 0.494325 0.273646
vt 0.493985 0.267476
vt 0.501359 0.267229
vt 0.499869 0.258678
vt 0.509319 0.250103
vt 0.513034 0.260281
vt 0.519265 0.278946
vt 0.509742 0.273068
vt 0.527544 0.286467
vt 0.502465 0.298605
vt 0.502722 0.289847
vt 0.499385 0.280097
vt 0.488412 0.367309
vt 0.482555 0.368298
vt 0.480357 0.361533
vt 0.487102 0.360272
vt 0.474085 0.359290
vt 0.461371 0.343418
vt 0.472307 0.340512
vt 0.450732 0.314287
vt 0.463146 0.315678
vt 0.440278 0.323322
vt 0.431494 0.336562
vt 0.409113 0.332242
vt 0.454358 0.350920
vt 0.475199 0.366381
vt 0.491828 0.355250
vt 0.505807 0.340175
vt 0.494653 0.361643
vt 0.543108 0.300204
vt 0.518385 0.320330
vt 0.469565 0.220073
vt 0.474711 0.226721
vt 0.483793 0.204759
vt 0.486251 0.223493
vt 0.530943 0.232477
vt 0.551808 0.226083
vt 0.539955 0.212639
vt 0.574142 0.228244
vt 0.584488 0.247211
vt 0.566428 0.275393
vt 0.392121 0.287510
vt 0.382412 0.308146
vt 0.358492 0.034414
vt 0.349497 0.040712
vt 0.358734 0.028375
vt 0.363654 0.040201
vt 0.356706 0.048653
vt 0.337473 0.055546
vt 0.324978 0.325675
vt 0.358161 0.328595
vt 0.323780 0.332361
vt 0.317678 0.228970
vt 0.317865 0.208317
vt 0.314123 0.015855
vt 0.367809 0.101080
vt 0.354132 0.099445
vt 0.376189 0.224817
vt 0.317516 0.135175
vt 0.329772 0.139145
vt 0.307849 0.071119
vt 0.315905 0.071200
vt 0.327897 0.151927
vt 0.324647 0.073642
vt 0.321664 0.064399
vt 0.323107 0.014029
vt 0.321146 0.059735
vt 0.371028 0.019452
vt 0.370497 0.023457
vt 0.379779 0.029443
vt 0.376273 0.028399
vt 0.366469 0.030212
vt 0.366952 0.028351
vt 0.369464 0.029837
vt 0.368812 0.032398
vt 0.371870 0.030353
vt 0.370347 0.032495
vt 0.504872 0.239709
vt 0.513704 0.239199
vt 0.516966 0.241786
vt 0.503865 0.241437
vt 0.498271 0.232427
vt 0.369766 0.027725
vt 0.371830 0.028421
vt 0.509939 0.235825
vt 0.506727 0.235049
vt 0.516816 0.226004
vt 0.518255 0.235972
vt 0.511413 0.231694
vt 0.504812 0.220897
vt 0.511063 0.222224
vt 0.507873 0.229255
vt 0.505534 0.229407
vt 0.396110 0.038478
vt 0.399454 0.037065
vt 0.400024 0.043276
vt 0.394534 0.045896
vt 0.398750 0.035059
vt 0.510495 0.199239
vt 0.394801 0.034063
vt 0.386100 0.035293
vt 0.392563 0.030530
vt 0.397332 0.033248
vt 0.393678 0.036603
vt 0.388658 0.043414
vt 0.402296 0.057231
vt 0.391386 0.057142
vt 0.492087 0.194302
vt 0.502787 0.210801
vt 0.512661 0.210820
vt 0.503310 0.232635
vt 0.498135 0.225320
vt 0.493556 0.214846
vt 0.528649 0.221405
vt 0.522631 0.215014
vt 0.384657 0.024437
vt 0.381048 0.050759
vt 0.377357 0.063638
vt 0.380584 0.040744
vt 0.383672 0.032075
vt 0.508283 0.232976
vt 0.506985 0.231616
vt 0.396689 0.035849
vt 0.461804 0.301362
vt 0.454127 0.303248
vt 0.426053 0.185065
vt 0.410071 0.185610
vt 0.395398 0.172362
vt 0.385037 0.158253
vt 0.385474 0.141541
vt 0.383262 0.121999
vt 0.389911 0.126123
vt 0.393350 0.112158
vt 0.445686 0.162944
vt 0.437748 0.175636
vt 0.442385 0.185852
vt 0.396391 0.143585
vt 0.396994 0.129921
vt 0.401715 0.135362
vt 0.393943 0.152271
vt 0.399740 0.162228
vt 0.410272 0.164335
vt 0.409266 0.173563
vt 0.419983 0.162781
vt 0.422841 0.172481
vt 0.425727 0.156726
vt 0.431524 0.165332
vt 0.416599 0.131875
vt 0.407672 0.122791
vt 0.405294 0.156025
vt 0.411902 0.156166
vt 0.417536 0.156272
vt 0.418891 0.150402
vt 0.419453 0.142552
vt 0.410572 0.142987
vt 0.402953 0.145012
vt 0.402818 0.149990
vt 0.412247 0.149433
vt 0.516004 0.245151
vt 0.009051 0.224076
vt 0.002930 0.214176
vt 0.287752 0.331053
vt 0.494487 0.185051
vt 0.401988 0.031450
vt 0.438930 0.154022
vt 0.429408 0.146547
vt 0.398171 0.117201
vt 0.393144 0.100119
vt 0.449499 0.169766
vt 0.474214 0.177137
vt 0.201105 0.058020
vt 0.091132 0.192077
vt 0.164194 0.150109
vt 0.187056 0.129376
vt 0.157126 0.158666
vt 0.210600 0.099640
vt 0.210390 0.111183
vt 0.209039 0.080771
vt 0.373296 0.014330
vt 0.527792 0.204436
vt 0.585006 0.218351
vt 0.290192 0.003206
vt 0.311296 0.002930
vt 0.573304 0.215462
vt 0.351428 0.017495
vt 0.061188 0.204246
vt 0.073661 0.196553
vt 0.015959 0.208121
vt 0.267331 0.020346
vt 0.250960 0.018071
vn -0.557279 -0.207006 0.804107
vn -0.297541 -0.138988 0.944538
vn -0.342234 0.069639 0.937030
vn -0.599566 -0.024084 0.799963
vn -0.253687 -0.318168 0.913462
vn -0.238315 -0.409258 0.880746
vn -0.000000 -0.465948 0.884812
vn 0.000000 -0.330588 0.943775
vn -0.687416 -0.242880 0.684448
vn -0.761137 -0.080598 0.643564
vn -0.857703 0.018526 0.513812
vn -0.672842 -0.022258 0.739451
vn -0.567513 -0.362175 0.739431
vn -0.695636 -0.309957 0.648087
vn -0.749173 0.383475 0.540081
vn -0.575634 0.537822 0.615949
vn -0.622558 0.713678 0.321070
vn -0.821722 0.412985 0.392703
vn -0.898913 0.171795 0.403041
vn -0.788459 0.134732 0.600150
vn -0.611303 0.178246 0.771062
vn -0.948368 0.176459 0.263555
vn -0.737376 0.495173 0.459434
vn -0.262889 -0.623412 0.736374
vn -0.346672 -0.563784 0.749644
vn -0.513100 -0.658677 0.550339
vn -0.027364 -0.918119 0.395359
vn -0.250118 -0.554960 0.793385
vn -0.420240 -0.450895 0.787459
vn -0.473343 -0.765608 0.435650
vn -0.000000 -0.819804 0.572644
vn -0.000000 -0.563499 0.826117
vn -0.554430 -0.550447 0.624192
vn -0.323714 -0.370143 -0.870749
vn -0.000000 -0.197657 -0.980271
vn -0.000000 -0.113019 -0.993593
vn -0.439823 -0.009578 -0.898034
vn -0.052387 -0.964908 0.257308
vn 0.000000 -0.806833 0.590780
vn 0.000000 -0.988409 0.151814
vn -0.006270 -0.997353 0.072437
vn -0.867361 -0.326144 0.375918
vn -0.940557 -0.061579 0.334007
vn -0.873320 -0.122820 0.471411
vn -0.865306 -0.182084 0.467001
vn -0.857667 -0.284481 0.428343
vn -0.627852 0.773961 0.082382
vn -0.874390 0.471331 0.115277
vn -0.857231 0.477010 0.193950
vn -0.375964 0.814485 0.441888
vn -0.433488 0.885431 0.167630
vn -0.512244 0.739021 -0.437555
vn -0.164142 0.950054 -0.265434
vn -0.673583 0.737401 0.050262
vn -0.518246 0.854494 -0.035525
vn -0.916597 0.398535 0.031948
vn -0.987200 0.151018 -0.051284
vn -0.976056 0.167373 0.138929
vn -0.959346 -0.150738 0.238609
vn -0.192912 0.030396 -0.980745
vn 0.322781 0.411039 -0.852560
vn 0.052029 -0.992031 -0.114746
vn 0.474813 -0.792926 -0.381866
vn 0.345433 -0.586930 -0.732249
vn -0.011849 -0.734197 -0.678833
vn -0.649605 -0.759532 -0.033546
vn -0.435187 -0.765835 0.473401
vn -0.968411 0.201338 -0.147119
vn -0.964072 0.142769 -0.224015
vn -0.979526 0.197324 0.039908
vn -0.808145 -0.145189 -0.570808
vn -0.762720 0.189816 -0.618246
vn -0.574783 -0.748078 0.331670
vn -0.717494 -0.691806 -0.081285
vn 0.000000 -0.984703 -0.174242
vn 0.000000 -0.961844 0.273599
vn -0.966800 0.142495 -0.212117
vn -0.984740 0.167905 -0.045774
vn -0.951789 0.093033 -0.292306
vn -0.888377 0.419500 -0.186564
vn -0.816457 0.319589 -0.480896
vn -0.825866 0.472292 -0.308035
vn -0.973064 0.207050 -0.101372
vn -0.975143 -0.180796 0.128098
vn -0.995833 0.073246 0.054334
vn -0.859341 -0.488083 0.152673
vn -0.773323 -0.596321 0.215344
vn -0.913829 -0.202914 0.351772
vn -0.582342 0.810096 -0.067988
vn 0.000000 0.988024 -0.154299
vn 0.000000 0.025381 -0.999678
vn -0.872238 0.139344 -0.468811
vn -0.455307 0.537429 -0.709836
vn -0.249701 0.360514 -0.898710
vn -0.516588 0.674291 -0.527701
vn -0.217888 0.706903 -0.672914
vn -0.982089 0.183438 -0.043029
vn -0.748956 0.662616 0.002124
vn -0.729972 0.363543 -0.578773
vn -0.786202 -0.422502 -0.450975
vn 0.792043 0.375948 -0.480968
vn 0.732634 0.446155 -0.513998
vn 0.685359 -0.029174 -0.727620
vn 0.590695 -0.325287 -0.738423
vn -0.035975 0.954099 -0.297323
vn -0.076790 0.982374 -0.170426
vn 0.202770 -0.777890 -0.594787
vn 0.153380 -0.821306 -0.549482
vn 0.341454 -0.786344 -0.514851
vn 0.396075 -0.813835 -0.425202
vn 0.371370 -0.755030 -0.540383
vn 0.054346 -0.763263 -0.643798
vn -0.920446 -0.389276 0.035267
vn -0.972361 0.007757 0.233353
vn -0.933739 0.154285 0.322999
vn -0.927687 -0.361929 0.091677
vn -0.596185 -0.754440 -0.274559
vn -0.545348 -0.783621 -0.297546
vn -0.531095 0.828123 -0.179305
vn -0.900969 0.044463 -0.431599
vn -0.501987 -0.391435 -0.771225
vn -0.087695 -0.356997 -0.929980
vn 0.590046 0.650135 0.478717
vn -0.325653 0.720982 0.611667
vn -0.442086 0.840606 0.312956
vn -0.682604 0.730078 0.032225
vn -0.769176 0.595641 0.231473
vn -0.922650 0.374987 0.090005
vn -0.751398 0.657423 -0.056538
vn -0.527266 0.804421 -0.273675
vn -0.282673 0.949468 0.136408
vn -0.611412 0.710326 0.348730
vn -0.200939 0.472162 -0.858305
vn 0.310229 0.848688 -0.428354
vn -0.432913 0.783595 0.445606
vn 0.620624 0.740708 0.257251
vn -0.840258 0.461304 -0.284896
vn -0.922488 0.386009 -0.003632
vn -0.657798 -0.205296 -0.724676
vn 0.716544 0.385162 -0.581562
vn 0.381408 -0.272299 -0.883392
vn 0.921113 0.086905 -0.379470
vn 0.448193 -0.352597 -0.821461
vn -0.393330 -0.117776 -0.911823
vn -0.848164 0.366932 0.382071
vn -0.483907 0.725529 0.489327
vn -0.863070 0.503453 0.040569
vn -0.999900 0.002674 0.013927
vn -0.068089 0.989954 0.123918
vn 0.143095 0.921141 0.361971
vn 0.645372 0.761945 -0.054173
vn 0.250237 0.854482 -0.455238
vn -0.826532 0.169620 -0.536725
vn 0.487760 -0.209194 -0.847542
vn 0.403282 0.238107 -0.883555
vn 0.803705 0.334250 -0.492276
vn -0.238491 -0.196739 -0.951008
vn -0.204097 -0.476800 -0.854989
vn -0.851985 -0.334148 -0.403072
vn -0.093532 -0.663372 -0.742421
vn -0.741273 -0.573923 -0.348032
vn -0.982730 -0.170689 0.071458
vn -0.872529 0.316979 0.371776
vn -0.472149 0.741051 0.477408
vn 0.022548 0.946398 0.322214
vn 0.575816 0.804485 -0.145739
vn 0.607931 0.071116 -0.790799
vn 0.755387 0.187978 -0.627737
vn 0.440001 -0.468973 -0.765809
vn 0.472133 -0.342411 -0.812309
vn 0.012387 -0.786692 -0.617222
vn 0.394918 -0.697773 -0.597623
vn 0.126415 -0.841892 -0.524630
vn 0.545459 -0.429043 -0.719998
vn 0.477978 -0.517178 -0.709974
vn 0.403046 -0.304558 -0.863017
vn 0.479206 -0.333059 -0.812055
vn 0.124470 -0.599918 -0.790320
vn 0.477684 -0.128924 -0.869020
vn -0.000000 0.427275 -0.904122
vn -0.807777 0.196459 -0.555787
vn -0.809735 0.537353 -0.235756
vn 0.000000 0.910150 -0.414278
vn -0.875410 0.468608 -0.118590
vn -0.444904 0.865905 0.228625
vn -0.412996 0.873513 0.257702
vn -0.909451 0.281302 -0.306215
vn -0.618604 0.749081 -0.237079
vn -0.395414 0.899441 -0.186153
vn 0.000000 0.723188 -0.690652
vn 0.000000 0.985490 -0.169733
vn -0.000000 0.952574 0.304308
vn -0.000000 0.969545 0.244913
vn -0.444210 -0.337531 -0.829910
vn -0.000000 -0.354620 -0.935010
vn -0.000000 -0.524867 -0.851184
vn 0.000000 -0.449048 -0.893508
vn -0.000000 -0.600412 -0.799691
vn -0.977930 0.208874 0.004986
vn -0.995892 0.064816 0.063233
vn -0.984606 0.148988 0.091394
vn -0.971302 0.236408 -0.026158
vn 0.638704 -0.598479 -0.483611
vn 0.361602 -0.573160 -0.735345
vn 0.464751 -0.598452 -0.652581
vn 0.008047 -0.435063 -0.900364
vn 0.000000 -0.708082 -0.706130
vn 0.000000 -0.812157 -0.583439
vn 0.070821 -0.353353 -0.932806
vn 0.084472 0.490234 -0.867487
vn 0.390537 -0.906230 -0.161950
vn 0.788037 -0.271893 -0.552333
vn 0.355940 -0.933888 -0.034047
vn -0.177757 -0.982193 0.060822
vn -0.080256 -0.985716 0.148062
vn 0.273832 -0.961509 0.022712
vn -0.610539 -0.461395 -0.643706
vn -0.000000 -0.576660 -0.816984
vn -0.000000 0.397921 -0.917419
vn -0.000000 0.986252 0.165251
vn -0.000000 0.949348 0.314227
vn -0.000000 0.854870 0.518842
vn -0.350390 0.634616 0.688832
vn -0.000000 0.687263 0.726409
vn -0.361023 0.339392 0.868606
vn -0.000000 0.406451 0.913673
vn -0.000000 0.151277 0.988491
vn 0.000000 -0.134610 0.990899
vn -0.000000 -0.669889 -0.742462
vn -0.667820 -0.494974 -0.555893
vn -0.735873 -0.238637 0.633675
vn -0.901984 -0.160802 0.400708
vn -0.952593 0.213658 0.216604
vn 0.000000 -0.557227 0.830360
vn -0.000000 -0.531330 0.847165
vn -0.217678 -0.504592 0.835466
vn -0.503590 -0.392935 0.769415
vn -0.681147 -0.580044 -0.446752
vn -0.703709 -0.481835 -0.522138
vn -0.524486 -0.286332 0.801828
vn 0.000000 -0.696170 0.717877
vn -0.000000 -0.990950 -0.134232
vn -0.069791 -0.989782 0.124345
vn 0.140914 -0.971983 -0.188126
vn -0.000000 -0.549620 0.835415
vn -0.484721 -0.381572 -0.787050
vn -0.000000 -0.148469 -0.988917
vn -0.000000 -0.241254 -0.970462
vn 0.127387 -0.991646 0.020284
vn 0.522110 0.341153 -0.781675
vn 0.477746 -0.263031 -0.838197
vn -0.771906 0.548780 -0.320940
vn -0.901426 -0.235440 -0.363317
vn 0.328496 -0.885768 -0.327881
vn -0.204892 -0.973878 -0.097880
vn -0.294640 -0.512379 -0.806632
vn 0.694182 -0.252596 -0.674023
vn -0.906593 -0.416065 0.070563
vn -0.991810 0.068359 -0.107888
vn -0.145546 0.840216 -0.522354
vn -0.761068 -0.171800 -0.625508
vn 0.634940 -0.534205 -0.558100
vn 0.751982 -0.120497 -0.648077
vn -0.550618 0.822714 -0.141285
vn 0.346830 0.343973 -0.872578
vn -0.718252 0.557869 -0.415808
vn 0.747439 -0.239509 -0.619653
vn 0.038501 0.764161 -0.643876
vn 0.437714 -0.841256 -0.317323
vn 0.412179 -0.772734 -0.482691
vn 0.749999 -0.524954 -0.402398
vn -0.957453 -0.284210 0.050090
vn -0.980036 -0.187022 -0.067468
vn -0.420949 -0.858036 -0.294241
vn -0.359153 -0.927397 -0.104617
vn -0.850144 -0.521478 0.072908
vn -0.778793 -0.474842 0.409886
vn -0.923857 0.376171 0.070592
vn -0.862158 0.465139 -0.200820
vn -0.210540 0.677344 -0.704895
vn -0.880428 -0.469712 -0.064933
vn 0.650947 -0.674705 -0.347911
vn 0.633092 0.151519 -0.759102
vn 0.674635 -0.380967 -0.632244
vn 0.633947 -0.737267 -0.233558
vn 0.077249 -0.965929 0.247011
vn 0.124442 -0.991104 -0.047203
vn -0.660759 -0.371745 0.652076
vn -0.917868 0.055672 0.392962
vn -0.968267 -0.095269 0.231046
vn -0.946437 -0.280778 0.159438
vn -0.480535 -0.876401 0.031745
vn -0.810865 0.560055 -0.169813
vn -0.883702 0.468041 0.003014
vn -0.957077 0.276794 0.085962
vn 0.583440 -0.707959 -0.397984
vn 0.162984 -0.967890 -0.191380
vn 0.025814 -0.953700 -0.299651
vn -0.376743 -0.818204 0.434289
vn -0.691833 -0.519907 0.501063
vn -0.039991 -0.960637 -0.274913
vn -0.035196 -0.948159 -0.315843
vn -0.044234 0.029064 -0.998598
vn -0.557597 0.002635 -0.830108
vn -0.530042 -0.492805 -0.690071
vn -0.309068 0.819476 -0.482634
vn -0.598767 0.611588 -0.517145
vn -0.709713 0.170081 -0.683652
vn -0.732573 0.651097 -0.198519
vn -0.316053 0.761622 0.565723
vn 0.193763 0.450796 0.871343
vn 0.711714 -0.283393 0.642769
vn 0.572207 -0.813438 0.104393
vn -0.226638 -0.868338 0.441162
vn -0.616851 -0.786625 0.026762
vn 0.189136 -0.877529 -0.440649
vn -0.827090 -0.391523 -0.403276
vn -0.328537 -0.525339 -0.784910
vn 0.579973 -0.354400 0.733507
vn 0.492060 -0.837326 0.238247
vn 0.629590 -0.776858 0.010406
vn 0.241641 0.343085 0.907691
vn -0.344762 0.666642 0.660854
vn -0.786527 0.617555 0.000259
vn -0.818894 0.538106 0.199635
vn -0.847460 0.137764 -0.512671
vn -0.957297 0.072934 -0.279756
vn -0.479920 -0.536142 -0.694427
vn -0.648995 -0.586519 -0.484563
vn 0.100702 -0.893613 -0.437396
vn -0.104610 -0.963115 -0.247923
vn -0.895290 0.142892 0.421946
vn -0.575675 0.329214 0.748476
vn -0.993155 -0.116065 0.013098
vn -0.801578 -0.597847 0.007109
vn -0.376687 -0.924806 0.053309
vn -0.175555 -0.863164 0.473423
vn 0.012637 -0.559002 0.829070
vn -0.285557 -0.014653 0.958250
vn -0.688135 -0.425034 0.588062
vn 0.438587 -0.667141 -0.602133
vn 0.557279 -0.207006 0.804107
vn 0.599566 -0.024084 0.799963
vn 0.342234 0.069639 0.937030
vn 0.297542 -0.138988 0.944538
vn 0.253687 -0.318169 0.913461
vn 0.238315 -0.409258 0.880746
vn 0.687416 -0.242880 0.684448
vn 0.672843 -0.022258 0.739451
vn 0.857703 0.018526 0.513812
vn 0.761137 -0.080598 0.643564
vn 0.695636 -0.309957 0.648087
vn 0.567513 -0.362175 0.739431
vn 0.749173 0.383475 0.540081
vn 0.821723 0.412985 0.392703
vn 0.622558 0.713678 0.321070
vn 0.575634 0.537822 0.615949
vn 0.788459 0.134732 0.600150
vn 0.898913 0.171795 0.403041
vn 0.611303 0.178246 0.771062
vn 0.737377 0.495173 0.459434
vn 0.948367 0.176459 0.263555
vn 0.262889 -0.623412 0.736374
vn 0.027364 -0.918119 0.395360
vn 0.513099 -0.658677 0.550339
vn 0.346672 -0.563784 0.749644
vn 0.420240 -0.450896 0.787459
vn 0.250118 -0.554960 0.793385
vn 0.473343 -0.765608 0.435650
vn 0.554430 -0.550447 0.624192
vn 0.323714 -0.370143 -0.870749
vn 0.439823 -0.009578 -0.898034
vn 0.052387 -0.964908 0.257308
vn 0.006270 -0.997353 0.072437
vn 0.867361 -0.326144 0.375918
vn 0.873320 -0.122820 0.471411
vn 0.940557 -0.061579 0.334007
vn 0.857667 -0.284481 0.428343
vn 0.865306 -0.182084 0.467001
vn 0.627852 0.773961 0.082382
vn 0.857231 0.477010 0.193949
vn 0.874390 0.471331 0.115277
vn 0.433488 0.885431 0.167629
vn 0.375964 0.814485 0.441888
vn 0.673583 0.737401 0.050262
vn 0.164142 0.950054 -0.265433
vn 0.512244 0.739021 -0.437556
vn 0.518246 0.854494 -0.035525
vn 0.916597 0.398535 0.031948
vn 0.987200 0.151018 -0.051284
vn 0.959346 -0.150738 0.238609
vn 0.976056 0.167373 0.138929
vn -0.322781 0.411039 -0.852560
vn 0.192912 0.030396 -0.980745
vn -0.052029 -0.992031 -0.114746
vn 0.011849 -0.734197 -0.678833
vn -0.345433 -0.586930 -0.732249
vn -0.474813 -0.792926 -0.381866
vn 0.435187 -0.765835 0.473401
vn 0.649605 -0.759532 -0.033546
vn 0.968411 0.201338 -0.147119
vn 0.979526 0.197324 0.039908
vn 0.964072 0.142769 -0.224015
vn 0.808145 -0.145189 -0.570808
vn 0.762720 0.189816 -0.618246
vn 0.574783 -0.748078 0.331670
vn 0.717494 -0.691806 -0.081285
vn 0.966800 0.142495 -0.212117
vn 0.984740 0.167905 -0.045774
vn 0.888377 0.419500 -0.186564
vn 0.951789 0.093033 -0.292306
vn 0.973064 0.207050 -0.101372
vn 0.825866 0.472292 -0.308035
vn 0.816457 0.319589 -0.480896
vn 0.975143 -0.180796 0.128098
vn 0.773323 -0.596321 0.215344
vn 0.859341 -0.488083 0.152673
vn 0.995833 0.073246 0.054334
vn 0.913829 -0.202914 0.351772
vn 0.582342 0.810096 -0.067988
vn 0.872238 0.139344 -0.468811
vn 0.455307 0.537429 -0.709835
vn 0.249701 0.360514 -0.898710
vn 0.516588 0.674291 -0.527701
vn 0.217888 0.706903 -0.672914
vn 0.982089 0.183438 -0.043029
vn 0.786202 -0.422502 -0.450975
vn 0.729971 0.363543 -0.578773
vn 0.748956 0.662616 0.002124
vn -0.792043 0.375948 -0.480968
vn -0.590695 -0.325286 -0.738423
vn -0.685359 -0.029174 -0.727620
vn -0.732634 0.446155 -0.513997
vn 0.076790 0.982374 -0.170426
vn 0.035975 0.954099 -0.297323
vn -0.202770 -0.777890 -0.594787
vn -0.153380 -0.821306 -0.549482
vn -0.371370 -0.755030 -0.540383
vn -0.396075 -0.813835 -0.425202
vn -0.341454 -0.786345 -0.514851
vn -0.054346 -0.763263 -0.643798
vn 0.920446 -0.389276 0.035267
vn 0.927687 -0.361929 0.091677
vn 0.933739 0.154285 0.322999
vn 0.972361 0.007757 0.233353
vn 0.545348 -0.783621 -0.297546
vn 0.596185 -0.754441 -0.274559
vn 0.531095 0.828123 -0.179305
vn 0.087695 -0.356997 -0.929980
vn 0.501987 -0.391435 -0.771225
vn 0.900969 0.044463 -0.431599
vn 0.442086 0.840606 0.312956
vn 0.325652 0.720982 0.611666
vn -0.590046 0.650136 0.478717
vn 0.682604 0.730078 0.032225
vn 0.751398 0.657423 -0.056538
vn 0.922650 0.374987 0.090005
vn 0.769176 0.595641 0.231473
vn 0.527266 0.804421 -0.273675
vn 0.611412 0.710326 0.348730
vn 0.282673 0.949468 0.136408
vn -0.310229 0.848687 -0.428354
vn 0.200939 0.472162 -0.858305
vn 0.432913 0.783595 0.445606
vn -0.620624 0.740708 0.257251
vn 0.922488 0.386009 -0.003632
vn 0.840258 0.461304 -0.284896
vn 0.657798 -0.205296 -0.724676
vn -0.381408 -0.272299 -0.883392
vn -0.716545 0.385162 -0.581562
vn -0.448193 -0.352597 -0.821461
vn -0.921113 0.086905 -0.379470
vn 0.393330 -0.117776 -0.911823
vn 0.848165 0.366931 0.382071
vn 0.999900 0.002674 0.013927
vn 0.863070 0.503452 0.040570
vn 0.483907 0.725530 0.489327
vn 0.068090 0.989954 0.123918
vn -0.143095 0.921141 0.361971
vn -0.250235 0.854483 -0.455238
vn -0.645372 0.761945 -0.054172
vn 0.826533 0.169619 -0.536724
vn -0.487761 -0.209193 -0.847542
vn -0.803705 0.334251 -0.492276
vn -0.403281 0.238107 -0.883555
vn 0.238491 -0.196740 -0.951007
vn 0.204098 -0.476800 -0.854989
vn 0.851985 -0.334148 -0.403072
vn 0.741273 -0.573923 -0.348032
vn 0.093532 -0.663372 -0.742421
vn 0.982730 -0.170689 0.071458
vn 0.872529 0.316979 0.371776
vn 0.472149 0.741052 0.477407
vn -0.022548 0.946398 0.322214
vn -0.575815 0.804486 -0.145739
vn -0.755387 0.187978 -0.627737
vn -0.607931 0.071116 -0.790799
vn -0.472133 -0.342410 -0.812309
vn -0.440001 -0.468973 -0.765809
vn -0.012387 -0.786692 -0.617222
vn -0.126415 -0.841892 -0.524630
vn -0.394918 -0.697773 -0.597623
vn -0.477978 -0.517178 -0.709974
vn -0.545459 -0.429043 -0.719998
vn -0.124470 -0.599918 -0.790320
vn -0.479206 -0.333059 -0.812055
vn -0.403046 -0.304558 -0.863017
vn -0.477684 -0.128924 -0.869020
vn 0.809735 0.537353 -0.235755
vn 0.807777 0.196459 -0.555787
vn 0.412996 0.873513 0.257702
vn 0.444904 0.865905 0.228625
vn 0.875410 0.468608 -0.118590
vn 0.618604 0.749081 -0.237079
vn 0.909451 0.281302 -0.306215
vn 0.395414 0.899441 -0.186153
vn 0.444209 -0.337531 -0.829910
vn 0.977930 0.208874 0.004986
vn 0.995892 0.064816 0.063233
vn 0.984606 0.148988 0.091394
vn 0.971302 0.236408 -0.026158
vn -0.638704 -0.598479 -0.483611
vn -0.361602 -0.573160 -0.735345
vn -0.464751 -0.598452 -0.652581
vn -0.008047 -0.435063 -0.900364
vn -0.070821 -0.353353 -0.932806
vn -0.084472 0.490235 -0.867487
vn -0.390537 -0.906230 -0.161949
vn -0.355940 -0.933888 -0.034047
vn -0.788037 -0.271893 -0.552333
vn 0.177757 -0.982193 0.060822
vn 0.080256 -0.985716 0.148062
vn -0.273832 -0.961509 0.022712
vn 0.610538 -0.461395 -0.643706
vn 0.350390 0.634616 0.688832
vn 0.361022 0.339392 0.868606
vn 0.667820 -0.494974 -0.555893
vn 0.901984 -0.160802 0.400708
vn 0.735873 -0.238637 0.633675
vn 0.952593 0.213658 0.216604
vn 0.217678 -0.504592 0.835466
vn 0.503590 -0.392935 0.769415
vn 0.703709 -0.481835 -0.522138
vn 0.681147 -0.580044 -0.446752
vn 0.524486 -0.286332 0.801828
vn 0.069791 -0.989782 0.124345
vn -0.140914 -0.971983 -0.188126
vn 0.484721 -0.381572 -0.787050
vn -0.127387 -0.991646 0.020284
vn -0.477746 -0.263031 -0.838196
vn -0.522110 0.341153 -0.781675
vn 0.901426 -0.235439 -0.363317
vn 0.771905 0.548780 -0.320940
vn -0.328496 -0.885768 -0.327881
vn -0.694182 -0.252596 -0.674023
vn 0.294640 -0.512379 -0.806632
vn 0.204891 -0.973878 -0.097880
vn 0.991810 0.068359 -0.107888
vn 0.906593 -0.416065 0.070563
vn 0.145546 0.840216 -0.522355
vn -0.751983 -0.120497 -0.648076
vn -0.634940 -0.534205 -0.558100
vn 0.761068 -0.171800 -0.625507
vn 0.550618 0.822714 -0.141285
vn -0.346830 0.343973 -0.872578
vn 0.718252 0.557869 -0.415808
vn -0.747439 -0.239509 -0.619653
vn -0.038501 0.764160 -0.643876
vn -0.437714 -0.841256 -0.317323
vn -0.749999 -0.524954 -0.402398
vn -0.412179 -0.772734 -0.482691
vn 0.957453 -0.284210 0.050090
vn 0.359153 -0.927397 -0.104617
vn 0.420949 -0.858036 -0.294241
vn 0.980036 -0.187022 -0.067468
vn 0.850144 -0.521478 0.072908
vn 0.862158 0.465139 -0.200820
vn 0.923857 0.376171 0.070592
vn 0.778793 -0.474842 0.409886
vn 0.210540 0.677345 -0.704895
vn 0.880429 -0.469712 -0.064933
vn -0.650947 -0.674704 -0.347911
vn -0.633947 -0.737267 -0.233558
vn -0.674635 -0.380967 -0.632244
vn -0.633092 0.151519 -0.759102
vn -0.124442 -0.991104 -0.047203
vn -0.077249 -0.965929 0.247011
vn 0.917868 0.055672 0.392961
vn 0.660759 -0.371745 0.652076
vn 0.968267 -0.095269 0.231046
vn 0.946437 -0.280778 0.159438
vn 0.480535 -0.876401 0.031745
vn 0.810865 0.560054 -0.169813
vn 0.883702 0.468040 0.003014
vn 0.957077 0.276794 0.085962
vn -0.583440 -0.707959 -0.397984
vn -0.162984 -0.967889 -0.191380
vn -0.025814 -0.953700 -0.299651
vn 0.376743 -0.818204 0.434289
vn 0.691833 -0.519907 0.501063
vn 0.039990 -0.960637 -0.274912
vn 0.035197 -0.948158 -0.315843
vn 0.044233 0.029064 -0.998598
vn 0.557596 0.002635 -0.830108
vn 0.530042 -0.492805 -0.690072
vn 0.309068 0.819476 -0.482635
vn 0.598767 0.611588 -0.517145
vn 0.709712 0.170081 -0.683652
vn 0.732573 0.651097 -0.198519
vn 0.316053 0.761622 0.565723
vn -0.193763 0.450796 0.871343
vn -0.711714 -0.283393 0.642769
vn 0.226638 -0.868338 0.441162
vn -0.572207 -0.813438 0.104393
vn 0.616851 -0.786625 0.026762
vn -0.189136 -0.877529 -0.440648
vn 0.328536 -0.525339 -0.784910
vn 0.827090 -0.391523 -0.403276
vn -0.579972 -0.354400 0.733507
vn -0.629590 -0.776858 0.010406
vn -0.492060 -0.837326 0.238247
vn -0.241641 0.343085 0.907691
vn 0.344762 0.666642 0.660854
vn 0.818894 0.538106 0.199635
vn 0.786527 0.617555 0.000259
vn 0.957297 0.072934 -0.279756
vn 0.847460 0.137764 -0.512672
vn 0.648995 -0.586519 -0.484563
vn 0.479920 -0.536142 -0.694427
vn 0.104610 -0.963115 -0.247923
vn -0.100702 -0.893613 -0.437396
vn 0.575675 0.329214 0.748476
vn 0.895290 0.142892 0.421946
vn 0.993155 -0.116065 0.013098
vn 0.801579 -0.597847 0.007109
vn 0.376687 -0.924805 0.053309
vn 0.175555 -0.863164 0.473423
vn -0.012637 -0.559002 0.829070
vn 0.285558 -0.014653 0.958250
vn 0.688135 -0.425034 0.588062
vn -0.438587 -0.667141 -0.602133
s 1
g low_01
usemtl initialShadingGroup
f 1/1/1 33/2/2 34/3/3 35/4/4
f 1/1/1 36/5/5 33/2/2
f 2/6/6 37/7/7 38/8/8 36/5/5
f 3/9/9 41/10/10 42/11/11 5/12/12
f 3/9/9 5/12/12 43/13/13 44/14/14
f 4/15/15 45/16/16 71/17/17 46/18/18
f 4/15/15 46/18/18 47/19/19 48/20/20
f 4/15/15 48/20/20 49/21/21 45/16/16
f 5/12/12 42/11/11 50/22/22 51/23/23
f 6/24/24 52/25/25 53/26/26 54/27/27
f 6/24/24 55/28/28 56/29/29 52/25/25
f 7/30/30 57/335/31 234/31/32 235/32/33
f 8/33/34 59/34/35 60/333/36 61/35/37
f 63/36/38 64/307/39 243/37/40 244/38/41
f 9/39/42 66/40/43 67/41/44
f 9/673/42 67/675/44 68/42/45 65/43/46
f 10/44/47 69/45/48 70/46/49 71/17/17
f 10/44/47 71/17/17 72/47/50 73/48/51
f 10/44/47 12/49/52 74/50/53 75/51/54
f 10/44/47 73/48/51 76/52/55 12/49/52
f 10/44/47 75/51/54 77/53/56 69/45/48
f 11/54/57 338/338/58 337/337/59
f 12/49/52 79/55/60 80/56/61 74/50/53
f 13/57/62 81/58/63 82/687/64 83/686/65
f 13/57/62 240/61/66 241/62/67 63/36/38
f 14/63/68 86/64/69 87/65/70 69/45/48
f 88/66/71 89/67/72 86/64/69 14/63/68
f 14/63/68 69/45/48 77/53/56 88/66/71
f 15/68/73 84/69/74 91/316/75 90/314/76
f 16/70/77 92/71/78 87/65/70 86/64/69
f 16/70/77 78/72/79 93/73/80 92/71/78
f 16/70/77 94/74/81 95/75/82 96/76/83
f 16/70/77 96/76/83 11/54/57 78/72/79
f 17/77/84 250/78/85 251/79/86 99/80/87
f 17/77/84 99/80/87 53/26/26 97/81/88
f 18/82/89 100/659/90 101/312/91 102/83/92
f 21/84/93 94/74/81 89/67/72 104/85/94
f 106/86/95 95/75/82 94/74/81 21/84/93
f 21/84/93 104/85/94 105/87/96 106/86/95
f 107/88/97 108/89/98 109/90/99 110/91/100
f 22/92/101 111/93/102 112/94/103 113/95/104
f 22/92/101 23/96/105 114/97/106 111/93/102
f 22/92/101 113/95/104 109/90/99 23/96/105
f 23/96/105 109/90/99 108/89/98 114/97/106
f 115/98/107 110/91/100 109/90/99 113/95/104
f 24/99/108 116/100/109 117/101/110 118/102/111
f 24/99/108 119/103/112 116/100/109
f 25/104/113 122/105/114 123/106/115 124/107/116
f 25/104/113 124/107/116 125/108/117 120/109/118
f 26/110/119 126/111/120 127/112/121 28/113/122
f 26/110/119 131/114/123 132/115/124 128/116/125
f 27/117/126 134/118/127 135/119/128 136/120/129
f 27/117/126 136/120/129 129/121/130 128/116/125
f 27/117/126 137/122/131 138/123/132 134/118/127
f 27/117/126 139/124/133 140/125/134 137/122/131
f 29/126/135 132/115/124 131/114/123 141/127/136
f 29/126/135 142/128/137 143/129/138 132/115/124
f 144/130/139 142/128/137 145/131/140 30/132/141
f 30/132/141 145/131/140 133/133/142 146/134/143
f 30/132/141 146/134/143 147/135/144 144/130/139
f 148/136/145 149/137/146 150/138/147 151/139/148
f 31/140/149 150/138/147 149/137/146 152/141/150
f 31/140/149 152/141/150 153/142/151 154/143/152
f 31/140/149 154/143/152 155/144/153 150/138/147
f 156/145/154 157/146/155 158/147/156
f 32/148/157 155/144/153 154/143/152 157/146/155
f 32/148/157 157/146/155 156/145/154 159/149/158
f 32/148/157 159/149/158 160/150/159 155/144/153
f 160/150/159 159/149/158 161/151/160 162/152/161
f 160/150/159 162/152/161 163/153/162 151/139/148
f 160/150/159 151/139/148 150/138/147 155/144/153
f 163/153/162 162/152/161 125/108/117 124/107/116
f 163/153/162 124/107/116 123/106/115 164/154/163
f 163/153/162 164/154/163 148/136/145 151/139/148
f 164/154/163 123/106/115 138/123/132 165/155/164
f 164/154/163 165/155/164 149/137/146 148/136/145
f 165/155/164 138/123/132 137/122/131 166/156/165
f 165/155/164 166/156/165 152/141/150 149/137/146
f 166/156/165 137/122/131 140/125/134 167/157/166
f 166/156/165 167/157/166 153/142/151 152/141/150
f 167/157/166 140/125/134 168/158/167 169/159/168
f 167/157/166 169/159/168 158/147/156 153/142/151
f 169/159/168 168/158/167 170/160/169 171/161/170
f 169/159/168 171/161/170 156/145/154 158/147/156
f 171/161/170 170/160/169 172/162/171 161/151/160
f 171/161/170 161/151/160 159/149/158 156/145/154
f 172/162/171 170/160/169 173/163/172 174/164/173
f 172/162/171 174/164/173 120/109/118 125/108/117
f 172/162/171 125/108/117 162/152/161 161/151/160
f 174/164/173 173/163/172 118/102/111 117/101/110
f 173/163/172 175/165/174 176/166/175 118/102/111
f 173/163/172 170/160/169 175/165/174
f 176/166/175 177/167/176 178/168/177 179/169/178
f 176/166/175 179/169/178 24/99/108 118/102/111
f 176/166/175 175/165/174 180/170/179 177/167/176
f 175/165/174 170/160/169 168/158/167 180/170/179
f 168/158/167 140/125/134 139/124/133 180/170/179
f 158/147/156 157/146/155 154/143/152 153/142/151
f 181/322/180 182/171/181 183/172/182 184/325/183
f 183/172/182 185/173/184 186/174/185 187/175/186
f 185/173/184 130/176/187 188/177/188
f 185/173/184 183/172/182 182/171/181 126/111/120
f 185/173/184 126/111/120 26/110/119 130/176/187
f 188/177/188 106/86/95 105/87/96 189/178/189
f 188/177/188 189/178/189 186/174/185 185/173/184
f 189/178/189 105/87/96 190/321/190 191/331/191
f 189/178/189 191/331/191 192/330/192 186/174/185
f 192/330/192 193/324/193 187/175/186 186/174/185
f 182/171/181 194/179/194 127/112/121 126/111/120
f 194/179/194 195/323/195 196/328/196 127/112/121
f 144/130/139 147/135/144 143/129/138 142/128/137
f 145/131/140 141/127/136 131/114/123 133/133/142
f 141/127/136 145/131/140 142/128/137 29/126/135
f 177/167/176 147/135/144 146/134/143 178/168/177
f 179/169/178 28/113/122 197/329/197 198/326/198
f 138/123/132 123/106/115 122/105/114 134/118/127
f 136/120/129 135/119/128 96/76/83 95/75/82
f 136/120/129 95/75/82 106/86/95 129/121/130
f 135/119/128 336/336/199 11/54/57 96/76/83
f 135/119/128 134/118/127 122/105/114 199/180/200
f 339/339/201 338/338/58 11/54/57 336/336/199
f 199/180/200 122/105/114 25/104/113 200/181/202
f 121/182/203 117/101/110 116/100/109 201/183/204
f 121/182/203 201/183/204 82/59/64 20/683/205
f 201/183/204 116/100/109 119/103/112 202/185/206
f 201/183/204 202/185/206 83/60/65 82/59/64
f 203/317/207 119/103/112 24/99/108 204/327/208
f 115/98/107 113/95/104 112/94/103 205/186/209
f 115/98/107 205/186/209 88/66/71 110/91/100
f 205/186/209 112/94/103 206/187/210 104/85/94
f 205/186/209 104/85/94 89/67/72 88/66/71
f 114/97/106 108/89/98 75/51/54 74/50/53
f 114/97/106 74/50/53 80/56/61 111/93/102
f 112/94/103 111/93/102 80/56/61 206/187/210
f 110/91/100 88/66/71 77/53/56 107/88/97
f 108/89/98 107/88/97 77/53/56 75/51/54
f 253/188/211 254/189/212 81/58/63 208/190/213
f 252/191/214 253/188/211 208/190/213 209/192/215
f 209/192/215 208/190/213 211/193/216 54/27/27
f 209/192/215 54/27/27 53/26/26 99/80/87
f 209/192/215 99/80/87 251/79/86 252/191/214
f 208/190/213 81/58/63 13/57/62 211/193/216
f 212/194/217 79/55/60 12/49/52 102/83/92
f 212/194/217 213/313/218 214/320/219 79/55/60
f 100/659/90 18/82/89 76/52/55 215/195/220
f 215/195/220 76/52/55 73/48/51 216/196/221
f 216/196/221 73/48/51 72/47/50 217/197/222
f 217/197/222 72/47/50 218/198/223 219/199/224
f 219/199/224 218/198/223 220/200/225 221/201/226
f 221/201/226 220/200/225 34/3/3 222/202/227
f 222/202/227 34/3/3 33/2/2 223/203/228
f 220/200/225 218/198/223 45/16/16 49/21/21
f 220/200/225 49/21/21 35/4/4 34/3/3
f 218/198/223 72/47/50 71/17/17 45/16/16
f 18/82/89 102/83/92 12/49/52 76/52/55
f 224/315/229 91/316/75 84/69/74 85/204/230
f 97/81/88 225/205/231 226/206/232
f 97/81/88 226/206/232 65/43/46 68/42/45
f 226/206/232 225/205/231 44/14/14
f 226/206/232 44/14/14 43/13/13 65/43/46
f 225/205/231 52/25/25 56/29/29 44/14/14
f 225/205/231 97/81/88 53/26/26 52/25/25
f 94/74/81 16/70/77 86/64/69 89/67/72
f 93/73/80 51/23/23 50/22/22 92/71/78
f 92/71/78 50/22/22 227/207/233 87/65/70
f 227/207/233 47/19/19 46/18/18 70/46/49
f 227/207/233 70/46/49 69/45/48 87/65/70
f 227/207/233 50/22/22 42/11/11 47/19/19
f 71/17/17 70/46/49 46/18/18
f 228/209/234 229/210/235 230/211/236 55/28/28
f 56/29/29 55/28/28 230/211/236 39/212/237
f 56/29/29 39/212/237 3/9/9 44/14/14
f 235/32/33 236/213/238 232/214/239 7/30/30
f 40/215/240 2/6/6 36/5/5 1/1/1
f 40/215/240 39/212/237 230/211/236 2/6/6
f 197/329/197 28/113/122 127/112/121 196/328/196
f 178/168/177 146/134/143 133/133/142 28/113/122
f 178/168/177 28/113/122 179/169/178
f 204/327/208 24/99/108 179/169/178 198/326/198
f 223/203/228 33/2/2 36/5/5 38/8/8
f 213/313/218 212/194/217 102/83/92 101/312/91
f 184/325/183 183/172/182 187/175/186 193/324/193
f 195/323/195 194/179/194 182/171/181 181/322/180
f 64/307/39 63/36/38 241/62/67 242/306/241
f 37/7/7 2/6/6 230/211/236 229/210/235
f 147/135/144 177/167/176 180/170/179 139/124/133
f 132/115/124 143/129/138 27/117/126 128/116/125
f 143/129/138 147/135/144 139/124/133 27/117/126
f 206/187/210 80/56/61 79/55/60 214/320/219
f 190/321/190 105/87/96 206/187/210 214/320/219
f 105/87/96 104/85/94 206/187/210
f 41/10/10 48/20/20 47/19/19 42/11/11
f 48/20/20 41/10/10 35/4/4 49/21/21
f 39/212/237 40/215/240 3/9/9
f 57/335/31 7/30/30 232/214/239 233/334/242
f 60/333/36 233/334/242 232/214/239 61/35/37
f 231/216/243 54/27/27 211/193/216 62/217/244
f 6/24/24 54/27/27 231/216/243
f 235/32/33 234/31/32 58/208/245 6/24/24
f 231/216/243 236/213/238 235/32/33 6/24/24
f 232/214/239 236/213/238 8/33/34 61/35/37
f 62/217/244 8/33/34 236/213/238 231/216/243
f 85/204/230 238/218/246 239/679/247 224/315/229
f 238/218/246 240/61/66 13/57/62 83/686/65
f 239/658/247 238/685/246 202/185/206 237/657/248
f 84/69/74 240/61/66 238/218/246 85/204/230
f 241/62/67 240/61/66 84/69/74 15/68/73
f 242/306/241 241/62/67 15/68/73 90/314/76
f 119/103/112 203/317/207 237/657/248 202/185/206
f 238/685/246 83/60/65 202/185/206
f 244/38/41 243/37/40 59/34/35 8/33/34
f 245/219/249 244/38/41 8/33/34 62/217/244
f 13/57/62 63/36/38 245/219/249 211/193/216
f 63/36/38 244/38/41 245/219/249
f 211/193/216 245/219/249 62/217/244
f 81/58/63 254/189/212 255/220/250 247/221/251
f 255/220/250 289/222/252 290/223/253 247/221/251
f 207/224/254 210/225/255 248/226/256 103/227/257
f 248/226/256 210/225/255 98/228/258 19/229/259
f 81/58/63 247/221/251 20/184/205 82/687/64
f 249/230/260 332/308/261 334/310/262 335/311/263
f 200/181/202 332/308/261 249/230/260 281/260/264
f 251/79/86 250/78/85 19/229/259 98/228/258
f 252/191/214 251/79/86 98/228/258 210/225/255
f 207/224/254 253/188/211 252/191/214 210/225/255
f 207/224/254 103/227/257 254/189/212 253/188/211
f 255/220/250 254/189/212 103/227/257 246/231/265
f 246/231/265 288/232/266 289/222/252 255/220/250
f 258/234/267 256/235/268 249/230/260 335/311/263
f 260/236/269 259/237/270 258/234/267 257/233/271
f 264/238/272 263/239/273 262/240/274 261/241/275
f 268/242/276 265/243/277 266/244/278 267/245/279
f 270/246/280 267/245/279 266/244/278 269/247/281
f 272/248/282 286/249/283 287/250/284 271/251/285
f 271/251/285 273/252/286 274/253/287 272/248/282
f 274/253/287 273/252/286 265/243/277 268/242/276
f 265/243/277 275/254/288 276/668/289 266/244/278
f 275/254/288 68/42/45 67/675/44 276/668/289
f 276/255/289 277/256/290 269/669/281
f 276/255/289 67/41/44 66/40/43 277/256/290
f 279/257/291 264/238/272 261/241/275 278/258/292
f 256/235/268 280/259/293 281/260/264 249/230/260
f 280/259/293 341/341/294 281/260/264
f 340/340/295 200/181/202 281/260/264 341/341/294
f 278/258/292 269/669/281 277/256/290 279/257/291
f 257/233/271 121/182/203 282/261/296 260/236/269
f 282/261/296 292/262/297 260/236/269
f 282/261/296 121/182/203 20/683/205
f 291/684/298 292/262/297 282/261/296 20/683/205
f 283/264/299 275/254/288 265/243/277 273/252/286
f 284/265/300 68/42/45 275/254/288 283/264/299
f 97/81/88 68/42/45 284/265/300
f 97/81/88 284/265/300 283/264/299 17/77/84
f 271/251/285 285/266/301 283/264/299 273/252/286
f 287/250/284 286/249/283 270/246/280 269/247/281
f 289/222/252 288/232/266 19/229/259 250/78/85
f 290/223/253 289/222/252 250/78/85 17/77/84
f 278/258/292 292/262/297 291/684/298 269/669/281
f 260/236/269 292/262/297 278/258/292 261/241/275
f 259/237/270 260/236/269 261/241/275 262/240/274
f 247/221/251 290/223/253 291/263/298 20/184/205
f 290/223/253 17/77/84 283/264/299 285/266/301
f 246/231/265 248/226/256 19/229/259 288/232/266
f 103/227/257 248/226/256 246/231/265
f 285/266/301 293/267/302 291/263/298 290/223/253
f 293/267/302 285/266/301 271/251/285 287/250/284
f 293/267/302 287/250/284 269/247/281 291/263/298
f 295/268/303 294/269/304 280/259/293 256/235/268
f 262/240/274 294/269/304 295/268/303 259/237/270
f 294/269/304 262/240/274 263/239/273 280/259/293
f 295/268/303 256/235/268 258/234/267 259/237/270
f 286/249/283 272/248/282 296/270/305 270/246/280
f 274/253/287 268/242/276 296/270/305 272/248/282
f 296/270/305 268/242/276 267/245/279 270/246/280
f 26/110/119 28/113/122 133/133/142 131/114/123
f 129/121/130 297/271/306 26/110/119 128/116/125
f 26/110/119 297/271/306 298/272/307 130/176/187
f 298/272/307 106/86/95 188/177/188 130/176/187
f 106/86/95 298/272/307 297/271/306 129/121/130
f 300/273/308 299/274/309 93/73/80 78/72/79
f 299/274/309 301/275/310 51/23/23 93/73/80
f 301/275/310 302/276/311 5/12/12 51/23/23
f 43/13/13 5/12/12 302/276/311 303/277/312
f 303/277/312 304/278/313 305/279/314 43/13/13
f 307/674/315 305/279/314 304/278/313 306/281/316
f 78/72/79 308/282/317 309/283/318 300/273/308
f 309/283/318 308/282/317 307/280/315 306/672/316
f 308/282/317 78/72/79 11/54/57
f 11/54/57 337/337/59 308/282/317
f 65/43/46 305/279/314 307/674/315 9/673/42
f 305/279/314 65/43/46 43/13/13
f 311/284/319 310/285/320 327/286/321 303/277/312
f 303/277/312 302/276/311 312/287/322 311/284/319
f 302/276/311 301/275/310 313/288/323 312/287/322
f 301/275/310 328/289/324 314/290/325 313/288/323
f 314/290/325 328/289/324 329/291/326 315/292/327
f 329/291/326 330/293/328 316/294/329 315/292/327
f 330/293/328 331/670/330 317/296/331 316/294/329
f 331/295/330 327/286/321 310/285/320 317/671/331
f 314/290/325 318/297/332 319/298/333 313/288/323
f 318/297/332 314/290/325 315/292/327 320/299/334
f 321/300/335 320/299/334 315/292/327 316/294/329
f 322/301/336 321/300/335 316/294/329 317/296/331
f 323/302/337 322/301/336 317/671/331 310/285/320
f 324/303/338 323/302/337 310/285/320 311/284/319
f 312/287/322 325/304/339 324/303/338 311/284/319
f 319/298/333 325/304/339 312/287/322 313/288/323
f 321/300/335 326/305/340 318/297/332 320/299/334
f 319/298/333 318/297/332 326/305/340 325/304/339
f 321/300/335 322/301/336 323/302/337 326/305/340
f 323/302/337 324/303/338 325/304/339 326/305/340
f 303/277/312 327/286/321 304/278/313
f 299/274/309 328/289/324 301/275/310
f 329/291/326 328/289/324 299/274/309 300/273/308
f 309/283/318 330/293/328 329/291/326 300/273/308
f 306/672/316 331/670/330 330/293/328 309/283/318
f 304/278/313 327/286/321 331/295/330 306/281/316
f 1/1/1 35/4/4 41/10/10
f 1/1/1 41/10/10 3/9/9 40/215/240
f 174/164/173 333/309/341 120/109/118
f 200/181/202 25/104/113 120/109/118 332/308/261
f 333/309/341 334/310/262 332/308/261 120/109/118
f 117/101/110 333/309/341 174/164/173
f 121/182/203 334/310/262 333/309/341 117/101/110
f 335/311/263 334/310/262 121/182/203 257/233/271
f 258/234/267 335/311/263 257/233/271
f 6/24/24 58/208/245 228/209/234 55/28/28
f 339/339/201 200/181/202 340/340/295
f 199/180/200 200/181/202 339/339/201 336/336/199
f 135/119/128 199/180/200 336/336/199
f 337/337/59 9/39/42 307/280/315 308/282/317
f 338/338/58 66/40/43 9/39/42 337/337/59
f 277/256/290 66/40/43 338/338/58 339/339/201
f 277/256/290 339/339/201 340/340/295 279/257/291
f 279/257/291 340/340/295 341/341/294 264/238/272
f 280/259/293 263/239/273 264/238/272 341/341/294
f 266/244/278 276/668/289 269/247/281
f 342/342/342 376/343/343 375/344/344 374/345/345
f 342/342/342 374/345/345 377/346/346
f 343/347/347 377/346/346 38/8/8 37/7/7
f 344/348/348 346/349/349 381/350/350 380/351/351
f 344/348/348 383/352/352 382/353/353 346/349/349
f 345/354/354 385/355/355 405/356/356 384/357/357
f 345/354/354 387/358/358 386/359/359 385/355/355
f 345/354/354 384/357/357 388/360/360 387/358/358
f 346/349/349 390/361/361 389/362/362 381/350/350
f 347/363/363 393/364/364 392/365/365 391/366/366
f 347/363/363 391/366/366 395/367/367 394/368/368
f 348/369/369 539/370/370 234/31/32 57/335/31
f 349/371/371 396/372/372 60/333/36 59/34/35
f 398/373/373 544/374/374 243/37/40 64/307/39
f 350/375/375 401/667/376 400/377/377
f 350/665/375 399/378/378 402/379/379 401/376/376
f 351/380/380 405/356/356 404/381/381 403/382/382
f 351/380/380 407/383/383 406/384/384 405/356/356
f 351/380/380 409/385/385 408/386/386 353/387/387
f 351/380/380 353/387/387 410/388/388 407/383/383
f 351/380/380 403/382/382 411/389/389 409/385/385
f 352/390/390 637/391/391 638/392/392
f 353/387/387 408/386/386 414/393/393 413/394/394
f 354/395/395 417/396/396 416/682/397 415/398/398
f 354/395/395 398/373/373 543/399/399 542/400/400
f 355/401/401 403/382/382 421/402/402 420/403/403
f 422/404/404 355/401/401 420/403/403 423/405/405
f 355/401/401 422/404/404 411/389/389 403/382/382
f 356/406/406 90/314/76 91/316/75 418/407/407
f 357/408/408 420/403/403 421/402/402 424/409/409
f 357/408/408 424/409/409 425/410/410 412/411/411
f 357/408/408 428/412/412 427/413/413 426/414/414
f 357/408/408 412/411/411 352/390/390 428/412/412
f 358/415/415 431/416/416 551/417/417 550/418/418
f 358/415/415 429/419/419 392/365/365 431/416/416
f 359/420/420 432/421/421 101/422/91 100/332/90
f 362/423/422 434/424/423 423/405/405 426/414/414
f 436/425/424 362/423/422 426/414/414 427/413/413
f 362/423/422 436/425/424 435/426/425 434/424/423
f 437/427/426 440/428/427 439/429/428 438/430/429
f 363/431/430 443/432/431 442/433/432 441/434/433
f 363/431/430 441/434/433 444/435/434 364/436/435
f 363/431/430 364/436/435 439/429/428 443/432/431
f 364/436/435 444/435/434 438/430/429 439/429/428
f 445/437/436 443/432/431 439/429/428 440/428/427
f 365/438/437 448/439/438 447/440/439 446/441/440
f 365/438/437 446/441/440 449/442/441
f 366/443/442 454/444/443 453/445/444 452/446/445
f 366/443/442 450/447/446 455/448/447 454/444/443
f 367/449/448 369/450/449 457/451/450 456/452/451
f 367/449/448 458/453/452 462/454/453 461/455/454
f 368/456/455 466/457/456 465/458/457 464/459/458
f 368/456/455 458/453/452 459/460/459 466/457/456
f 368/456/455 464/459/458 468/461/460 467/462/461
f 368/456/455 467/462/461 470/463/462 469/464/463
f 370/465/464 471/466/465 461/455/454 462/454/453
f 370/465/464 462/454/453 473/467/466 472/468/467
f 474/469/468 371/470/469 475/471/470 472/468/467
f 371/470/469 476/472/471 463/473/472 475/471/470
f 371/470/469 474/469/468 477/474/473 476/472/471
f 478/475/474 481/476/475 480/477/476 479/478/477
f 372/479/478 482/480/479 479/478/477 480/477/476
f 372/479/478 484/481/480 483/482/481 482/480/479
f 372/479/478 480/477/476 485/483/482 484/481/480
f 486/484/483 488/485/484 487/486/485
f 373/487/486 487/486/485 484/481/480 485/483/482
f 373/487/486 489/488/487 486/484/483 487/486/485
f 373/487/486 485/483/482 490/489/488 489/488/487
f 490/489/488 492/490/489 491/491/490 489/488/487
f 490/489/488 481/476/475 493/492/491 492/490/489
f 490/489/488 485/483/482 480/477/476 481/476/475
f 493/492/491 454/444/443 455/448/447 492/490/489
f 493/492/491 494/493/492 453/445/444 454/444/443
f 493/492/491 481/476/475 478/475/474 494/493/492
f 494/493/492 495/494/493 468/461/460 453/445/444
f 494/493/492 478/475/474 479/478/477 495/494/493
f 495/494/493 496/495/494 467/462/461 468/461/460
f 495/494/493 479/478/477 482/480/479 496/495/494
f 496/495/494 497/496/495 470/463/462 467/462/461
f 496/495/494 482/480/479 483/482/481 497/496/495
f 497/496/495 499/497/496 498/498/497 470/463/462
f 497/496/495 483/482/481 488/485/484 499/497/496
f 499/497/496 501/499/498 500/500/499 498/498/497
f 499/497/496 488/485/484 486/484/483 501/499/498
f 501/499/498 491/491/490 502/501/500 500/500/499
f 501/499/498 486/484/483 489/488/487 491/491/490
f 502/501/500 504/502/501 503/503/502 500/500/499
f 502/501/500 455/448/447 450/447/446 504/502/501
f 502/501/500 491/491/490 492/490/489 455/448/447
f 504/502/501 447/440/439 448/439/438 503/503/502
f 503/503/502 448/439/438 506/504/503 505/505/504
f 503/503/502 505/505/504 500/500/499
f 506/504/503 509/506/505 508/507/506 507/508/507
f 506/504/503 448/439/438 365/438/437 509/506/505
f 506/504/503 507/508/507 510/509/508 505/505/504
f 505/505/504 510/509/508 498/498/497 500/500/499
f 498/498/497 510/509/508 469/464/463 470/463/462
f 488/485/484 483/482/481 484/481/480 487/486/485
f 181/510/180 184/511/183 512/512/509 511/513/510
f 512/512/509 515/514/511 514/515/512 513/516/513
f 513/516/513 516/517/514 460/518/515
f 513/516/513 456/452/451 511/513/510 512/512/509
f 513/516/513 460/518/515 367/449/448 456/452/451
f 516/517/514 517/519/516 435/426/425 436/425/424
f 516/517/514 513/516/513 514/515/512 517/519/516
f 517/519/516 191/520/191 190/521/190 435/426/425
f 517/519/516 514/515/512 192/522/192 191/520/191
f 192/522/192 514/515/512 515/514/511 193/523/193
f 511/513/510 456/452/451 457/451/450 518/524/517
f 518/524/517 457/451/450 196/525/196 195/526/195
f 474/469/468 472/468/467 473/467/466 477/474/473
f 475/471/470 463/473/472 461/455/454 471/466/465
f 471/466/465 370/465/464 472/468/467 475/471/470
f 507/508/507 508/507/506 476/472/471 477/474/473
f 509/506/505 198/527/198 197/528/197 369/450/449
f 468/461/460 464/459/458 452/446/445 453/445/444
f 466/457/456 427/413/413 428/412/412 465/458/457
f 466/457/456 459/460/459 436/425/424 427/413/413
f 465/458/457 428/412/412 352/390/390 636/529/518
f 465/458/457 519/530/519 452/446/445 464/459/458
f 639/531/520 636/529/518 352/390/390 638/392/392
f 519/530/519 520/532/521 366/443/442 452/446/445
f 451/533/522 521/534/523 446/441/440 447/440/439
f 451/533/522 361/535/524 416/397/397 521/534/523
f 521/534/523 522/536/525 449/442/441 446/441/440
f 521/534/523 416/397/397 417/681/396 522/536/525
f 203/537/207 204/538/208 365/438/437 449/442/441
f 445/437/436 523/539/526 442/433/432 443/432/431
f 445/437/436 440/428/427 422/404/404 523/539/526
f 523/539/526 434/424/423 524/540/527 442/433/432
f 523/539/526 422/404/404 423/405/405 434/424/423
f 444/435/434 408/386/386 409/385/385 438/430/429
f 444/435/434 441/434/433 414/393/393 408/386/386
f 442/433/432 524/540/527 414/393/393 441/434/433
f 440/428/427 437/427/426 411/389/389 422/404/404
f 438/430/429 409/385/385 411/389/389 437/427/426
f 553/541/528 526/542/529 415/398/398 554/543/530
f 552/544/531 527/545/532 526/542/529 553/541/528
f 527/545/532 393/364/364 529/546/533 526/542/529
f 527/545/532 431/416/416 392/365/365 393/364/364
f 527/545/532 552/544/531 551/417/417 431/416/416
f 526/542/529 529/546/533 354/395/395 415/398/398
f 530/547/534 432/421/421 353/387/387 413/394/394
f 530/547/534 413/394/394 214/548/219 213/549/218
f 100/332/90 215/195/220 410/388/388 359/420/420
f 215/195/220 216/196/221 407/383/383 410/388/388
f 216/196/221 217/197/222 406/384/384 407/383/383
f 217/197/222 219/199/224 531/550/535 406/384/384
f 219/199/224 221/201/226 532/551/536 531/550/535
f 221/201/226 222/202/227 375/344/344 532/551/536
f 222/202/227 223/203/228 374/345/345 375/344/344
f 532/551/536 388/360/360 384/357/357 531/550/535
f 532/551/536 375/344/344 376/343/343 388/360/360
f 531/550/535 384/357/357 405/356/356 406/384/384
f 359/420/420 410/388/388 353/387/387 432/421/421
f 224/315/229 419/552/537 418/407/407 91/316/75
f 429/419/419 534/553/538 533/554/539
f 429/419/419 402/379/379 399/378/378 534/553/538
f 534/553/538 383/352/352 533/554/539
f 534/553/538 399/378/378 382/353/353 383/352/352
f 533/554/539 383/352/352 395/367/367 391/366/366
f 533/554/539 391/366/366 392/365/365 429/419/419
f 426/414/414 423/405/405 420/403/403 357/408/408
f 425/410/410 424/409/409 389/362/362 390/361/361
f 424/409/409 421/402/402 535/555/540 389/362/362
f 535/555/540 404/381/381 385/355/355 386/359/359
f 535/555/540 421/402/402 403/382/382 404/381/381
f 535/555/540 386/359/359 381/350/350 389/362/362
f 405/356/356 385/355/355 404/381/381
f 228/209/234 394/368/368 536/556/541 229/210/235
f 395/367/367 378/557/542 536/556/541 394/368/368
f 395/367/367 383/352/352 344/348/348 378/557/542
f 539/370/370 348/369/369 538/558/543 540/559/544
f 379/560/545 342/342/342 377/346/346 343/347/347
f 379/560/545 343/347/347 536/556/541 378/557/542
f 197/528/197 196/525/196 457/451/450 369/450/449
f 508/507/506 369/450/449 463/473/472 476/472/471
f 508/507/506 509/506/505 369/450/449
f 204/538/208 198/527/198 509/506/505 365/438/437
f 223/203/228 38/8/8 377/346/346 374/345/345
f 213/549/218 101/422/91 432/421/421 530/547/534
f 184/511/183 193/523/193 515/514/511 512/512/509
f 195/526/195 181/510/180 511/513/510 518/524/517
f 64/307/39 242/306/241 543/399/399 398/373/373
f 37/7/7 229/210/235 536/556/541 343/347/347
f 477/474/473 469/464/463 510/509/508 507/508/507
f 462/454/453 458/453/452 368/456/455 473/467/466
f 473/467/466 368/456/455 469/464/463 477/474/473
f 524/540/527 214/548/219 413/394/394 414/393/393
f 190/521/190 214/548/219 524/540/527 435/426/425
f 435/426/425 524/540/527 434/424/423
f 380/351/351 381/350/350 386/359/359 387/358/358
f 387/358/358 388/360/360 376/343/343 380/351/351
f 378/557/542 344/348/348 379/560/545
f 57/335/31 233/334/242 538/558/543 348/369/369
f 60/333/36 396/372/372 538/558/543 233/334/242
f 537/561/546 397/562/547 529/546/533 393/364/364
f 347/363/363 537/561/546 393/364/364
f 539/370/370 347/363/363 58/208/245 234/31/32
f 537/561/546 347/363/363 539/370/370 540/559/544
f 538/558/543 396/372/372 349/371/371 540/559/544
f 397/562/547 537/561/546 540/559/544 349/371/371
f 419/552/537 224/315/229 239/680/247 541/563/548
f 541/563/548 417/396/396 354/395/395 542/400/400
f 239/319/247 237/318/248 522/536/525 541/678/548
f 418/407/407 419/552/537 541/563/548 542/400/400
f 543/399/399 356/406/406 418/407/407 542/400/400
f 242/306/241 90/314/76 356/406/406 543/399/399
f 449/442/441 522/536/525 237/318/248 203/537/207
f 541/678/548 522/536/525 417/681/396
f 544/374/374 349/371/371 59/34/35 243/37/40
f 545/564/549 397/562/547 349/371/371 544/374/374
f 354/395/395 529/546/533 545/564/549 398/373/373
f 398/373/373 545/564/549 544/374/374
f 529/546/533 397/562/547 545/564/549
f 415/398/398 547/565/550 555/566/551 554/543/530
f 555/566/551 547/565/550 590/567/552 589/568/553
f 525/569/554 433/570/555 548/571/556 528/572/557
f 548/571/556 360/573/558 430/574/559 528/572/557
f 415/398/398 416/682/397 361/676/524 547/565/550
f 549/575/560 635/576/561 634/577/562 632/578/563
f 520/532/521 581/579/564 549/575/560 632/578/563
f 551/417/417 430/574/559 360/573/558 550/418/418
f 552/544/531 528/572/557 430/574/559 551/417/417
f 525/569/554 528/572/557 552/544/531 553/541/528
f 525/569/554 553/541/528 554/543/530 433/570/555
f 555/566/551 546/580/565 433/570/555 554/543/530
f 546/580/565 555/566/551 589/568/553 588/581/566
f 558/582/567 635/576/561 549/575/560 556/583/568
f 560/584/569 557/585/570 558/582/567 559/586/571
f 564/587/572 561/588/573 562/589/574 563/590/575
f 568/591/576 567/592/577 566/593/578 565/594/579
f 570/595/580 569/661/581 566/593/578 567/592/577
f 572/597/582 571/598/583 587/599/584 586/600/585
f 571/598/583 572/597/582 574/601/586 573/602/587
f 574/601/586 568/591/576 565/594/579 573/602/587
f 565/594/579 566/593/578 576/603/588 575/604/589
f 575/604/589 576/603/588 401/376/376 402/379/379
f 576/660/588 569/596/581 577/605/590
f 576/660/588 577/605/590 400/377/377 401/667/376
f 579/606/591 578/607/592 561/588/573 564/587/572
f 556/583/568 549/575/560 581/579/564 580/608/593
f 580/608/593 581/579/564 641/609/594
f 640/610/595 641/609/594 581/579/564 520/532/521
f 578/607/592 579/606/591 577/605/590 569/596/581
f 557/585/570 560/584/569 582/611/596 451/533/522
f 582/611/596 560/584/569 592/612/597
f 582/611/596 361/535/524 451/533/522
f 591/677/598 361/535/524 582/611/596 592/612/597
f 583/614/599 573/602/587 565/594/579 575/604/589
f 584/615/600 583/614/599 575/604/589 402/379/379
f 429/419/419 584/615/600 402/379/379
f 429/419/419 358/415/415 583/614/599 584/615/600
f 571/598/583 573/602/587 583/614/599 585/616/601
f 587/599/584 569/661/581 570/595/580 586/600/585
f 589/568/553 550/418/418 360/573/558 588/581/566
f 590/567/552 358/415/415 550/418/418 589/568/553
f 578/607/592 569/596/581 591/677/598 592/612/597
f 560/584/569 561/588/573 578/607/592 592/612/597
f 559/586/571 562/589/574 561/588/573 560/584/569
f 547/565/550 361/676/524 591/613/598 590/567/552
f 590/567/552 585/616/601 583/614/599 358/415/415
f 546/580/565 588/581/566 360/573/558 548/571/556
f 433/570/555 546/580/565 548/571/556
f 585/616/601 590/567/552 591/613/598 593/617/602
f 593/617/602 587/599/584 571/598/583 585/616/601
f 593/617/602 591/613/598 569/661/581 587/599/584
f 595/618/603 556/583/568 580/608/593 594/619/604
f 562/589/574 559/586/571 595/618/603 594/619/604
f 594/619/604 580/608/593 563/590/575 562/589/574
f 595/618/603 559/586/571 558/582/567 556/583/568
f 586/600/585 570/595/580 596/620/605 572/597/582
f 574/601/586 572/597/582 596/620/605 568/591/576
f 596/620/605 570/595/580 567/592/577 568/591/576
f 367/449/448 461/455/454 463/473/472 369/450/449
f 459/460/459 458/453/452 367/449/448 597/621/606
f 367/449/448 460/518/515 598/622/607 597/621/606
f 598/622/607 460/518/515 516/517/514 436/425/424
f 436/425/424 459/460/459 597/621/606 598/622/607
f 600/623/608 412/411/411 425/410/410 599/624/609
f 599/624/609 425/410/410 390/361/361 601/625/610
f 601/625/610 390/361/361 346/349/349 602/626/611
f 382/353/353 603/627/612 602/626/611 346/349/349
f 603/627/612 382/353/353 605/628/613 604/629/614
f 607/630/615 606/664/616 604/629/614 605/628/613
f 412/411/411 600/623/608 609/632/617 608/633/618
f 609/632/617 606/631/616 607/666/615 608/633/618
f 608/633/618 352/390/390 412/411/411
f 352/390/390 608/633/618 637/391/391
f 399/378/378 350/665/375 607/630/615 605/628/613
f 605/628/613 382/353/353 399/378/378
f 611/634/619 603/627/612 627/635/620 610/636/621
f 603/627/612 611/634/619 612/637/622 602/626/611
f 602/626/611 612/637/622 613/638/623 601/625/610
f 601/625/610 613/638/623 614/639/624 628/640/625
f 614/639/624 615/641/626 629/642/627 628/640/625
f 629/642/627 615/641/626 616/643/628 630/644/629
f 630/644/629 616/643/628 617/663/630 631/662/631
f 631/646/631 617/645/630 610/636/621 627/635/620
f 614/639/624 613/638/623 619/647/632 618/648/633
f 618/648/633 620/649/634 615/641/626 614/639/624
f 621/650/635 616/643/628 615/641/626 620/649/634
f 622/651/636 617/663/630 616/643/628 621/650/635
f 623/652/637 610/636/621 617/645/630 622/651/636
f 624/653/638 611/634/619 610/636/621 623/652/637
f 612/637/622 611/634/619 624/653/638 625/654/639
f 619/647/632 613/638/623 612/637/622 625/654/639
f 621/650/635 620/649/634 618/648/633 626/655/640
f 619/647/632 625/654/639 626/655/640 618/648/633
f 621/650/635 626/655/640 623/652/637 622/651/636
f 623/652/637 626/655/640 625/654/639 624/653/638
f 603/627/612 604/629/614 627/635/620
f 599/624/609 601/625/610 628/640/625
f 629/642/627 600/623/608 599/624/609 628/640/625
f 609/632/617 600/623/608 629/642/627 630/644/629
f 606/631/616 609/632/617 630/644/629 631/662/631
f 604/629/614 606/664/616 631/646/631 627/635/620
f 342/342/342 380/351/351 376/343/343
f 342/342/342 379/560/545 344/348/348 380/351/351
f 504/502/501 450/447/446 633/656/641
f 520/532/521 632/578/563 450/447/446 366/443/442
f 633/656/641 450/447/446 632/578/563 634/577/562
f 447/440/439 504/502/501 633/656/641
f 451/533/522 447/440/439 633/656/641 634/577/562
f 635/576/561 557/585/570 451/533/522 634/577/562
f 558/582/567 557/585/570 635/576/561
f 347/363/363 394/368/368 228/209/234 58/208/245
f 639/531/520 640/610/595 520/532/521
f 519/530/519 636/529/518 639/531/520 520/532/521
f 465/458/457 636/529/518 519/530/519
f 637/391/391 608/633/618 607/666/615 350/375/375
f 638/392/392 637/391/391 350/375/375 400/377/377
f 577/605/590 639/531/520 638/392/392 400/377/377
f 577/605/590 579/606/591 640/610/595 639/531/520
f 579/606/591 564/587/572 641/609/594 640/610/595
f 580/608/593 641/609/594 564/587/572 563/590/575
f 566/593/578 569/661/581 576/603/588
