# This file uses centimeters as units for non-parametric coordinates.

mtllib ghost_02v_lwo.mtl
g default
v -0.768843 3.013106 2.607495
v -0.327992 2.390062 2.566024
v -1.266898 2.601647 2.060698
v -1.324463 4.727994 1.947946
v -1.735346 2.753339 1.546218
v -0.612202 0.716141 1.266779
v -0.267360 0.145153 1.115298
v -0.125836 0.530637 0.923329
v -1.870721 1.798825 0.576813
v -1.276429 5.461567 0.866879
v -2.049968 2.082773 -0.175918
v -0.692323 0.516973 0.081711
v -1.628352 4.663640 -0.037692
v -0.203408 0.183244 0.179579
v -2.002005 3.195319 -0.042111
v -1.741166 0.600057 -0.093007
v -1.812233 0.387501 -0.856061
v -1.496284 0.865987 -0.789623
v -1.304437 3.898380 -0.792121
v -0.792754 1.634409 -1.419988
v -2.133864 1.747716 -1.893921
v -0.750506 3.159583 -1.966516
v -1.723678 2.924305 -2.137574
v -0.628210 2.956119 -2.176369
v -1.232771 3.956900 -2.626357
v -1.117600 3.721390 -2.895537
v -2.542511 3.068294 -3.330606
v -2.557239 2.955214 -3.435575
v -0.368614 3.234680 2.853496
v -0.489909 3.736089 2.859197
v -0.963095 3.539274 2.566322
v -0.290860 2.742489 2.728107
v 0.000000 2.357703 2.589438
v 0.000000 2.717187 2.766576
v -0.746335 2.111597 2.269522
v -0.728693 2.510238 2.461740
v -1.415247 3.380199 2.117584
v -1.735955 3.393167 1.642501
v -1.689979 2.311966 1.445319
v -1.321483 1.800506 1.622037
v -1.052352 4.929904 2.102839
v -1.459730 4.883269 1.588128
v -1.695497 4.155221 1.603293
v -1.414845 4.158869 2.095768
v -1.063701 4.197733 2.474938
v -1.977831 3.439993 1.054734
v -2.104104 3.057957 1.194694
v -1.133883 0.926995 1.435412
v -1.522236 0.461363 0.850996
v -1.214565 0.370501 0.744375
v -0.554542 1.411309 1.885671
v -0.891620 1.525709 1.872028
v 0.000000 0.107339 1.175560
v 0.000000 0.584633 1.607861
v 0.000000 0.534471 0.905387
v 0.000000 0.183468 0.768016
v -0.156352 0.193761 0.802272
v -0.545124 0.576696 0.841850
v -0.318659 0.527341 0.512545
v 0.000000 0.499374 0.524346
v -1.646844 1.658458 0.937155
v -2.108765 1.597406 -0.042697
v -1.951592 1.419784 0.258594
v -1.769621 1.138611 0.380704
v -1.700876 4.803157 0.464844
v -1.627061 4.907656 1.035199
v -1.174702 5.358146 1.423808
v -0.627330 5.696529 1.523421
v -0.673299 5.826355 0.896867
v -2.110218 2.635584 0.363246
v -1.075009 0.471925 -0.252242
v -1.061954 0.755943 -0.499717
v -0.686161 0.700837 -0.348577
v -0.311129 0.231283 -0.150974
v -0.285364 0.311802 -0.424762
v -1.872676 4.123874 0.013466
v -1.918154 4.178471 0.529785
v -1.469205 4.529335 -0.334947
v -1.615570 4.213448 -0.377029
v 0.000000 0.051977 0.128236
v 0.000000 0.004748 -0.247554
v -2.046541 3.343971 0.500368
v -2.214132 3.025875 0.684757
v -1.714528 3.641058 -0.578162
v -1.722106 3.196128 -1.012872
v -1.983279 2.590688 -0.654197
v -1.687642 0.719925 0.591314
v -1.793554 0.305321 -0.783857
v -1.704082 0.390003 0.099701
v -1.595252 0.351050 -0.876841
v -1.140718 4.215713 -0.653013
v -0.639454 4.114115 -0.917806
v -1.105552 3.608816 -1.196067
v -1.106301 4.618759 -0.476696
v -1.175461 1.424389 -1.030084
v -1.471394 1.446149 -1.504302
v -1.245488 1.691470 -1.818441
v -0.556330 1.373656 -0.760759
v -1.985662 1.654999 -2.010137
v -1.602304 1.260698 -1.338542
v -2.307595 2.157910 -1.857111
v -2.465846 2.481528 -2.473536
v -2.476893 2.238592 -2.548374
v -2.377329 2.077246 -2.647988
v -0.500377 3.730783 -2.578258
v -0.350047 3.576813 -2.701230
v -1.297576 3.312212 -1.880235
v -1.238051 3.326404 -1.568510
v -0.740354 3.572708 -1.853709
v -0.901366 3.642997 -2.325893
v -1.261960 3.670023 -2.257449
v -0.814847 3.456133 -2.522217
v -2.173908 2.564456 -1.932351
v -2.087044 2.414487 -1.286151
v -1.739855 2.935264 -1.524449
v -2.112422 2.782725 -2.587518
v -2.317585 2.671945 -2.485714
v -1.604797 2.853577 -2.549299
v -1.958858 2.758784 -2.752407
v -1.036967 3.948803 -2.658280
v -1.290257 3.962262 -2.832651
v -1.434448 3.493005 -2.452345
v -1.295552 3.730727 -2.888735
v -1.057484 3.937132 -2.871469
v -1.008111 3.306085 -2.637771
v -1.295686 3.233105 -2.648726
v -2.597645 2.919043 -3.174386
v -2.554153 3.005080 -3.215881
v -2.601573 3.029783 -3.336454
v -2.627570 2.897300 -3.273726
v -2.484061 3.031920 -3.236905
v -2.425471 3.013273 -3.287556
v -2.525568 3.059171 -3.399393
v -2.595953 2.999593 -3.405171
v -2.427000 2.865665 -3.381508
v -2.501046 2.998467 -3.434957
v -2.401066 2.960355 -3.339950
v -2.546646 2.827348 -3.392791
v -2.608195 2.849658 -3.340816
v -2.457564 2.534882 -3.228651
v -2.563501 2.561821 -3.147028
v -2.604952 2.657289 -3.049608
v -2.570588 2.784686 -2.994596
v -2.483437 2.870079 -2.980367
v -2.370555 2.909460 -3.005332
v -2.264660 2.876669 -3.072433
v -1.877253 2.557895 -2.839717
v -2.231278 2.783664 -3.161290
v -1.947549 2.243103 -2.845256
v -2.298997 2.636783 -3.244698
v -2.181998 2.058455 -2.781124
v -1.592937 1.880095 -2.279832
v -1.816858 1.694870 -2.152323
v -1.403000 2.197344 -2.451944
v -1.071166 2.204802 -2.147866
v -1.104510 2.714319 -2.410390
v -0.870420 2.821454 -2.306800
v -0.698593 2.212549 -1.989283
v -1.437863 2.568927 -2.570386
v 0.000000 4.345154 -3.101351
v -0.190802 4.244829 -3.036065
v -0.182732 4.389202 -2.879902
v 0.000000 4.437947 -2.976258
v -0.490819 4.035229 -2.396864
v -0.295442 4.149781 -2.175081
v -0.157582 4.390783 -2.676289
v -0.694999 3.693134 -1.598536
v -0.423587 3.904387 -1.461790
v 0.000000 4.220695 -0.921102
v 0.000000 3.996568 -1.393288
v 0.000000 4.185358 -2.120481
v 0.000000 4.443912 -2.786175
v -0.164570 4.026312 -3.009319
v 0.000000 4.125738 -3.080373
v 0.000000 3.485823 -2.754802
v 0.000000 2.866575 -2.376035
v 0.000000 2.189655 -1.977777
v -2.097512 1.941586 -1.163027
v -2.129879 1.569107 -1.274776
v -1.142724 1.163361 -0.732137
v -0.522361 0.958865 -0.544033
v 0.000000 1.222107 -0.670475
v 0.000000 1.714028 -1.342351
v -0.594363 4.658971 -0.599618
v -1.612139 0.285830 -0.845288
v -1.224497 0.303299 -0.056571
v -1.468808 0.256717 0.084620
v -1.740533 0.263007 -0.794568
v -0.997517 0.437097 0.509866
v 0.000000 4.707889 -0.633323
v 0.000000 5.942320 0.930827
v 0.000000 5.780256 1.642314
v -0.615094 5.095006 2.286474
v 0.000000 5.184293 2.364059
v -0.605202 4.479655 2.662080
v 0.000000 4.611837 2.750396
v 0.000000 3.876353 2.933944
v 0.000000 3.228499 2.898224
v 0.000000 0.154254 -0.574622
v -1.399954 1.147740 1.370057
v -1.522284 1.387958 1.083371
v -1.865987 4.209262 1.030659
v 0.000000 1.317486 1.986360
v 0.000000 1.913769 2.330122
v -0.428858 1.964748 2.326652
v -0.635691 0.551492 1.047248
v -0.264041 0.134128 0.919823
v 0.000000 0.025896 0.912710
v 0.000000 0.337579 1.420068
v -0.428251 0.358161 1.208611
v -0.411403 0.393403 1.054593
v 0.000000 0.838392 -0.577220
v -0.388828 0.549636 -0.457404
v 0.000000 0.501216 -0.612330
v -0.450798 0.399849 -0.031315
v -0.255977 0.373215 0.342553
v 0.000000 0.271057 0.351911
v 0.000000 0.607462 0.745798
v -0.215623 0.615175 0.746135
v -0.527335 0.570603 0.723462
v -1.680928 0.445293 -0.947808
v -1.505227 0.702569 -0.744326
v -1.727427 0.343587 -0.903851
v -2.041119 1.473911 -1.966690
v -1.782858 0.545401 -0.446431
v -1.747963 0.336957 -0.353496
v -1.612123 0.229649 -0.353152
v -1.381548 0.256152 -0.442882
v -1.298398 0.404189 -0.555665
v -1.573161 0.580261 -0.829223
v -2.183757 1.330554 -2.182462
v -1.858733 1.221185 -1.784954
v -2.073023 1.233485 -2.152816
v -2.182131 1.070046 -2.150890
v -2.031158 0.942975 -1.696771
v -2.262629 0.911664 -1.649049
v -2.357900 1.067696 -2.114094
v -2.421639 1.147532 -2.086927
v -2.403765 1.078390 -1.598071
v -2.315370 0.635717 -0.379970
v -2.311001 0.839863 -0.486510
v -2.336383 0.700162 -0.815885
v -2.339848 0.580278 -0.750656
v -2.151274 0.867030 -0.708600
v -2.267942 0.705259 -0.916617
v -1.924214 0.705003 -0.514041
v -2.162067 0.573173 -0.837779
v -2.100224 0.541550 -0.386320
v -2.240131 0.515053 -0.779919
v -2.131433 0.809341 0.003855
v -2.183701 1.035514 -0.165121
v -2.188875 1.211277 -0.423981
v -2.173348 0.862166 -1.106213
v -2.346578 1.084543 -1.095325
v -2.388798 1.329848 -2.080569
v -2.176935 1.454536 -1.741692
v -1.719463 1.017329 -1.188482
v -1.858491 0.687947 -0.113857
v -1.713683 0.823270 0.192524
v -1.761819 0.771056 -0.314887
v -2.172258 0.652220 -0.915668
v -2.010825 0.770907 -0.682325
v -1.772674 0.468918 -0.893071
v -1.723881 0.622924 -0.687631
v -1.728850 0.719009 -0.593266
v -1.802190 0.810955 -0.746409
v -1.885855 0.871092 -1.140283
v -1.837370 0.815528 -0.540468
v -2.350604 1.182765 -2.209929
v -2.265308 1.197999 -2.260939
v -2.299540 0.588000 -0.908211
v -0.970877 3.289273 -1.687796
v -0.927827 3.477319 -1.576928
v -2.485396 2.848315 0.927661
v -2.472541 2.517187 0.608890
v -2.333089 2.764635 1.438828
v -2.014642 2.559822 1.655618
v -1.906860 2.172012 1.585205
v -1.941466 1.968196 1.222731
v -1.774801 2.020661 1.105770
v -2.097307 1.924122 0.916502
v -1.941701 2.016603 0.795889
v -2.097261 2.258489 0.471022
v -2.326842 2.114886 0.631042
v -2.157568 1.725503 1.554883
v -2.168020 1.977386 1.841150
v -2.244912 2.292234 1.882308
v -2.534098 2.490229 1.687177
v -2.808893 2.411202 1.436590
v -2.866701 2.167065 1.172166
v -2.760137 1.911127 1.113233
v -2.509313 1.705713 1.251931
v -2.847867 2.145858 1.589306
v -2.697927 2.241262 1.785673
v -2.883539 2.045170 1.378945
v -2.814484 1.872110 1.405363
v -2.667902 1.725515 1.431026
v -2.540182 1.750849 1.680063
v -2.393783 1.908504 1.830103
v -2.517231 2.072483 1.902288
v -2.755539 1.926411 1.676610
v -2.076560 1.844306 1.358208
v -2.682370 2.637103 1.219172
v -2.733546 2.329895 0.897448
v -2.598255 1.996503 0.850007
v -2.306076 1.782777 1.054939
v -2.003000 1.564915 -1.958205
v -1.737803 1.537979 -1.888483
v -1.782378 1.416289 -1.829114
v -1.874350 1.342217 -1.909405
v -2.083944 1.981879 -0.881323
v -2.069415 1.979553 0.182265
v -2.188997 1.758532 -0.199189
v -2.275968 1.501324 -0.655426
v -2.361596 1.366352 -1.134608
v -2.373610 1.367217 -1.622323
v 0.768843 3.013106 2.607495
v 0.327992 2.390062 2.566024
v 1.266898 2.601647 2.060698
v 1.324463 4.727994 1.947946
v 1.735346 2.753339 1.546218
v 0.612202 0.716141 1.266779
v 0.267360 0.145153 1.115298
v 0.125836 0.530637 0.923329
v 1.870721 1.798825 0.576813
v 1.276429 5.461567 0.866879
v 2.049968 2.082773 -0.175918
v 0.692323 0.516973 0.081711
v 1.628352 4.663640 -0.037692
v 0.203408 0.183244 0.179579
v 2.002005 3.195319 -0.042111
v 1.741166 0.600057 -0.093007
v 1.812233 0.387501 -0.856061
v 1.496284 0.865987 -0.789623
v 1.304437 3.898380 -0.792121
v 0.792754 1.634409 -1.419988
v 2.133864 1.747716 -1.893921
v 0.750506 3.159583 -1.966516
v 1.723678 2.924305 -2.137574
v 0.628210 2.956119 -2.176369
v 1.232771 3.956900 -2.626357
v 1.117600 3.721390 -2.895537
v 2.542511 3.068294 -3.330606
v 2.557239 2.955214 -3.435575
v 0.368614 3.234680 2.853496
v 0.489909 3.736089 2.859197
v 0.963095 3.539274 2.566322
v 0.290860 2.742489 2.728107
v 0.746335 2.111597 2.269522
v 0.728693 2.510238 2.461740
v 1.415247 3.380199 2.117584
v 1.735955 3.393167 1.642501
v 1.689979 2.311966 1.445319
v 1.321483 1.800506 1.622037
v 1.052352 4.929904 2.102839
v 1.459730 4.883269 1.588128
v 1.695497 4.155221 1.603293
v 1.414845 4.158869 2.095768
v 1.063701 4.197733 2.474938
v 1.977831 3.439993 1.054734
v 2.104104 3.057957 1.194694
v 1.133883 0.926995 1.435412
v 1.522236 0.461363 0.850996
v 1.214565 0.370501 0.744375
v 0.554542 1.411309 1.885671
v 0.891620 1.525709 1.872028
v 0.156352 0.193761 0.802272
v 0.545124 0.576696 0.841850
v 0.318659 0.527341 0.512545
v 1.646844 1.658458 0.937155
v 2.108765 1.597406 -0.042697
v 1.951592 1.419784 0.258594
v 1.769621 1.138611 0.380704
v 1.700876 4.803157 0.464844
v 1.627061 4.907656 1.035199
v 1.174702 5.358146 1.423808
v 0.627330 5.696529 1.523421
v 0.673299 5.826355 0.896867
v 2.110218 2.635584 0.363246
v 1.075009 0.471925 -0.252242
v 1.061954 0.755943 -0.499717
v 0.686161 0.700837 -0.348577
v 0.311129 0.231283 -0.150974
v 0.285364 0.311802 -0.424762
v 1.872676 4.123874 0.013466
v 1.918154 4.178471 0.529785
v 1.469205 4.529335 -0.334947
v 1.615570 4.213448 -0.377029
v 2.046541 3.343971 0.500368
v 2.214132 3.025875 0.684757
v 1.714528 3.641058 -0.578162
v 1.722106 3.196128 -1.012872
v 1.983279 2.590688 -0.654197
v 1.687642 0.719925 0.591314
v 1.793554 0.305321 -0.783857
v 1.704082 0.390003 0.099701
v 1.595252 0.351050 -0.876841
v 1.140718 4.215713 -0.653013
v 0.639454 4.114115 -0.917806
v 1.105552 3.608816 -1.196067
v 1.106301 4.618759 -0.476696
v 1.175461 1.424389 -1.030084
v 1.471394 1.446149 -1.504302
v 1.245488 1.691470 -1.818441
v 0.556330 1.373656 -0.760759
v 1.985662 1.654999 -2.010137
v 1.602304 1.260698 -1.338542
v 2.307595 2.157910 -1.857111
v 2.465846 2.481528 -2.473536
v 2.476893 2.238592 -2.548374
v 2.377329 2.077246 -2.647988
v 0.500377 3.730783 -2.578258
v 0.350047 3.576813 -2.701230
v 1.297576 3.312212 -1.880235
v 1.238051 3.326404 -1.568510
v 0.740354 3.572708 -1.853709
v 0.901366 3.642997 -2.325893
v 1.261960 3.670023 -2.257449
v 0.814847 3.456133 -2.522217
v 2.173908 2.564456 -1.932351
v 2.087044 2.414487 -1.286151
v 1.739855 2.935264 -1.524449
v 2.112422 2.782725 -2.587518
v 2.317585 2.671945 -2.485714
v 1.604797 2.853577 -2.549299
v 1.958858 2.758784 -2.752407
v 1.036967 3.948803 -2.658280
v 1.290257 3.962262 -2.832651
v 1.434448 3.493005 -2.452345
v 1.295552 3.730727 -2.888735
v 1.057484 3.937132 -2.871469
v 1.008111 3.306085 -2.637771
v 1.295686 3.233105 -2.648726
v 2.597645 2.919043 -3.174386
v 2.554153 3.005080 -3.215881
v 2.601573 3.029783 -3.336454
v 2.627570 2.897300 -3.273726
v 2.484061 3.031920 -3.236905
v 2.425471 3.013273 -3.287556
v 2.525568 3.059171 -3.399393
v 2.595953 2.999593 -3.405171
v 2.427000 2.865665 -3.381508
v 2.501046 2.998467 -3.434957
v 2.401066 2.960355 -3.339950
v 2.546646 2.827348 -3.392791
v 2.608195 2.849658 -3.340816
v 2.457564 2.534882 -3.228651
v 2.563501 2.561821 -3.147028
v 2.604952 2.657289 -3.049608
v 2.570588 2.784686 -2.994596
v 2.483437 2.870079 -2.980367
v 2.370555 2.909460 -3.005332
v 2.264660 2.876669 -3.072433
v 1.877253 2.557895 -2.839717
v 2.231278 2.783664 -3.161290
v 1.947549 2.243103 -2.845256
v 2.298997 2.636783 -3.244698
v 2.181998 2.058455 -2.781124
v 1.592937 1.880095 -2.279832
v 1.816858 1.694870 -2.152323
v 1.403000 2.197344 -2.451944
v 1.071166 2.204802 -2.147866
v 1.104510 2.714319 -2.410390
v 0.870420 2.821454 -2.306800
v 0.698593 2.212549 -1.989283
v 1.437863 2.568927 -2.570386
v 0.190802 4.244829 -3.036065
v 0.182732 4.389202 -2.879902
v 0.490819 4.035229 -2.396864
v 0.295442 4.149781 -2.175081
v 0.157582 4.390783 -2.676289
v 0.694999 3.693134 -1.598536
v 0.423587 3.904387 -1.461790
v 0.164570 4.026312 -3.009319
v 2.097512 1.941586 -1.163027
v 2.129879 1.569107 -1.274776
v 1.142724 1.163361 -0.732137
v 0.522361 0.958865 -0.544033
v 0.594363 4.658971 -0.599618
v 1.612139 0.285830 -0.845288
v 1.224497 0.303299 -0.056571
v 1.468808 0.256717 0.084620
v 1.740533 0.263007 -0.794568
v 0.997517 0.437097 0.509866
v 0.615094 5.095006 2.286474
v 0.605202 4.479655 2.662080
v 1.399954 1.147740 1.370057
v 1.522284 1.387958 1.083371
v 1.865987 4.209262 1.030659
v 0.428858 1.964748 2.326652
v 0.635691 0.551492 1.047248
v 0.264041 0.134128 0.919823
v 0.428251 0.358161 1.208611
v 0.411403 0.393403 1.054593
v 0.388828 0.549636 -0.457404
v 0.450798 0.399849 -0.031315
v 0.255977 0.373215 0.342553
v 0.215623 0.615175 0.746135
v 0.527335 0.570603 0.723462
v 1.680928 0.445293 -0.947808
v 1.505227 0.702569 -0.744326
v 1.727427 0.343587 -0.903851
v 2.041119 1.473911 -1.966690
v 1.782858 0.545401 -0.446431
v 1.747963 0.336957 -0.353496
v 1.612123 0.229649 -0.353152
v 1.381548 0.256152 -0.442882
v 1.298398 0.404189 -0.555665
v 1.573161 0.580261 -0.829223
v 2.183757 1.330554 -2.182462
v 1.858733 1.221185 -1.784954
v 2.073023 1.233485 -2.152816
v 2.182131 1.070046 -2.150890
v 2.031158 0.942975 -1.696771
v 2.262629 0.911664 -1.649049
v 2.357900 1.067696 -2.114094
v 2.421639 1.147532 -2.086927
v 2.403765 1.078390 -1.598071
v 2.315370 0.635717 -0.379970
v 2.311001 0.839863 -0.486510
v 2.336383 0.700162 -0.815885
v 2.339848 0.580278 -0.750656
v 2.151274 0.867030 -0.708600
v 2.267942 0.705259 -0.916617
v 1.924214 0.705003 -0.514041
v 2.162067 0.573173 -0.837779
v 2.100224 0.541550 -0.386320
v 2.240131 0.515053 -0.779919
v 2.131433 0.809341 0.003855
v 2.183701 1.035514 -0.165121
v 2.188875 1.211277 -0.423981
v 2.173348 0.862166 -1.106213
v 2.346578 1.084543 -1.095325
v 2.388798 1.329848 -2.080569
v 2.176935 1.454536 -1.741692
v 1.719463 1.017329 -1.188482
v 1.858491 0.687947 -0.113857
v 1.713683 0.823270 0.192524
v 1.761819 0.771056 -0.314887
v 2.172258 0.652220 -0.915668
v 2.010825 0.770907 -0.682325
v 1.772674 0.468918 -0.893071
v 1.723881 0.622924 -0.687631
v 1.728850 0.719009 -0.593266
v 1.802190 0.810955 -0.746409
v 1.885855 0.871092 -1.140283
v 1.837370 0.815528 -0.540468
v 2.350604 1.182765 -2.209929
v 2.265308 1.197999 -2.260939
v 2.299540 0.588000 -0.908211
v 0.970877 3.289273 -1.687796
v 0.927827 3.477319 -1.576928
v 2.485396 2.848315 0.927661
v 2.472541 2.517187 0.608890
v 2.333089 2.764635 1.438828
v 2.014642 2.559822 1.655618
v 1.906860 2.172012 1.585205
v 1.941466 1.968196 1.222731
v 1.774801 2.020661 1.105770
v 2.097307 1.924122 0.916502
v 1.941701 2.016603 0.795889
v 2.097261 2.258489 0.471022
v 2.326842 2.114886 0.631042
v 2.157568 1.725503 1.554883
v 2.168020 1.977386 1.841150
v 2.244912 2.292234 1.882308
v 2.534098 2.490229 1.687177
v 2.808893 2.411202 1.436590
v 2.866701 2.167065 1.172166
v 2.760137 1.911127 1.113233
v 2.509313 1.705713 1.251931
v 2.847867 2.145858 1.589306
v 2.697927 2.241262 1.785673
v 2.883539 2.045170 1.378945
v 2.814484 1.872110 1.405363
v 2.667902 1.725515 1.431026
v 2.540182 1.750849 1.680063
v 2.393783 1.908504 1.830103
v 2.517231 2.072483 1.902288
v 2.755539 1.926411 1.676610
v 2.076560 1.844306 1.358208
v 2.682370 2.637103 1.219172
v 2.733546 2.329895 0.897448
v 2.598255 1.996503 0.850007
v 2.306076 1.782777 1.054939
v 2.003000 1.564915 -1.958205
v 1.737803 1.537979 -1.888483
v 1.782378 1.416289 -1.829114
v 1.874350 1.342217 -1.909405
v 2.083944 1.981879 -0.881323
v 2.069415 1.979553 0.182265
v 2.188997 1.758532 -0.199189
v 2.275968 1.501324 -0.655426
v 2.361596 1.366352 -1.134608
v 2.373610 1.367217 -1.622323
v 0.000000 5.752795 0.191252
v 0.710297 5.664091 0.222424
v -0.710297 5.664091 0.222424
v 1.316101 5.352713 0.314385
v -1.316101 5.352713 0.314385
v -1.210378 4.998658 -0.202513
v -0.637765 5.180624 -0.307545
v 0.000000 5.230736 -0.329358
v 0.637765 5.180624 -0.307545
v 1.210378 4.998658 -0.202513
vt 0.276326 0.504316
vt 0.291161 0.510860
vt 0.288085 0.525261
vt 0.270788 0.520513
vt 0.292974 0.496444
vt 0.291238 0.485665
vt 0.302864 0.484892
vt 0.302847 0.496051
vt 0.252521 0.490861
vt 0.250176 0.517601
vt 0.231903 0.522423
vt 0.227833 0.498081
vt 0.228472 0.476470
vt 0.247919 0.460066
vt 0.259439 0.561011
vt 0.270011 0.565789
vt 0.260639 0.586743
vt 0.251896 0.569851
vt 0.238827 0.547786
vt 0.254731 0.542393
vt 0.269888 0.540766
vt 0.211656 0.534656
vt 0.210212 0.519439
vt 0.279950 0.419702
vt 0.262268 0.430509
vt 0.250044 0.408735
vt 0.259497 0.401671
vt 0.281577 0.451163
vt 0.268896 0.454594
vt 0.295700 0.410397
vt 0.302947 0.411976
vt 0.302933 0.419335
vt 0.289169 0.412117
vt 0.297673 0.396221
vt 0.302982 0.395157
vt 0.302967 0.402472
vt 0.298813 0.402676
vt 0.287899 0.384753
vt 0.306400 0.383091
vt 0.302992 0.390505
vt 0.293727 0.391745
vt 0.144567 0.502977
vt 0.129002 0.517816
vt 0.127770 0.505666
vt 0.221459 0.415126
vt 0.226335 0.442626
vt 0.248402 0.598079
vt 0.279746 0.598175
vt 0.265881 0.613573
vt 0.143847 0.531412
vt 0.132014 0.525176
vt 0.145602 0.518844
vt 0.270994 0.372870
vt 0.253720 0.367771
vt 0.041369 0.539169
vt 0.027380 0.541415
vt 0.278482 0.365809
vt 0.289527 0.376429
vt 0.209159 0.596344
vt 0.197979 0.579946
vt 0.210614 0.568197
vt 0.222503 0.586895
vt 0.200665 0.604095
vt 0.192030 0.596371
vt 0.291849 0.368066
vt 0.284282 0.359240
vt 0.311034 0.351392
vt 0.307224 0.363594
vt 0.176764 0.556372
vt 0.193159 0.545164
vt 0.170397 0.529040
vt 0.190707 0.530639
vt 0.175159 0.587253
vt 0.157376 0.587633
vt 0.150649 0.557413
vt 0.226566 0.389817
vt 0.225732 0.377178
vt 0.232462 0.380340
vt 0.236670 0.391468
vt 0.236816 0.409833
vt 0.175397 0.609102
vt 0.186249 0.616077
vt 0.158628 0.619089
vt 0.178165 0.635958
vt 0.053680 0.585366
vt 0.054237 0.564140
vt 0.069653 0.569018
vt 0.071322 0.584287
vt 0.034071 0.568453
vt 0.103607 0.567539
vt 0.117698 0.571528
vt 0.116192 0.582374
vt 0.109729 0.579462
vt 0.103960 0.580659
vt 0.095721 0.570472
vt 0.118715 0.636206
vt 0.114173 0.662168
vt 0.105122 0.662693
vt 0.101198 0.634915
vt 0.120836 0.628044
vt 0.125225 0.618794
vt 0.136610 0.617219
vt 0.127393 0.600591
vt 0.127320 0.581657
vt 0.135595 0.567458
vt 0.142489 0.591772
vt 0.144332 0.616639
vt 0.118769 0.596345
vt 0.119166 0.588603
vt 0.111418 0.605966
vt 0.112139 0.600157
vt 0.120058 0.619117
vt 0.119759 0.623402
vt 0.116749 0.617545
vt 0.121753 0.611497
vt 0.113392 0.616971
vt 0.116610 0.622605
vt 0.113450 0.620739
vt 0.111961 0.629625
vt 0.108094 0.622629
vt 0.110810 0.614044
vt 0.113220 0.590034
vt 0.113589 0.591720
vt 0.111554 0.591260
vt 0.111230 0.589399
vt 0.111808 0.592439
vt 0.112773 0.593192
vt 0.111712 0.594536
vt 0.110744 0.592580
vt 0.110164 0.591113
vt 0.107894 0.593477
vt 0.109557 0.592855
vt 0.109944 0.594706
vt 0.109065 0.591527
vt 0.107588 0.590557
vt 0.109230 0.589346
vt 0.105022 0.589511
vt 0.107283 0.586610
vt 0.111201 0.586387
vt 0.114404 0.588719
vt 0.115773 0.591877
vt 0.114760 0.594811
vt 0.111779 0.596203
vt 0.104597 0.600323
vt 0.108461 0.596809
vt 0.097735 0.593860
vt 0.105033 0.594214
vt 0.099359 0.585406
vt 0.086326 0.586808
vt 0.090214 0.576782
vt 0.089353 0.599527
vt 0.079837 0.605225
vt 0.096030 0.616247
vt 0.096176 0.624923
vt 0.071531 0.612582
vt 0.099479 0.606635
vt 0.495526 0.693356
vt 0.111286 0.686166
vt 0.117988 0.687400
vt 0.489706 0.694320
vt 0.125909 0.666535
vt 0.136770 0.669360
vt 0.124209 0.685156
vt 0.134927 0.641978
vt 0.147187 0.640533
vt 0.157527 0.649244
vt 0.420735 0.657624
vt 0.439207 0.662251
vt 0.461766 0.676930
vt 0.482407 0.692393
vt 0.106582 0.681188
vt 0.501743 0.687750
vt 0.512872 0.666423
vt 0.525327 0.646609
vt 0.549639 0.626300
vt 0.130565 0.547949
vt 0.125195 0.554347
vt 0.116939 0.532518
vt 0.113813 0.550908
vt 0.069181 0.558944
vt 0.048568 0.552277
vt 0.225706 0.354365
vt 0.026335 0.554088
vt 0.589856 0.573031
vt 0.572399 0.601311
vt 0.200980 0.618100
vt 0.201562 0.636155
vt 0.242271 0.372933
vt 0.241389 0.367062
vt 0.251833 0.378437
vt 0.237773 0.378954
vt 0.245474 0.386648
vt 0.265341 0.391924
vt 0.321617 0.627638
vt 0.302783 0.604018
vt 0.284795 0.569507
vt 0.302795 0.571652
vt 0.285336 0.547743
vt 0.302804 0.551015
vt 0.302817 0.528966
vt 0.302830 0.510522
vt 0.318378 0.341661
vt 0.280015 0.350651
vt 0.250735 0.435941
vt 0.237078 0.437850
vt 0.223791 0.558781
vt 0.237859 0.578750
vt 0.302874 0.450444
vt 0.302867 0.470375
vt 0.287113 0.471933
vt 0.274877 0.475829
vt 0.288540 0.406346
vt 0.296818 0.406122
vt 0.276535 0.488920
vt 0.307131 0.374073
vt 0.206197 0.655909
vt 0.302958 0.406751
vt 0.279560 0.409188
vt 0.282075 0.399663
vt 0.302920 0.427267
vt 0.271462 0.351153
vt 0.602697 0.550711
vt 0.596379 0.560381
vt 0.282216 0.394907
vt 0.229384 0.363084
vt 0.228438 0.359230
vt 0.224206 0.368323
vt 0.220887 0.369529
vt 0.234030 0.369380
vt 0.231934 0.371718
vt 0.231042 0.369259
vt 0.233368 0.367586
vt 0.230428 0.371937
vt 0.228721 0.369971
vt 0.094890 0.566578
vt 0.095831 0.568300
vt 0.082839 0.568415
vt 0.086141 0.565910
vt 0.101626 0.559501
vt 0.230536 0.367204
vt 0.228573 0.368059
vt 0.089961 0.562635
vt 0.093167 0.561930
vt 0.083364 0.552768
vt 0.088593 0.558510
vt 0.081702 0.562626
vt 0.095414 0.547946
vt 0.094481 0.556361
vt 0.092162 0.556163
vt 0.089172 0.549137
vt 0.205563 0.379186
vt 0.207662 0.386328
vt 0.202040 0.384066
vt 0.202156 0.378013
vt 0.202715 0.375997
vt 0.199267 0.372639
vt 0.206550 0.374775
vt 0.203995 0.374125
vt 0.208459 0.371221
vt 0.215205 0.375491
vt 0.213302 0.383554
vt 0.207842 0.377194
vt 0.211611 0.396987
vt 0.107016 0.512757
vt 0.109046 0.521980
vt 0.097728 0.538001
vt 0.087901 0.537816
vt 0.096617 0.559606
vt 0.101939 0.552467
vt 0.106810 0.542211
vt 0.071714 0.548004
vt 0.077861 0.541777
vt 0.215676 0.364910
vt 0.221417 0.390221
vt 0.225983 0.402336
vt 0.221070 0.380489
vt 0.217312 0.372259
vt 0.091671 0.559844
vt 0.092990 0.558521
vt 0.204807 0.376644
vt 0.136321 0.627941
vt 0.143863 0.629765
vt 0.176214 0.516209
vt 0.192323 0.517828
vt 0.207780 0.505937
vt 0.218838 0.492809
vt 0.219009 0.476537
vt 0.214977 0.461533
vt 0.221615 0.457917
vt 0.153299 0.499767
vt 0.206938 0.452710
vt 0.159615 0.515855
vt 0.164899 0.506298
vt 0.208009 0.477935
vt 0.202998 0.469750
vt 0.207865 0.464774
vt 0.210108 0.486505
vt 0.203862 0.495857
vt 0.193751 0.506253
vt 0.193188 0.497261
vt 0.180134 0.504303
vt 0.183504 0.495117
vt 0.171747 0.496752
vt 0.178024 0.488815
vt 0.197449 0.457424
vt 0.174861 0.478606
vt 0.191943 0.489244
vt 0.198572 0.489517
vt 0.186282 0.488980
vt 0.185206 0.483202
vt 0.185028 0.475574
vt 0.193886 0.476565
vt 0.201399 0.478966
vt 0.201320 0.483801
vt 0.191918 0.482699
vt 0.083710 0.571767
vt 0.329357 0.504386
vt 0.334867 0.520584
vt 0.317556 0.525296
vt 0.314503 0.510895
vt 0.312717 0.496484
vt 0.314493 0.485723
vt 0.353184 0.490969
vt 0.377858 0.498223
vt 0.373755 0.522549
vt 0.355487 0.517704
vt 0.357828 0.460197
vt 0.377248 0.476623
vt 0.346167 0.561086
vt 0.353703 0.569934
vt 0.344944 0.586811
vt 0.335587 0.565846
vt 0.350897 0.542481
vt 0.366799 0.547893
vt 0.335738 0.540831
vt 0.395451 0.519591
vt 0.393989 0.534800
vt 0.325914 0.419787
vt 0.346430 0.401814
vt 0.355854 0.408904
vt 0.343551 0.430638
vt 0.336855 0.454689
vt 0.324171 0.451247
vt 0.310201 0.410427
vt 0.316725 0.412170
vt 0.308287 0.396241
vt 0.307120 0.402693
vt 0.318108 0.384800
vt 0.312252 0.391778
vt 0.461102 0.503174
vt 0.396138 0.419533
vt 0.476653 0.518020
vt 0.379450 0.442822
vt 0.384416 0.415372
vt 0.357175 0.598163
vt 0.339683 0.613635
vt 0.325826 0.598214
vt 0.461799 0.531606
vt 0.460055 0.519039
vt 0.473635 0.525378
vt 0.335057 0.372974
vt 0.343445 0.357691
vt 0.564264 0.539422
vt 0.352344 0.367935
vt 0.316516 0.376463
vt 0.327603 0.365883
vt 0.396427 0.596473
vt 0.383088 0.587012
vt 0.394997 0.568332
vt 0.407624 0.580090
vt 0.404917 0.604232
vt 0.413559 0.596517
vt 0.314230 0.368085
vt 0.321834 0.359289
vt 0.428862 0.556540
vt 0.412477 0.545322
vt 0.414944 0.530805
vt 0.435255 0.529219
vt 0.454976 0.557598
vt 0.448226 0.587810
vt 0.430441 0.587416
vt 0.379403 0.390069
vt 0.369294 0.391685
vt 0.373545 0.380576
vt 0.380287 0.377439
vt 0.369077 0.410041
vt 0.430185 0.609262
vt 0.419327 0.616226
vt 0.446949 0.619262
vt 0.427398 0.636112
vt 0.551925 0.585610
vt 0.534284 0.584520
vt 0.535962 0.569254
vt 0.551381 0.564385
vt 0.571545 0.568710
vt 0.502010 0.567754
vt 0.495879 0.579671
vt 0.489415 0.582579
vt 0.487916 0.571733
vt 0.509894 0.570691
vt 0.501647 0.580872
vt 0.486854 0.636406
vt 0.504373 0.635127
vt 0.500430 0.662900
vt 0.491379 0.662370
vt 0.468972 0.617409
vt 0.480356 0.618991
vt 0.484740 0.628244
vt 0.478201 0.600788
vt 0.463111 0.591960
vt 0.470023 0.567652
vt 0.478286 0.581855
vt 0.461250 0.616823
vt 0.486436 0.588806
vt 0.486828 0.596548
vt 0.493456 0.600364
vt 0.494173 0.606174
vt 0.485522 0.619318
vt 0.485819 0.623603
vt 0.483833 0.611697
vt 0.488833 0.617747
vt 0.492190 0.617176
vt 0.492130 0.620944
vt 0.488969 0.622808
vt 0.497485 0.622837
vt 0.493613 0.629831
vt 0.494774 0.614251
vt 0.492381 0.590241
vt 0.494372 0.589607
vt 0.494046 0.591468
vt 0.492012 0.591927
vt 0.493791 0.592647
vt 0.492826 0.593400
vt 0.494856 0.592788
vt 0.493886 0.594744
vt 0.495437 0.591322
vt 0.497705 0.593687
vt 0.495654 0.594915
vt 0.496043 0.593065
vt 0.496535 0.591737
vt 0.498013 0.590768
vt 0.496371 0.589556
vt 0.498321 0.586821
vt 0.500580 0.589723
vt 0.494402 0.586595
vt 0.491198 0.588926
vt 0.489827 0.592082
vt 0.490838 0.595017
vt 0.493818 0.596411
vt 0.497136 0.597019
vt 0.500998 0.600535
vt 0.500566 0.594426
vt 0.507864 0.594077
vt 0.506245 0.585622
vt 0.515397 0.577005
vt 0.519277 0.587033
vt 0.525754 0.605453
vt 0.516242 0.599749
vt 0.534055 0.612814
vt 0.509402 0.625138
vt 0.509554 0.616463
vt 0.506111 0.606850
vt 0.487548 0.687599
vt 0.494251 0.686369
vt 0.481329 0.685351
vt 0.468777 0.669547
vt 0.479640 0.666729
vt 0.458377 0.640713
vt 0.470637 0.642166
vt 0.448031 0.649415
vt 0.498959 0.681394
vt 0.475067 0.548148
vt 0.480432 0.554549
vt 0.488703 0.532727
vt 0.491816 0.551117
vt 0.536442 0.559180
vt 0.557058 0.552525
vt 0.544998 0.539361
vt 0.579290 0.554350
vt 0.404592 0.618235
vt 0.363768 0.373136
vt 0.354187 0.378606
vt 0.364674 0.367269
vt 0.368241 0.379172
vt 0.360511 0.386839
vt 0.340627 0.392050
vt 0.320797 0.569539
vt 0.320277 0.547777
vt 0.326139 0.350718
vt 0.368722 0.438029
vt 0.355068 0.436091
vt 0.381826 0.558903
vt 0.367736 0.578850
vt 0.318614 0.471987
vt 0.330848 0.475901
vt 0.309101 0.406147
vt 0.317377 0.406402
vt 0.329183 0.488993
vt 0.403998 0.636289
vt 0.326344 0.409273
vt 0.323868 0.399738
vt 0.334687 0.351256
vt 0.323747 0.394979
vt 0.377654 0.359485
vt 0.376693 0.363334
vt 0.385162 0.369808
vt 0.381848 0.368591
vt 0.372022 0.369612
vt 0.372691 0.367821
vt 0.375009 0.369502
vt 0.374108 0.371958
vt 0.377328 0.370224
vt 0.375612 0.372182
vt 0.510728 0.566799
vt 0.519477 0.566135
vt 0.522777 0.568642
vt 0.509786 0.568519
vt 0.503996 0.559718
vt 0.375524 0.367450
vt 0.377483 0.368312
vt 0.515659 0.562858
vt 0.512454 0.562151
vt 0.522263 0.552996
vt 0.523919 0.562854
vt 0.517030 0.558734
vt 0.510217 0.548166
vt 0.516458 0.549361
vt 0.513462 0.556385
vt 0.511143 0.556582
vt 0.400445 0.379513
vt 0.403856 0.378353
vt 0.403949 0.384403
vt 0.398320 0.386646
vt 0.403305 0.376334
vt 0.515221 0.526616
vt 0.399474 0.375100
vt 0.390818 0.375786
vt 0.397579 0.371541
vt 0.402032 0.374459
vt 0.398173 0.377514
vt 0.392690 0.383853
vt 0.405163 0.398017
vt 0.394331 0.397285
vt 0.496603 0.522194
vt 0.507909 0.538220
vt 0.517736 0.538041
vt 0.509005 0.559826
vt 0.503688 0.552683
vt 0.498824 0.542425
vt 0.533916 0.548239
vt 0.527772 0.542008
vt 0.390389 0.365208
vt 0.384551 0.390490
vt 0.379938 0.402582
vt 0.384935 0.380762
vt 0.388725 0.372548
vt 0.513951 0.560066
vt 0.512633 0.558742
vt 0.401211 0.376974
vt 0.469253 0.628129
vt 0.461709 0.629948
vt 0.429452 0.516390
vt 0.413343 0.517998
vt 0.397900 0.506099
vt 0.386858 0.492966
vt 0.386709 0.476703
vt 0.384137 0.458100
vt 0.390765 0.461717
vt 0.394055 0.448588
vt 0.448092 0.493607
vt 0.440774 0.506487
vt 0.446047 0.516044
vt 0.397704 0.478110
vt 0.397868 0.464959
vt 0.402725 0.469936
vt 0.395594 0.486674
vt 0.401829 0.496029
vt 0.412500 0.497440
vt 0.411927 0.506427
vt 0.422185 0.495302
vt 0.425544 0.504486
vt 0.427669 0.489005
vt 0.433937 0.496941
vt 0.417406 0.465806
vt 0.408292 0.457625
vt 0.407126 0.489695
vt 0.413753 0.489427
vt 0.419414 0.489166
vt 0.420496 0.483391
vt 0.420681 0.475767
vt 0.411825 0.476753
vt 0.404311 0.479147
vt 0.404384 0.483980
vt 0.413786 0.482885
vt 0.521904 0.571994
vt 0.359899 0.625030
vt 0.258267 0.645415
vt 0.245661 0.624943
vt 0.375858 0.652995
vt 0.382883 0.633407
vt 0.222675 0.633295
vt 0.371825 0.606266
vt 0.233749 0.606165
vt 0.389694 0.614267
vt 0.215878 0.614147
vt 0.347279 0.645492
vt 0.229688 0.652888
vt 0.399350 0.656038
vt 0.015757 0.572764
vt 0.009242 0.560109
vt 0.298923 0.374083
vt 0.299617 0.383095
vt 0.002930 0.550436
vt 0.287817 0.341629
vt 0.184814 0.657476
vt 0.298875 0.363608
vt 0.110007 0.693152
vt 0.103794 0.687542
vt 0.123127 0.692198
vt 0.115826 0.694119
vt 0.055940 0.626058
vt 0.033195 0.601054
vt 0.092678 0.666207
vt 0.080236 0.646384
vt 0.295118 0.351392
vt 0.143776 0.676748
vt 0.166342 0.662086
vt 0.283936 0.627594
vt 0.498640 0.512973
vt 0.440787 0.485392
vt 0.430839 0.478799
vt 0.398818 0.452912
vt 0.393994 0.437581
vt 0.452375 0.499961
vt 0.477894 0.505871
vt 0.200776 0.397684
vt 0.164904 0.485199
vt 0.188319 0.465606
vt 0.157589 0.493412
vt 0.211807 0.437343
vt 0.211715 0.448377
vt 0.209723 0.419256
vt 0.380407 0.354631
vt 0.589918 0.544372
vt 0.276563 0.338086
vt 0.329648 0.338169
vt 0.578252 0.541676
vt 0.358992 0.356211
vt 0.060636 0.539119
vt 0.015712 0.544104
vt 0.262671 0.357556
vt 0.247122 0.356022
vt 0.532664 0.531429
vt 0.406765 0.372989
vt 0.072976 0.531195
vt 0.090424 0.526391
vn -0.557279 -0.207006 0.804107
vn -0.297541 -0.138988 0.944538
vn -0.342234 0.069639 0.937030
vn -0.599566 -0.024084 0.799963
vn -0.253687 -0.318168 0.913462
vn -0.238315 -0.409258 0.880746
vn -0.000000 -0.465948 0.884812
vn 0.000000 -0.330588 0.943775
vn -0.687416 -0.242880 0.684448
vn -0.761137 -0.080598 0.643564
vn -0.857703 0.018526 0.513812
vn -0.672842 -0.022258 0.739451
vn -0.567513 -0.362175 0.739431
vn -0.695636 -0.309957 0.648087
vn -0.752277 0.373245 0.542925
vn -0.572588 0.536908 0.619575
vn -0.617257 0.694717 0.369273
vn -0.823804 0.429445 0.370033
vn -0.899145 0.172153 0.402371
vn -0.788459 0.134732 0.600150
vn -0.611303 0.178246 0.771062
vn -0.946956 0.179604 0.266491
vn -0.737376 0.495173 0.459434
vn -0.262889 -0.623412 0.736374
vn -0.346672 -0.563784 0.749644
vn -0.513100 -0.658677 0.550339
vn -0.027364 -0.918119 0.395359
vn -0.250118 -0.554960 0.793385
vn -0.420240 -0.450895 0.787459
vn -0.473343 -0.765608 0.435650
vn -0.000000 -0.819804 0.572644
vn -0.000000 -0.563499 0.826117
vn -0.554430 -0.550447 0.624192
vn -0.323714 -0.370143 -0.870749
vn -0.000000 -0.197657 -0.980271
vn -0.000000 -0.113019 -0.993593
vn -0.439823 -0.009578 -0.898034
vn -0.052387 -0.964908 0.257308
vn 0.000000 -0.806833 0.590780
vn 0.000000 -0.988409 0.151814
vn -0.006270 -0.997353 0.072437
vn -0.867361 -0.326144 0.375918
vn -0.940557 -0.061579 0.334007
vn -0.873320 -0.122820 0.471411
vn -0.865306 -0.182084 0.467001
vn -0.857667 -0.284481 0.428343
vn -0.666132 0.744226 0.048947
vn -0.340856 0.837689 0.426725
vn -0.325563 0.945515 -0.003202
vn -0.987200 0.151018 -0.051284
vn -0.976056 0.167373 0.138929
vn -0.959346 -0.150738 0.238609
vn 0.052029 -0.992031 -0.114746
vn 0.474813 -0.792926 -0.381866
vn 0.345433 -0.586930 -0.732249
vn -0.011849 -0.734197 -0.678833
vn -0.649605 -0.759532 -0.033546
vn -0.435187 -0.765835 0.473401
vn -0.803211 0.451730 -0.388321
vn -0.936100 0.234780 -0.261908
vn -0.972011 0.233929 -0.021737
vn -0.883878 0.452836 -0.117046
vn -0.593874 0.414492 -0.689573
vn -0.749118 0.323492 -0.578079
vn -0.574783 -0.748078 0.331670
vn -0.717494 -0.691806 -0.081285
vn 0.000000 -0.984703 -0.174242
vn 0.000000 -0.961844 0.273599
vn -0.963075 0.160875 -0.215882
vn -0.981100 0.182570 -0.064122
vn -0.951789 0.093033 -0.292306
vn -0.888377 0.419500 -0.186564
vn -0.825602 0.335432 -0.453726
vn -0.825866 0.472292 -0.308035
vn -0.973064 0.207050 -0.101372
vn -0.975143 -0.180796 0.128098
vn -0.995833 0.073246 0.054334
vn -0.859341 -0.488083 0.152673
vn -0.773323 -0.596321 0.215344
vn -0.913829 -0.202914 0.351772
vn -0.490333 0.540442 -0.683737
vn -0.384391 0.490478 -0.782097
vn -0.523613 0.671329 -0.524544
vn -0.271752 0.672484 -0.688416
vn 0.153380 -0.821306 -0.549482
vn 0.341454 -0.786344 -0.514851
vn 0.396075 -0.813835 -0.425202
vn 0.371370 -0.755030 -0.540383
vn 0.054346 -0.763263 -0.643798
vn -0.920446 -0.389276 0.035267
vn -0.972361 0.007757 0.233353
vn -0.933739 0.154285 0.322999
vn -0.927687 -0.361929 0.091677
vn -0.596185 -0.754440 -0.274559
vn -0.545348 -0.783621 -0.297546
vn -0.531095 0.828123 -0.179305
vn -0.900969 0.044463 -0.431599
vn -0.501987 -0.391435 -0.771225
vn -0.087695 -0.356997 -0.929980
vn 0.590046 0.650135 0.478717
vn -0.325653 0.720982 0.611667
vn -0.442086 0.840606 0.312956
vn -0.682604 0.730078 0.032225
vn -0.769176 0.595641 0.231473
vn -0.922650 0.374987 0.090005
vn -0.751398 0.657423 -0.056538
vn -0.527266 0.804421 -0.273675
vn -0.282673 0.949468 0.136408
vn -0.611412 0.710326 0.348730
vn -0.200939 0.472162 -0.858305
vn 0.310229 0.848688 -0.428354
vn -0.432913 0.783595 0.445606
vn 0.620624 0.740708 0.257251
vn -0.840258 0.461304 -0.284896
vn -0.922488 0.386009 -0.003632
vn -0.657798 -0.205296 -0.724676
vn 0.716544 0.385162 -0.581562
vn 0.381408 -0.272299 -0.883392
vn 0.921113 0.086905 -0.379470
vn 0.448193 -0.352597 -0.821461
vn -0.393330 -0.117776 -0.911823
vn -0.848164 0.366932 0.382071
vn -0.483907 0.725529 0.489327
vn -0.863070 0.503453 0.040569
vn -0.999900 0.002674 0.013927
vn -0.068089 0.989954 0.123918
vn 0.143095 0.921141 0.361971
vn 0.645372 0.761945 -0.054173
vn 0.250237 0.854482 -0.455238
vn -0.826532 0.169620 -0.536725
vn 0.487760 -0.209194 -0.847542
vn 0.403282 0.238107 -0.883555
vn 0.803705 0.334250 -0.492276
vn -0.238491 -0.196739 -0.951008
vn -0.204097 -0.476800 -0.854989
vn -0.851985 -0.334148 -0.403072
vn -0.093532 -0.663372 -0.742421
vn -0.741273 -0.573923 -0.348032
vn -0.982730 -0.170689 0.071458
vn -0.872529 0.316979 0.371776
vn -0.472149 0.741051 0.477408
vn 0.022548 0.946398 0.322214
vn 0.575816 0.804485 -0.145739
vn 0.607931 0.071116 -0.790799
vn 0.755387 0.187978 -0.627737
vn 0.440001 -0.468973 -0.765809
vn 0.472133 -0.342411 -0.812309
vn 0.012387 -0.786692 -0.617222
vn 0.394918 -0.697773 -0.597623
vn 0.126415 -0.841892 -0.524630
vn 0.545459 -0.429043 -0.719998
vn 0.477978 -0.517178 -0.709974
vn 0.403046 -0.304558 -0.863017
vn 0.479206 -0.333059 -0.812055
vn 0.124470 -0.599918 -0.790320
vn 0.477684 -0.128924 -0.869020
vn -0.000000 0.427275 -0.904122
vn -0.807777 0.196459 -0.555787
vn -0.809735 0.537353 -0.235756
vn 0.000000 0.910150 -0.414278
vn -0.875410 0.468608 -0.118590
vn -0.444904 0.865905 0.228625
vn -0.412996 0.873513 0.257702
vn -0.909451 0.281302 -0.306215
vn -0.621771 0.749771 -0.226372
vn -0.402008 0.901262 -0.161608
vn -0.000000 0.707580 -0.706633
vn 0.000000 0.991072 -0.133329
vn -0.000000 0.952574 0.304308
vn -0.000000 0.969545 0.244913
vn -0.444210 -0.337531 -0.829910
vn -0.000000 -0.354620 -0.935010
vn -0.000000 -0.524867 -0.851184
vn 0.000000 -0.449048 -0.893508
vn -0.000000 -0.600412 -0.799691
vn -0.977930 0.208874 0.004986
vn -0.995892 0.064816 0.063233
vn -0.984606 0.148988 0.091394
vn -0.971302 0.236408 -0.026158
vn 0.638704 -0.598479 -0.483611
vn 0.361602 -0.573160 -0.735345
vn 0.464751 -0.598452 -0.652581
vn 0.008047 -0.435063 -0.900364
vn 0.000000 -0.708082 -0.706130
vn 0.000000 -0.812157 -0.583439
vn -0.353929 0.459254 -0.814751
vn -0.168948 0.489696 -0.855368
vn 0.390537 -0.906230 -0.161950
vn 0.788037 -0.271893 -0.552333
vn 0.355940 -0.933888 -0.034047
vn -0.177757 -0.982193 0.060822
vn -0.080256 -0.985716 0.148062
vn 0.273832 -0.961509 0.022712
vn -0.000000 0.999860 -0.016753
vn -0.000000 0.877837 0.478960
vn -0.350003 0.634591 0.689052
vn -0.000000 0.687263 0.726409
vn -0.361023 0.339392 0.868606
vn -0.000000 0.406451 0.913673
vn -0.000000 0.151277 0.988491
vn 0.000000 -0.134610 0.990899
vn -0.000000 -0.669889 -0.742462
vn -0.667820 -0.494974 -0.555893
vn -0.735873 -0.238637 0.633675
vn -0.901984 -0.160802 0.400708
vn -0.952732 0.222046 0.207356
vn -0.882099 0.442343 0.161972
vn 0.000000 -0.557227 0.830360
vn -0.000000 -0.531330 0.847165
vn -0.217678 -0.504592 0.835466
vn -0.503590 -0.392935 0.769415
vn -0.681147 -0.580044 -0.446752
vn -0.703709 -0.481835 -0.522138
vn -0.524486 -0.286332 0.801828
vn 0.000000 -0.696170 0.717877
vn 0.000000 0.500969 -0.865465
vn -0.000000 -0.990950 -0.134232
vn -0.069791 -0.989782 0.124345
vn 0.140914 -0.971983 -0.188126
vn -0.000000 -0.549620 0.835415
vn -0.484721 -0.381572 -0.787050
vn -0.000000 -0.148469 -0.988917
vn -0.000000 -0.241254 -0.970462
vn 0.127387 -0.991646 0.020284
vn 0.522110 0.341153 -0.781675
vn 0.477746 -0.263031 -0.838197
vn -0.771906 0.548780 -0.320940
vn -0.901426 -0.235440 -0.363317
vn 0.328496 -0.885768 -0.327881
vn -0.204892 -0.973878 -0.097880
vn -0.294640 -0.512379 -0.806632
vn 0.694182 -0.252596 -0.674023
vn -0.906593 -0.416065 0.070563
vn -0.991810 0.068359 -0.107888
vn -0.145546 0.840216 -0.522354
vn -0.761068 -0.171800 -0.625508
vn 0.634940 -0.534205 -0.558100
vn 0.751982 -0.120497 -0.648077
vn -0.550618 0.822714 -0.141285
vn 0.346830 0.343973 -0.872578
vn -0.718252 0.557869 -0.415808
vn 0.747439 -0.239509 -0.619653
vn 0.038501 0.764161 -0.643876
vn 0.437714 -0.841256 -0.317323
vn 0.412179 -0.772734 -0.482691
vn 0.749999 -0.524954 -0.402398
vn -0.957453 -0.284210 0.050090
vn -0.980036 -0.187022 -0.067468
vn -0.420949 -0.858036 -0.294241
vn -0.359153 -0.927397 -0.104617
vn -0.850144 -0.521478 0.072908
vn -0.778793 -0.474842 0.409886
vn -0.923857 0.376171 0.070592
vn -0.862158 0.465139 -0.200820
vn -0.210540 0.677344 -0.704895
vn -0.880428 -0.469712 -0.064933
vn 0.650947 -0.674705 -0.347911
vn 0.633092 0.151519 -0.759102
vn 0.674635 -0.380967 -0.632244
vn 0.633947 -0.737267 -0.233558
vn 0.077249 -0.965929 0.247011
vn 0.124442 -0.991104 -0.047203
vn -0.660759 -0.371745 0.652076
vn -0.917868 0.055672 0.392962
vn -0.968267 -0.095269 0.231046
vn -0.946437 -0.280778 0.159438
vn -0.480535 -0.876401 0.031745
vn -0.810865 0.560055 -0.169813
vn -0.883702 0.468041 0.003014
vn -0.957077 0.276794 0.085962
vn 0.583440 -0.707959 -0.397984
vn 0.162984 -0.967890 -0.191380
vn 0.025814 -0.953700 -0.299651
vn -0.376743 -0.818204 0.434289
vn -0.691833 -0.519907 0.501063
vn -0.039991 -0.960637 -0.274913
vn -0.035196 -0.948159 -0.315843
vn -0.044234 0.029064 -0.998598
vn -0.557597 0.002635 -0.830108
vn -0.530042 -0.492805 -0.690071
vn -0.309068 0.819476 -0.482634
vn -0.598767 0.611588 -0.517145
vn -0.709713 0.170081 -0.683652
vn -0.732573 0.651097 -0.198519
vn -0.316053 0.761622 0.565723
vn 0.193763 0.450796 0.871343
vn 0.711714 -0.283393 0.642769
vn 0.572207 -0.813438 0.104393
vn -0.226638 -0.868338 0.441162
vn -0.616851 -0.786625 0.026762
vn 0.189136 -0.877529 -0.440649
vn -0.827090 -0.391523 -0.403276
vn -0.328537 -0.525339 -0.784910
vn 0.579973 -0.354400 0.733507
vn 0.492060 -0.837326 0.238247
vn 0.629590 -0.776858 0.010406
vn 0.241641 0.343085 0.907691
vn -0.344762 0.666642 0.660854
vn -0.786527 0.617555 0.000259
vn -0.818894 0.538106 0.199635
vn -0.847460 0.137764 -0.512671
vn -0.957297 0.072934 -0.279756
vn -0.479920 -0.536142 -0.694427
vn -0.648995 -0.586519 -0.484563
vn 0.100702 -0.893613 -0.437396
vn -0.104610 -0.963115 -0.247923
vn -0.895290 0.142892 0.421946
vn -0.575675 0.329214 0.748476
vn -0.993155 -0.116065 0.013098
vn -0.801578 -0.597847 0.007109
vn -0.376687 -0.924806 0.053309
vn -0.175555 -0.863164 0.473423
vn 0.012637 -0.559002 0.829070
vn -0.285557 -0.014653 0.958250
vn -0.688135 -0.425034 0.588062
vn 0.438587 -0.667141 -0.602133
vn 0.557279 -0.207006 0.804107
vn 0.599566 -0.024084 0.799963
vn 0.342234 0.069639 0.937030
vn 0.297542 -0.138988 0.944538
vn 0.253687 -0.318169 0.913461
vn 0.238315 -0.409258 0.880746
vn 0.687416 -0.242880 0.684448
vn 0.672843 -0.022258 0.739451
vn 0.857703 0.018526 0.513812
vn 0.761137 -0.080598 0.643564
vn 0.695636 -0.309957 0.648087
vn 0.567513 -0.362175 0.739431
vn 0.752277 0.373245 0.542925
vn 0.823804 0.429445 0.370033
vn 0.617257 0.694717 0.369273
vn 0.572588 0.536908 0.619575
vn 0.788459 0.134732 0.600150
vn 0.899145 0.172153 0.402371
vn 0.611303 0.178246 0.771062
vn 0.737377 0.495173 0.459434
vn 0.946956 0.179604 0.266491
vn 0.262889 -0.623412 0.736374
vn 0.027364 -0.918119 0.395360
vn 0.513099 -0.658677 0.550339
vn 0.346672 -0.563784 0.749644
vn 0.420240 -0.450896 0.787459
vn 0.250118 -0.554960 0.793385
vn 0.473343 -0.765608 0.435650
vn 0.554430 -0.550447 0.624192
vn 0.323714 -0.370143 -0.870749
vn 0.439823 -0.009578 -0.898034
vn 0.052387 -0.964908 0.257308
vn 0.006270 -0.997353 0.072437
vn 0.867361 -0.326144 0.375918
vn 0.873320 -0.122820 0.471411
vn 0.940557 -0.061579 0.334007
vn 0.857667 -0.284481 0.428343
vn 0.865306 -0.182084 0.467001
vn 0.666132 0.744226 0.048947
vn 0.325563 0.945515 -0.003202
vn 0.340856 0.837689 0.426725
vn 0.987200 0.151018 -0.051284
vn 0.959346 -0.150738 0.238609
vn 0.976056 0.167373 0.138929
vn -0.052029 -0.992031 -0.114746
vn 0.011849 -0.734197 -0.678833
vn -0.345433 -0.586930 -0.732249
vn -0.474813 -0.792926 -0.381866
vn 0.435187 -0.765835 0.473401
vn 0.649605 -0.759532 -0.033546
vn 0.803211 0.451730 -0.388321
vn 0.883878 0.452836 -0.117046
vn 0.972011 0.233929 -0.021737
vn 0.936100 0.234780 -0.261908
vn 0.593874 0.414492 -0.689573
vn 0.749118 0.323492 -0.578079
vn 0.574783 -0.748078 0.331670
vn 0.717494 -0.691806 -0.081285
vn 0.963075 0.160875 -0.215882
vn 0.981100 0.182570 -0.064122
vn 0.888377 0.419500 -0.186564
vn 0.951789 0.093033 -0.292306
vn 0.973064 0.207050 -0.101372
vn 0.825866 0.472292 -0.308035
vn 0.825602 0.335432 -0.453726
vn 0.975143 -0.180796 0.128098
vn 0.773323 -0.596321 0.215344
vn 0.859341 -0.488083 0.152673
vn 0.995833 0.073246 0.054334
vn 0.913829 -0.202914 0.351772
vn 0.490333 0.540442 -0.683737
vn 0.384391 0.490478 -0.782097
vn 0.523613 0.671329 -0.524544
vn 0.271752 0.672484 -0.688416
vn -0.153380 -0.821306 -0.549482
vn -0.371370 -0.755030 -0.540383
vn -0.396075 -0.813835 -0.425202
vn -0.341454 -0.786345 -0.514851
vn -0.054346 -0.763263 -0.643798
vn 0.920446 -0.389276 0.035267
vn 0.927687 -0.361929 0.091677
vn 0.933739 0.154285 0.322999
vn 0.972361 0.007757 0.233353
vn 0.545348 -0.783621 -0.297546
vn 0.596185 -0.754441 -0.274559
vn 0.531095 0.828123 -0.179305
vn 0.087695 -0.356997 -0.929980
vn 0.501987 -0.391435 -0.771225
vn 0.900969 0.044463 -0.431599
vn 0.442086 0.840606 0.312956
vn 0.325652 0.720982 0.611666
vn -0.590046 0.650136 0.478717
vn 0.682604 0.730078 0.032225
vn 0.751398 0.657423 -0.056538
vn 0.922650 0.374987 0.090005
vn 0.769176 0.595641 0.231473
vn 0.527266 0.804421 -0.273675
vn 0.611412 0.710326 0.348730
vn 0.282673 0.949468 0.136408
vn -0.310229 0.848687 -0.428354
vn 0.200939 0.472162 -0.858305
vn 0.432913 0.783595 0.445606
vn -0.620624 0.740708 0.257251
vn 0.922488 0.386009 -0.003632
vn 0.840258 0.461304 -0.284896
vn 0.657798 -0.205296 -0.724676
vn -0.381408 -0.272299 -0.883392
vn -0.716545 0.385162 -0.581562
vn -0.448193 -0.352597 -0.821461
vn -0.921113 0.086905 -0.379470
vn 0.393330 -0.117776 -0.911823
vn 0.848165 0.366931 0.382071
vn 0.999900 0.002674 0.013927
vn 0.863070 0.503452 0.040570
vn 0.483907 0.725530 0.489327
vn 0.068090 0.989954 0.123918
vn -0.143095 0.921141 0.361971
vn -0.250235 0.854483 -0.455238
vn -0.645372 0.761945 -0.054172
vn 0.826533 0.169619 -0.536724
vn -0.487761 -0.209193 -0.847542
vn -0.803705 0.334251 -0.492276
vn -0.403281 0.238107 -0.883555
vn 0.238491 -0.196740 -0.951007
vn 0.204098 -0.476800 -0.854989
vn 0.851985 -0.334148 -0.403072
vn 0.741273 -0.573923 -0.348032
vn 0.093532 -0.663372 -0.742421
vn 0.982730 -0.170689 0.071458
vn 0.872529 0.316979 0.371776
vn 0.472149 0.741052 0.477407
vn -0.022548 0.946398 0.322214
vn -0.575815 0.804486 -0.145739
vn -0.755387 0.187978 -0.627737
vn -0.607931 0.071116 -0.790799
vn -0.472133 -0.342410 -0.812309
vn -0.440001 -0.468973 -0.765809
vn -0.012387 -0.786692 -0.617222
vn -0.126415 -0.841892 -0.524630
vn -0.394918 -0.697773 -0.597623
vn -0.477978 -0.517178 -0.709974
vn -0.545459 -0.429043 -0.719998
vn -0.124470 -0.599918 -0.790320
vn -0.479206 -0.333059 -0.812055
vn -0.403046 -0.304558 -0.863017
vn -0.477684 -0.128924 -0.869020
vn 0.809735 0.537353 -0.235755
vn 0.807777 0.196459 -0.555787
vn 0.412996 0.873513 0.257702
vn 0.444904 0.865905 0.228625
vn 0.875410 0.468608 -0.118590
vn 0.621771 0.749771 -0.226372
vn 0.909451 0.281302 -0.306215
vn 0.402008 0.901262 -0.161608
vn 0.444209 -0.337531 -0.829910
vn 0.977930 0.208874 0.004986
vn 0.995892 0.064816 0.063233
vn 0.984606 0.148988 0.091394
vn 0.971302 0.236408 -0.026158
vn -0.638704 -0.598479 -0.483611
vn -0.361602 -0.573160 -0.735345
vn -0.464751 -0.598452 -0.652581
vn -0.008047 -0.435063 -0.900364
vn 0.353929 0.459255 -0.814751
vn -0.390537 -0.906230 -0.161949
vn -0.355940 -0.933888 -0.034047
vn -0.788037 -0.271893 -0.552333
vn 0.177757 -0.982193 0.060822
vn 0.080256 -0.985716 0.148062
vn -0.273832 -0.961509 0.022712
vn 0.350003 0.634591 0.689052
vn 0.361022 0.339392 0.868606
vn 0.667820 -0.494974 -0.555893
vn 0.901984 -0.160802 0.400708
vn 0.735873 -0.238637 0.633675
vn 0.952733 0.222046 0.207356
vn 0.882099 0.442343 0.161972
vn 0.217678 -0.504592 0.835466
vn 0.503590 -0.392935 0.769415
vn 0.703709 -0.481835 -0.522138
vn 0.681147 -0.580044 -0.446752
vn 0.524486 -0.286332 0.801828
vn 0.168949 0.489696 -0.855368
vn 0.069791 -0.989782 0.124345
vn -0.140914 -0.971983 -0.188126
vn 0.484721 -0.381572 -0.787050
vn -0.127387 -0.991646 0.020284
vn -0.477746 -0.263031 -0.838196
vn -0.522110 0.341153 -0.781675
vn 0.901426 -0.235439 -0.363317
vn 0.771905 0.548780 -0.320940
vn -0.328496 -0.885768 -0.327881
vn -0.694182 -0.252596 -0.674023
vn 0.294640 -0.512379 -0.806632
vn 0.204891 -0.973878 -0.097880
vn 0.991810 0.068359 -0.107888
vn 0.906593 -0.416065 0.070563
vn 0.145546 0.840216 -0.522355
vn -0.751983 -0.120497 -0.648076
vn -0.634940 -0.534205 -0.558100
vn 0.761068 -0.171800 -0.625507
vn 0.550618 0.822714 -0.141285
vn -0.346830 0.343973 -0.872578
vn 0.718252 0.557869 -0.415808
vn -0.747439 -0.239509 -0.619653
vn -0.038501 0.764160 -0.643876
vn -0.437714 -0.841256 -0.317323
vn -0.749999 -0.524954 -0.402398
vn -0.412179 -0.772734 -0.482691
vn 0.957453 -0.284210 0.050090
vn 0.359153 -0.927397 -0.104617
vn 0.420949 -0.858036 -0.294241
vn 0.980036 -0.187022 -0.067468
vn 0.850144 -0.521478 0.072908
vn 0.862158 0.465139 -0.200820
vn 0.923857 0.376171 0.070592
vn 0.778793 -0.474842 0.409886
vn 0.210540 0.677345 -0.704895
vn 0.880429 -0.469712 -0.064933
vn -0.650947 -0.674704 -0.347911
vn -0.633947 -0.737267 -0.233558
vn -0.674635 -0.380967 -0.632244
vn -0.633092 0.151519 -0.759102
vn -0.124442 -0.991104 -0.047203
vn -0.077249 -0.965929 0.247011
vn 0.917868 0.055672 0.392961
vn 0.660759 -0.371745 0.652076
vn 0.968267 -0.095269 0.231046
vn 0.946437 -0.280778 0.159438
vn 0.480535 -0.876401 0.031745
vn 0.810865 0.560054 -0.169813
vn 0.883702 0.468040 0.003014
vn 0.957077 0.276794 0.085962
vn -0.583440 -0.707959 -0.397984
vn -0.162984 -0.967889 -0.191380
vn -0.025814 -0.953700 -0.299651
vn 0.376743 -0.818204 0.434289
vn 0.691833 -0.519907 0.501063
vn 0.039990 -0.960637 -0.274912
vn 0.035197 -0.948158 -0.315843
vn 0.044233 0.029064 -0.998598
vn 0.557596 0.002635 -0.830108
vn 0.530042 -0.492805 -0.690072
vn 0.309068 0.819476 -0.482635
vn 0.598767 0.611588 -0.517145
vn 0.709712 0.170081 -0.683652
vn 0.732573 0.651097 -0.198519
vn 0.316053 0.761622 0.565723
vn -0.193763 0.450796 0.871343
vn -0.711714 -0.283393 0.642769
vn 0.226638 -0.868338 0.441162
vn -0.572207 -0.813438 0.104393
vn 0.616851 -0.786625 0.026762
vn -0.189136 -0.877529 -0.440648
vn 0.328536 -0.525339 -0.784910
vn 0.827090 -0.391523 -0.403276
vn -0.579972 -0.354400 0.733507
vn -0.629590 -0.776858 0.010406
vn -0.492060 -0.837326 0.238247
vn -0.241641 0.343085 0.907691
vn 0.344762 0.666642 0.660854
vn 0.818894 0.538106 0.199635
vn 0.786527 0.617555 0.000259
vn 0.957297 0.072934 -0.279756
vn 0.847460 0.137764 -0.512672
vn 0.648995 -0.586519 -0.484563
vn 0.479920 -0.536142 -0.694427
vn 0.104610 -0.963115 -0.247923
vn -0.100702 -0.893613 -0.437396
vn 0.575675 0.329214 0.748476
vn 0.895290 0.142892 0.421946
vn 0.993155 -0.116065 0.013098
vn 0.801579 -0.597847 0.007109
vn 0.376687 -0.924805 0.053309
vn 0.175555 -0.863164 0.473423
vn -0.012637 -0.559002 0.829070
vn 0.285558 -0.014653 0.958250
vn 0.688135 -0.425034 0.588062
vn -0.438587 -0.667141 -0.602133
vn 0.283418 0.850846 -0.442419
vn 0.000000 0.879019 -0.476787
vn -0.283418 0.850846 -0.442419
vn 0.000000 0.630941 -0.775831
vn 0.208308 0.626398 -0.751155
vn -0.208308 0.626397 -0.751155
vn 0.632102 0.707809 -0.315361
vn -0.632102 0.707809 -0.315361
vn 0.496091 0.592590 -0.634611
vn -0.496091 0.592590 -0.634611
s 1
g low_02
usemtl initialShadingGroup
f 1/1/1 29/2/2 30/3/3 31/4/4
f 1/1/1 32/5/5 29/2/2
f 2/6/6 33/7/7 34/8/8 32/5/5
f 3/9/9 37/10/10 38/11/11 5/12/12
f 3/9/9 5/12/12 39/13/13 40/14/14
f 4/15/15 41/16/16 67/17/17 42/18/18
f 4/15/15 42/18/18 43/19/19 44/20/20
f 4/15/15 44/20/20 45/21/21 41/16/16
f 5/12/12 38/11/11 46/22/22 47/23/23
f 6/24/24 48/25/25 49/26/26 50/27/27
f 6/24/24 51/28/28 52/29/29 48/25/25
f 7/30/30 53/31/31 209/32/32 210/33/33
f 8/34/34 55/35/35 56/36/36 57/37/37
f 59/38/38 60/612/39 218/40/40 219/41/41
f 9/42/42 62/43/43 63/44/44
f 9/640/42 63/642/44 64/45/45 61/46/46
f 10/47/47 67/17/17 68/48/48 69/49/49
f 11/50/50 313/51/51 312/52/52
f 12/53/53 71/54/54 72/652/55 73/651/56
f 12/53/53 215/57/57 216/58/58 59/38/38
f 13/59/59 76/60/60 77/61/61 65/62/62
f 78/63/63 79/64/64 76/60/60 13/59/59
f 14/65/65 74/66/66 81/625/67 80/616/68
f 15/69/69 82/70/70 77/61/61 76/60/60
f 15/69/69 70/71/71 83/72/72 82/70/70
f 15/69/69 84/73/73 85/74/74 86/75/75
f 15/69/69 86/75/75 11/50/50 70/71/71
f 16/76/76 225/77/77 226/78/78 89/79/79
f 16/76/76 89/79/79 49/26/26 87/80/80
f 19/81/81 84/73/73 79/64/64 91/82/82
f 93/83/83 85/74/74 84/73/73 19/81/81
f 19/81/81 91/82/82 92/84/84 93/83/83
f 20/85/85 95/86/86 96/87/87 97/88/88
f 20/85/85 98/89/89 95/86/86
f 21/90/90 101/91/91 102/92/92 103/93/93
f 21/90/90 103/93/93 104/94/94 99/95/95
f 22/96/96 105/97/97 106/98/98 24/99/99
f 22/96/96 110/100/100 111/101/101 107/102/102
f 23/103/103 113/104/104 114/105/105 115/106/106
f 23/103/103 115/106/106 108/107/107 107/102/102
f 23/103/103 116/108/108 117/109/109 113/104/104
f 23/103/103 118/110/110 119/111/111 116/108/108
f 25/112/112 111/101/101 110/100/100 120/113/113
f 25/112/112 121/114/114 122/115/115 111/101/101
f 123/116/116 121/114/114 124/117/117 26/118/118
f 26/118/118 124/117/117 112/119/119 125/120/120
f 26/118/118 125/120/120 126/121/121 123/116/116
f 127/122/122 128/123/123 129/124/124 130/125/125
f 27/126/126 129/124/124 128/123/123 131/127/127
f 27/126/126 131/127/127 132/128/128 133/129/129
f 27/126/126 133/129/129 134/130/130 129/124/124
f 135/131/131 136/132/132 137/133/133
f 28/134/134 134/130/130 133/129/129 136/132/132
f 28/134/134 136/132/132 135/131/131 138/135/135
f 28/134/134 138/135/135 139/136/136 134/130/130
f 139/136/136 138/135/135 140/137/137 141/138/138
f 139/136/136 141/138/138 142/139/139 130/125/125
f 139/136/136 130/125/125 129/124/124 134/130/130
f 142/139/139 141/138/138 104/94/94 103/93/93
f 142/139/139 103/93/93 102/92/92 143/140/140
f 142/139/139 143/140/140 127/122/122 130/125/125
f 143/140/140 102/92/92 117/109/109 144/141/141
f 143/140/140 144/141/141 128/123/123 127/122/122
f 144/141/141 117/109/109 116/108/108 145/142/142
f 144/141/141 145/142/142 131/127/127 128/123/123
f 145/142/142 116/108/108 119/111/111 146/143/143
f 145/142/142 146/143/143 132/128/128 131/127/127
f 146/143/143 119/111/111 147/144/144 148/145/145
f 146/143/143 148/145/145 137/133/133 132/128/128
f 148/145/145 147/144/144 149/146/146 150/147/147
f 148/145/145 150/147/147 135/131/131 137/133/133
f 150/147/147 149/146/146 151/148/148 140/137/137
f 150/147/147 140/137/137 138/135/135 135/131/131
f 151/148/148 149/146/146 152/149/149 153/150/150
f 151/148/148 153/150/150 99/95/95 104/94/94
f 151/148/148 104/94/94 141/138/138 140/137/137
f 153/150/150 152/149/149 97/88/88 96/87/87
f 152/149/149 154/151/151 155/152/152 97/88/88
f 152/149/149 149/146/146 154/151/151
f 155/152/152 156/153/153 157/154/154 158/155/155
f 155/152/152 158/155/155 20/85/85 97/88/88
f 155/152/152 154/151/151 159/156/156 156/153/153
f 154/151/151 149/146/146 147/144/144 159/156/156
f 147/144/144 119/111/111 118/110/110 159/156/156
f 137/133/133 136/132/132 133/129/129 132/128/128
f 160/617/157 161/158/158 162/159/159 163/620/160
f 162/159/159 164/161/161 165/162/162 166/163/163
f 164/161/161 109/164/164 167/165/165
f 164/161/161 162/159/159 161/158/158 105/97/97
f 164/161/161 105/97/97 22/96/96 109/164/164
f 167/165/165 93/83/83 92/84/84 168/166/166
f 167/165/165 168/166/166 165/162/162 164/161/161
f 168/166/166 92/84/84 169/615/167 170/627/168
f 168/166/166 170/627/168 171/626/169 165/162/162
f 171/626/169 172/619/170 166/163/163 165/162/162
f 161/158/158 173/171/171 106/98/98 105/97/97
f 173/171/171 174/618/172 175/623/173 106/98/98
f 123/116/116 126/121/121 122/115/115 121/114/114
f 124/117/117 120/113/113 110/100/100 112/119/119
f 120/113/113 124/117/117 121/114/114 25/112/112
f 156/153/153 126/121/121 125/120/120 157/154/154
f 158/155/155 24/99/99 176/624/174 177/621/175
f 117/109/109 102/92/92 101/91/91 113/104/104
f 115/106/106 114/105/105 86/75/75 85/74/74
f 115/106/106 85/74/74 93/83/83 108/107/107
f 114/105/105 311/176/176 11/50/50 86/75/75
f 114/105/105 113/104/104 101/91/91 178/177/177
f 314/178/178 313/51/51 11/50/50 311/176/176
f 178/177/177 101/91/91 21/90/90 179/179/179
f 100/180/180 96/87/87 95/86/86 180/181/181
f 100/180/180 180/181/181 72/55/55 18/649/182
f 180/181/181 95/86/86 98/89/89 181/183/183
f 180/181/181 181/183/183 73/56/56 72/55/55
f 182/609/184 98/89/89 20/85/85 183/622/185
f 91/82/82 94/186/186 184/187/187 92/84/84
f 94/186/186 91/82/82 79/64/64 78/63/63
f 228/188/188 229/189/189 71/54/54 186/190/190
f 227/191/191 228/188/188 186/190/190 187/192/192
f 187/192/192 186/190/190 189/193/193 50/27/27
f 187/192/192 50/27/27 49/26/26 89/79/79
f 187/192/192 89/79/79 226/78/78 227/191/191
f 186/190/190 71/54/54 12/53/53 189/193/193
f 191/628/194 69/49/49 68/48/48 192/195/195
f 192/195/195 68/48/48 193/196/196 194/197/197
f 194/197/197 193/196/196 195/198/198 196/199/199
f 196/199/199 195/198/198 30/3/3 197/200/200
f 197/200/200 30/3/3 29/2/2 198/201/201
f 195/198/198 193/196/196 41/16/16 45/21/21
f 195/198/198 45/21/21 31/4/4 30/3/3
f 193/196/196 68/48/48 67/17/17 41/16/16
f 199/614/202 81/625/67 74/66/66 75/203/203
f 87/80/80 200/204/204 201/205/205
f 87/80/80 201/205/205 61/46/46 64/45/45
f 201/205/205 200/204/204 40/14/14
f 201/205/205 40/14/14 39/13/13 61/46/46
f 200/204/204 48/25/25 52/29/29 40/14/14
f 200/204/204 87/80/80 49/26/26 48/25/25
f 84/73/73 15/69/69 76/60/60 79/64/64
f 83/72/72 47/23/23 46/22/22 82/70/70
f 82/70/70 46/22/22 202/206/206 77/61/61
f 202/206/206 43/19/19 42/18/18 66/207/207
f 202/206/206 66/207/207 65/62/62 77/61/61
f 202/206/206 46/22/22 38/11/11 43/19/19
f 203/208/208 204/209/209 205/210/210 51/28/28
f 52/29/29 51/28/28 205/210/210 35/211/211
f 52/29/29 35/211/211 3/9/9 40/14/14
f 210/33/33 211/212/212 207/213/213 7/30/30
f 36/214/214 2/6/6 32/5/5 1/1/1
f 36/214/214 35/211/211 205/210/210 2/6/6
f 176/624/174 24/99/99 106/98/98 175/623/173
f 157/154/154 125/120/120 112/119/119 24/99/99
f 157/154/154 24/99/99 158/155/155
f 183/622/185 20/85/85 158/155/155 177/621/175
f 198/201/201 29/2/2 32/5/5 34/8/8
f 163/620/160 162/159/159 166/163/163 172/619/170
f 174/618/172 173/171/171 161/158/158 160/617/157
f 60/612/39 59/38/38 216/58/58 217/611/215
f 33/7/7 2/6/6 205/210/210 204/209/209
f 126/121/121 156/153/153 159/156/156 118/110/110
f 111/101/101 122/115/115 23/103/103 107/102/102
f 122/115/115 126/121/121 118/110/110 23/103/103
f 169/615/167 92/84/84 184/187/187 190/216/216
f 37/10/10 44/20/20 43/19/19 38/11/11
f 44/20/20 37/10/10 31/4/4 45/21/21
f 35/211/211 36/214/214 3/9/9
f 53/31/31 7/30/30 207/213/213 208/217/217
f 56/36/36 208/217/217 207/213/213 57/37/37
f 206/218/218 50/27/27 189/193/193 58/219/219
f 6/24/24 50/27/27 206/218/218
f 210/33/33 209/32/32 54/220/220 6/24/24
f 206/218/218 211/212/212 210/33/33 6/24/24
f 207/213/213 211/212/212 8/34/34 57/37/37
f 58/219/219 8/34/34 211/212/212 206/218/218
f 75/203/203 213/221/221 214/645/222 199/614/202
f 213/221/221 215/57/57 12/53/53 73/651/56
f 214/613/222 213/650/221 181/183/183 212/610/223
f 74/66/66 215/57/57 213/221/221 75/203/203
f 216/58/58 215/57/57 74/66/66 14/65/65
f 217/611/215 216/58/58 14/65/65 80/616/68
f 98/89/89 182/609/184 212/610/223 181/183/183
f 213/650/221 73/56/56 181/183/183
f 219/41/41 218/40/40 55/35/35 8/34/34
f 220/224/224 219/41/41 8/34/34 58/219/219
f 12/53/53 59/38/38 220/224/224 189/193/193
f 59/38/38 219/41/41 220/224/224
f 189/193/193 220/224/224 58/219/219
f 71/54/54 229/189/189 230/225/225 222/226/226
f 230/225/225 264/227/227 265/228/228 222/226/226
f 185/229/229 188/230/230 223/231/231 90/232/232
f 223/231/231 188/230/230 88/233/233 17/234/234
f 71/54/54 222/226/226 18/182/182 72/652/55
f 224/235/235 307/236/236 309/237/237 310/238/238
f 179/179/179 307/236/236 224/235/235 256/239/239
f 226/78/78 225/77/77 17/234/234 88/233/233
f 227/191/191 226/78/78 88/233/233 188/230/230
f 185/229/229 228/188/188 227/191/191 188/230/230
f 185/229/229 90/232/232 229/189/189 228/188/188
f 230/225/225 229/189/189 90/232/232 221/240/240
f 221/240/240 263/241/241 264/227/227 230/225/225
f 233/242/242 231/243/243 224/235/235 310/238/238
f 235/244/244 234/245/245 233/242/242 232/246/246
f 239/247/247 238/248/248 237/249/249 236/250/250
f 243/251/251 240/252/252 241/253/253 242/254/254
f 245/255/255 242/254/254 241/253/253 244/256/256
f 247/257/257 261/258/258 262/259/259 246/260/260
f 246/260/260 248/261/261 249/262/262 247/257/257
f 249/262/262 248/261/261 240/252/252 243/251/251
f 240/252/252 250/263/263 251/636/264 241/253/253
f 250/263/263 64/45/45 63/642/44 251/636/264
f 251/264/264 252/265/265 244/656/256
f 251/264/264 63/44/44 62/43/43 252/265/265
f 254/266/266 239/247/247 236/250/250 253/267/267
f 231/243/243 255/268/268 256/239/239 224/235/235
f 255/268/268 316/269/269 256/239/239
f 315/270/270 179/179/179 256/239/239 316/269/269
f 253/267/267 244/656/256 252/265/265 254/266/266
f 232/246/246 100/180/180 257/271/271 235/244/244
f 257/271/271 267/272/272 235/244/244
f 257/271/271 100/180/180 18/649/182
f 266/655/273 267/272/272 257/271/271 18/649/182
f 258/274/274 250/263/263 240/252/252 248/261/261
f 259/275/275 64/45/45 250/263/263 258/274/274
f 87/80/80 64/45/45 259/275/275
f 87/80/80 259/275/275 258/274/274 16/76/76
f 246/260/260 260/276/276 258/274/274 248/261/261
f 262/259/259 261/258/258 245/255/255 244/256/256
f 264/227/227 263/241/241 17/234/234 225/77/77
f 265/228/228 264/227/227 225/77/77 16/76/76
f 253/267/267 267/272/272 266/655/273 244/656/256
f 235/244/244 267/272/272 253/267/267 236/250/250
f 234/245/245 235/244/244 236/250/250 237/249/249
f 222/226/226 265/228/228 266/273/273 18/182/182
f 265/228/228 16/76/76 258/274/274 260/276/276
f 221/240/240 223/231/231 17/234/234 263/241/241
f 90/232/232 223/231/231 221/240/240
f 260/276/276 268/277/277 266/273/273 265/228/228
f 268/277/277 260/276/276 246/260/260 262/259/259
f 268/277/277 262/259/259 244/256/256 266/273/273
f 270/278/278 269/279/279 255/268/268 231/243/243
f 237/249/249 269/279/279 270/278/278 234/245/245
f 269/279/279 237/249/249 238/248/248 255/268/268
f 270/278/278 231/243/243 233/242/242 234/245/245
f 261/258/258 247/257/257 271/280/280 245/255/255
f 249/262/262 243/251/251 271/280/280 247/257/257
f 271/280/280 243/251/251 242/254/254 245/255/255
f 22/96/96 24/99/99 112/119/119 110/100/100
f 108/107/107 272/281/281 22/96/96 107/102/102
f 22/96/96 272/281/281 273/282/282 109/164/164
f 273/282/282 93/83/83 167/165/165 109/164/164
f 93/83/83 273/282/282 272/281/281 108/107/107
f 275/283/283 274/284/284 83/72/72 70/71/71
f 274/284/284 276/285/285 47/23/23 83/72/72
f 276/285/285 277/286/286 5/12/12 47/23/23
f 39/13/13 5/12/12 277/286/286 278/287/287
f 278/287/287 279/288/288 280/289/289 39/13/13
f 282/641/290 280/289/289 279/288/288 281/291/291
f 70/71/71 283/292/292 284/293/293 275/283/283
f 284/293/293 283/292/292 282/290/290 281/639/291
f 283/292/292 70/71/71 11/50/50
f 11/50/50 312/52/52 283/292/292
f 61/46/46 280/289/289 282/641/290 9/640/42
f 280/289/289 61/46/46 39/13/13
f 286/294/294 285/295/295 302/296/296 278/287/287
f 278/287/287 277/286/286 287/297/297 286/294/294
f 277/286/286 276/285/285 288/298/298 287/297/297
f 276/285/285 303/299/299 289/300/300 288/298/298
f 289/300/300 303/299/299 304/301/301 290/302/302
f 304/301/301 305/303/303 291/304/304 290/302/302
f 305/303/303 306/637/305 292/306/306 291/304/304
f 306/305/305 302/296/296 285/295/295 292/638/306
f 289/300/300 293/307/307 294/308/308 288/298/298
f 293/307/307 289/300/300 290/302/302 295/309/309
f 296/310/310 295/309/309 290/302/302 291/304/304
f 297/311/311 296/310/310 291/304/304 292/306/306
f 298/312/312 297/311/311 292/638/306 285/295/295
f 299/313/313 298/312/312 285/295/295 286/294/294
f 287/297/297 300/314/314 299/313/313 286/294/294
f 294/308/308 300/314/314 287/297/297 288/298/298
f 296/310/310 301/315/315 293/307/307 295/309/309
f 294/308/308 293/307/307 301/315/315 300/314/314
f 296/310/310 297/311/311 298/312/312 301/315/315
f 298/312/312 299/313/313 300/314/314 301/315/315
f 278/287/287 302/296/296 279/288/288
f 274/284/284 303/299/299 276/285/285
f 304/301/301 303/299/299 274/284/284 275/283/283
f 284/293/293 305/303/303 304/301/301 275/283/283
f 281/639/291 306/637/305 305/303/303 284/293/293
f 279/288/288 302/296/296 306/305/305 281/291/291
f 1/1/1 31/4/4 37/10/10
f 1/1/1 37/10/10 3/9/9 36/214/214
f 153/150/150 308/316/316 99/95/95
f 179/179/179 21/90/90 99/95/95 307/236/236
f 308/316/316 309/237/237 307/236/236 99/95/95
f 96/87/87 308/316/316 153/150/150
f 100/180/180 309/237/237 308/316/316 96/87/87
f 310/238/238 309/237/237 100/180/180 232/246/246
f 233/242/242 310/238/238 232/246/246
f 6/24/24 54/220/220 203/208/208 51/28/28
f 314/178/178 179/179/179 315/270/270
f 178/177/177 179/179/179 314/178/178 311/176/176
f 114/105/105 178/177/177 311/176/176
f 312/52/52 9/42/42 282/290/290 283/292/292
f 313/51/51 62/43/43 9/42/42 312/52/52
f 252/265/265 62/43/43 313/51/51 314/178/178
f 252/265/265 314/178/178 315/270/270 254/266/266
f 254/266/266 315/270/270 316/269/269 239/247/247
f 255/268/268 238/248/248 239/247/247 316/269/269
f 241/253/253 251/636/264 244/256/256
f 317/317/317 347/318/318 346/319/319 345/320/320
f 317/317/317 345/320/320 348/321/321
f 318/322/322 348/321/321 34/8/8 33/7/7
f 319/323/323 321/324/324 352/325/325 351/326/326
f 319/323/323 354/327/327 353/328/328 321/324/324
f 320/329/329 356/330/330 376/331/331 355/332/332
f 320/329/329 358/333/333 357/334/334 356/330/330
f 320/329/329 355/332/332 359/335/335 358/333/333
f 321/324/324 361/336/336 360/337/337 352/325/325
f 322/338/338 364/339/339 363/340/340 362/341/341
f 322/338/338 362/341/341 366/342/342 365/343/343
f 323/344/344 493/345/345 209/32/32 53/31/31
f 324/346/346 367/347/347 56/36/36 55/35/35
f 369/348/348 498/349/349 218/40/40 60/39/39
f 325/350/350 372/635/351 371/352/352
f 325/633/350 370/353/353 373/354/354 372/351/351
f 326/355/355 378/356/356 377/357/357 376/331/331
f 327/358/358 591/359/359 592/360/360
f 328/361/361 382/362/362 381/648/363 380/364/364
f 328/361/361 369/348/348 497/365/365 496/366/366
f 329/367/367 374/368/368 386/369/369 385/370/370
f 387/371/371 329/367/367 385/370/370 388/372/372
f 330/373/373 80/68/68 81/67/67 383/374/374
f 331/375/375 385/370/370 386/369/369 389/376/376
f 331/375/375 389/376/376 390/377/377 379/378/378
f 331/375/375 393/379/379 392/380/380 391/381/381
f 331/375/375 379/378/378 327/358/358 393/379/379
f 332/382/382 396/383/383 505/384/384 504/385/385
f 332/382/382 394/386/386 363/340/340 396/383/383
f 335/387/387 398/388/388 388/372/372 391/381/381
f 400/389/389 335/387/387 391/381/381 392/380/380
f 335/387/387 400/389/389 399/390/390 398/388/388
f 336/391/391 404/392/392 403/393/393 402/394/394
f 336/391/391 402/394/394 405/395/395
f 337/396/396 410/397/397 409/398/398 408/399/399
f 337/396/396 406/400/400 411/401/401 410/397/397
f 338/402/402 340/403/403 413/404/404 412/405/405
f 338/402/402 414/406/406 418/407/407 417/408/408
f 339/409/409 422/410/410 421/411/411 420/412/412
f 339/409/409 414/406/406 415/413/413 422/410/410
f 339/409/409 420/412/412 424/414/414 423/415/415
f 339/409/409 423/415/415 426/416/416 425/417/417
f 341/418/418 427/419/419 417/408/408 418/407/407
f 341/418/418 418/407/407 429/420/420 428/421/421
f 430/422/422 342/423/423 431/424/424 428/421/421
f 342/423/423 432/425/425 419/426/426 431/424/424
f 342/423/423 430/422/422 433/427/427 432/425/425
f 434/428/428 437/429/429 436/430/430 435/431/431
f 343/432/432 438/433/433 435/431/431 436/430/430
f 343/432/432 440/434/434 439/435/435 438/433/433
f 343/432/432 436/430/430 441/436/436 440/434/434
f 442/437/437 444/438/438 443/439/439
f 344/440/440 443/439/439 440/434/434 441/436/436
f 344/440/440 445/441/441 442/437/437 443/439/439
f 344/440/440 441/436/436 446/442/442 445/441/441
f 446/442/442 448/443/443 447/444/444 445/441/441
f 446/442/442 437/429/429 449/445/445 448/443/443
f 446/442/442 441/436/436 436/430/430 437/429/429
f 449/445/445 410/397/397 411/401/401 448/443/443
f 449/445/445 450/446/446 409/398/398 410/397/397
f 449/445/445 437/429/429 434/428/428 450/446/446
f 450/446/446 451/447/447 424/414/414 409/398/398
f 450/446/446 434/428/428 435/431/431 451/447/447
f 451/447/447 452/448/448 423/415/415 424/414/414
f 451/447/447 435/431/431 438/433/433 452/448/448
f 452/448/448 453/449/449 426/416/416 423/415/415
f 452/448/448 438/433/433 439/435/435 453/449/449
f 453/449/449 455/450/450 454/451/451 426/416/416
f 453/449/449 439/435/435 444/438/438 455/450/450
f 455/450/450 457/452/452 456/453/453 454/451/451
f 455/450/450 444/438/438 442/437/437 457/452/452
f 457/452/452 447/444/444 458/454/454 456/453/453
f 457/452/452 442/437/437 445/441/441 447/444/444
f 458/454/454 460/455/455 459/456/456 456/453/453
f 458/454/454 411/401/401 406/400/400 460/455/455
f 458/454/454 447/444/444 448/443/443 411/401/401
f 460/455/455 403/393/393 404/392/392 459/456/456
f 459/456/456 404/392/392 462/457/457 461/458/458
f 459/456/456 461/458/458 456/453/453
f 462/457/457 465/459/459 464/460/460 463/461/461
f 462/457/457 404/392/392 336/391/391 465/459/459
f 462/457/457 463/461/461 466/462/462 461/458/458
f 461/458/458 466/462/462 454/451/451 456/453/453
f 454/451/451 466/462/462 425/417/417 426/416/416
f 444/438/438 439/435/435 440/434/434 443/439/439
f 160/157/157 163/160/160 468/463/463 467/464/464
f 468/463/463 471/465/465 470/466/466 469/467/467
f 469/467/467 472/468/468 416/469/469
f 469/467/467 412/405/405 467/464/464 468/463/463
f 469/467/467 416/469/469 338/402/402 412/405/405
f 472/468/468 473/470/470 399/390/390 400/389/389
f 472/468/468 469/467/467 470/466/466 473/470/470
f 473/470/470 170/168/168 169/167/167 399/390/390
f 473/470/470 470/466/466 171/169/169 170/168/168
f 171/169/169 470/466/466 471/465/465 172/170/170
f 467/464/464 412/405/405 413/404/404 474/471/471
f 474/471/471 413/404/404 175/173/173 174/172/172
f 430/422/422 428/421/421 429/420/420 433/427/427
f 431/424/424 419/426/426 417/408/408 427/419/419
f 427/419/419 341/418/418 428/421/421 431/424/424
f 463/461/461 464/460/460 432/425/425 433/427/427
f 465/459/459 177/175/175 176/174/174 340/403/403
f 424/414/414 420/412/412 408/399/399 409/398/398
f 422/410/410 392/380/380 393/379/379 421/411/411
f 422/410/410 415/413/413 400/389/389 392/380/380
f 421/411/411 393/379/379 327/358/358 590/472/472
f 421/411/411 475/473/473 408/399/399 420/412/412
f 593/474/474 590/472/472 327/358/358 592/360/360
f 475/473/473 476/475/475 337/396/396 408/399/399
f 407/476/476 477/477/477 402/394/394 403/393/393
f 407/476/476 334/478/478 381/363/363 477/477/477
f 477/477/477 478/479/479 405/395/395 402/394/394
f 477/477/477 381/363/363 382/647/362 478/479/479
f 182/184/184 183/185/185 336/391/391 405/395/395
f 401/480/480 387/371/371 388/372/372 398/388/388
f 507/481/481 481/482/482 380/364/364 508/483/483
f 506/484/484 482/485/485 481/482/482 507/481/481
f 482/485/485 364/339/339 484/486/486 481/482/482
f 482/485/485 396/383/383 363/340/340 364/339/339
f 482/485/485 506/484/484 505/384/384 396/383/383
f 481/482/482 484/486/486 328/361/361 380/364/364
f 191/194/194 192/195/195 377/357/357 378/356/356
f 192/195/195 194/197/197 485/487/487 377/357/357
f 194/197/197 196/199/199 486/488/488 485/487/487
f 196/199/199 197/200/200 346/319/319 486/488/488
f 197/200/200 198/201/201 345/320/320 346/319/319
f 486/488/488 359/335/335 355/332/332 485/487/487
f 486/488/488 346/319/319 347/318/318 359/335/335
f 485/487/487 355/332/332 376/331/331 377/357/357
f 199/202/202 384/489/489 383/374/374 81/67/67
f 394/386/386 488/490/490 487/491/491
f 394/386/386 373/354/354 370/353/353 488/490/490
f 488/490/490 354/327/327 487/491/491
f 488/490/490 370/353/353 353/328/328 354/327/327
f 487/491/491 354/327/327 366/342/342 362/341/341
f 487/491/491 362/341/341 363/340/340 394/386/386
f 391/381/381 388/372/372 385/370/370 331/375/375
f 390/377/377 389/376/376 360/337/337 361/336/336
f 389/376/376 386/369/369 489/492/492 360/337/337
f 489/492/492 375/493/493 356/330/330 357/334/334
f 489/492/492 386/369/369 374/368/368 375/493/493
f 489/492/492 357/334/334 352/325/325 360/337/337
f 376/331/331 356/330/330 375/493/493 326/355/355
f 203/208/208 365/343/343 490/494/494 204/209/209
f 366/342/342 349/495/495 490/494/494 365/343/343
f 366/342/342 354/327/327 319/323/323 349/495/495
f 493/345/345 323/344/344 492/496/496 494/497/497
f 350/498/498 317/317/317 348/321/321 318/322/322
f 350/498/498 318/322/322 490/494/494 349/495/495
f 176/174/174 175/173/173 413/404/404 340/403/403
f 464/460/460 340/403/403 419/426/426 432/425/425
f 464/460/460 465/459/459 340/403/403
f 183/185/185 177/175/175 465/459/459 336/391/391
f 198/201/201 34/8/8 348/321/321 345/320/320
f 163/160/160 172/170/170 471/465/465 468/463/463
f 174/172/172 160/157/157 467/464/464 474/471/471
f 60/39/39 217/215/215 497/365/365 369/348/348
f 33/7/7 204/209/209 490/494/494 318/322/322
f 433/427/427 425/417/417 466/462/462 463/461/461
f 418/407/407 414/406/406 339/409/409 429/420/420
f 429/420/420 339/409/409 425/417/417 433/427/427
f 169/167/167 190/608/216 479/499/499 399/390/390
f 398/388/388 399/390/390 479/499/499 401/480/480
f 351/326/326 352/325/325 357/334/334 358/333/333
f 358/333/333 359/335/335 347/318/318 351/326/326
f 349/495/495 319/323/323 350/498/498
f 53/31/31 208/217/217 492/496/496 323/344/344
f 56/36/36 367/347/347 492/496/496 208/217/217
f 491/500/500 368/501/501 484/486/486 364/339/339
f 322/338/338 491/500/500 364/339/339
f 493/345/345 322/338/338 54/220/220 209/32/32
f 491/500/500 322/338/338 493/345/345 494/497/497
f 492/496/496 367/347/347 324/346/346 494/497/497
f 368/501/501 491/500/500 494/497/497 324/346/346
f 384/489/489 199/202/202 214/646/222 495/502/502
f 495/502/502 382/362/362 328/361/361 496/366/366
f 214/222/222 212/223/223 478/479/479 495/644/502
f 383/374/374 384/489/489 495/502/502 496/366/366
f 497/365/365 330/373/373 383/374/374 496/366/366
f 217/215/215 80/68/68 330/373/373 497/365/365
f 405/395/395 478/479/479 212/223/223 182/184/184
f 495/644/502 478/479/479 382/647/362
f 498/349/349 324/346/346 55/35/35 218/40/40
f 499/503/503 368/501/501 324/346/346 498/349/349
f 328/361/361 484/486/486 499/503/503 369/348/348
f 369/348/348 499/503/503 498/349/349
f 484/486/486 368/501/501 499/503/503
f 380/364/364 501/504/504 509/505/505 508/483/483
f 509/505/505 501/504/504 544/506/506 543/507/507
f 480/508/508 397/509/509 502/510/510 483/511/511
f 502/510/510 333/512/512 395/513/513 483/511/511
f 380/364/364 381/648/363 334/643/478 501/504/504
f 503/514/514 589/515/515 588/516/516 586/517/517
f 476/475/475 535/518/518 503/514/514 586/517/517
f 505/384/384 395/513/513 333/512/512 504/385/385
f 506/484/484 483/511/511 395/513/513 505/384/384
f 480/508/508 483/511/511 506/484/484 507/481/481
f 480/508/508 507/481/481 508/483/483 397/509/509
f 509/505/505 500/519/519 397/509/509 508/483/483
f 500/519/519 509/505/505 543/507/507 542/520/520
f 512/521/521 589/515/515 503/514/514 510/522/522
f 514/523/523 511/524/524 512/521/521 513/525/525
f 518/526/526 515/527/527 516/528/528 517/529/529
f 522/530/530 521/531/531 520/532/532 519/533/533
f 524/534/534 523/654/535 520/532/532 521/531/531
f 526/536/536 525/537/537 541/538/538 540/539/539
f 525/537/537 526/536/536 528/540/540 527/541/541
f 528/540/540 522/530/530 519/533/533 527/541/541
f 519/533/533 520/532/532 530/542/542 529/543/543
f 529/543/543 530/542/542 372/351/351 373/354/354
f 530/629/542 523/535/535 531/544/544
f 530/629/542 531/544/544 371/352/352 372/635/351
f 533/545/545 532/546/546 515/527/527 518/526/526
f 510/522/522 503/514/514 535/518/518 534/547/547
f 534/547/547 535/518/518 595/548/548
f 594/549/549 595/548/548 535/518/518 476/475/475
f 532/546/546 533/545/545 531/544/544 523/535/535
f 511/524/524 514/523/523 536/550/550 407/476/476
f 536/550/550 514/523/523 546/551/551
f 536/550/550 334/478/478 407/476/476
f 545/653/552 334/478/478 536/550/550 546/551/551
f 537/553/553 527/541/541 519/533/533 529/543/543
f 538/554/554 537/553/553 529/543/543 373/354/354
f 394/386/386 538/554/554 373/354/354
f 394/386/386 332/382/382 537/553/553 538/554/554
f 525/537/537 527/541/541 537/553/553 539/555/555
f 541/538/538 523/654/535 524/534/534 540/539/539
f 543/507/507 504/385/385 333/512/512 542/520/520
f 544/506/506 332/382/382 504/385/385 543/507/507
f 532/546/546 523/535/535 545/653/552 546/551/551
f 514/523/523 515/527/527 532/546/546 546/551/551
f 513/525/525 516/528/528 515/527/527 514/523/523
f 501/504/504 334/643/478 545/552/552 544/506/506
f 544/506/506 539/555/555 537/553/553 332/382/382
f 500/519/519 542/520/520 333/512/512 502/510/510
f 397/509/509 500/519/519 502/510/510
f 539/555/555 544/506/506 545/552/552 547/556/556
f 547/556/556 541/538/538 525/537/537 539/555/555
f 547/556/556 545/552/552 523/654/535 541/538/538
f 549/557/557 510/522/522 534/547/547 548/558/558
f 516/528/528 513/525/525 549/557/557 548/558/558
f 548/558/558 534/547/547 517/529/529 516/528/528
f 549/557/557 513/525/525 512/521/521 510/522/522
f 540/539/539 524/534/534 550/559/559 526/536/536
f 528/540/540 526/536/536 550/559/559 522/530/530
f 550/559/559 524/534/534 521/531/531 522/530/530
f 338/402/402 417/408/408 419/426/426 340/403/403
f 415/413/413 414/406/406 338/402/402 551/560/560
f 338/402/402 416/469/469 552/561/561 551/560/560
f 552/561/561 416/469/469 472/468/468 400/389/389
f 400/389/389 415/413/413 551/560/560 552/561/561
f 554/562/562 379/378/378 390/377/377 553/563/563
f 553/563/563 390/377/377 361/336/336 555/564/564
f 555/564/564 361/336/336 321/324/324 556/565/565
f 353/328/328 557/566/566 556/565/565 321/324/324
f 557/566/566 353/328/328 559/567/567 558/568/568
f 561/569/569 560/632/570 558/568/568 559/567/567
f 379/378/378 554/562/562 563/571/571 562/572/572
f 563/571/571 560/570/570 561/634/569 562/572/572
f 562/572/572 327/358/358 379/378/378
f 327/358/358 562/572/572 591/359/359
f 370/353/353 325/633/350 561/569/569 559/567/567
f 559/567/567 353/328/328 370/353/353
f 565/573/573 557/566/566 581/574/574 564/575/575
f 557/566/566 565/573/573 566/576/576 556/565/565
f 556/565/565 566/576/576 567/577/577 555/564/564
f 555/564/564 567/577/577 568/578/578 582/579/579
f 568/578/578 569/580/580 583/581/581 582/579/579
f 583/581/581 569/580/580 570/582/582 584/583/583
f 584/583/583 570/582/582 571/631/584 585/630/585
f 585/585/585 571/584/584 564/575/575 581/574/574
f 568/578/578 567/577/577 573/586/586 572/587/587
f 572/587/587 574/588/588 569/580/580 568/578/578
f 575/589/589 570/582/582 569/580/580 574/588/588
f 576/590/590 571/631/584 570/582/582 575/589/589
f 577/591/591 564/575/575 571/584/584 576/590/590
f 578/592/592 565/573/573 564/575/575 577/591/591
f 566/576/576 565/573/573 578/592/592 579/593/593
f 573/586/586 567/577/577 566/576/576 579/593/593
f 575/589/589 574/588/588 572/587/587 580/594/594
f 573/586/586 579/593/593 580/594/594 572/587/587
f 575/589/589 580/594/594 577/591/591 576/590/590
f 577/591/591 580/594/594 579/593/593 578/592/592
f 557/566/566 558/568/568 581/574/574
f 553/563/563 555/564/564 582/579/579
f 583/581/581 554/562/562 553/563/563 582/579/579
f 563/571/571 554/562/562 583/581/581 584/583/583
f 560/570/570 563/571/571 584/583/583 585/630/585
f 558/568/568 560/632/570 585/585/585 581/574/574
f 317/317/317 351/326/326 347/318/318
f 317/317/317 350/498/498 319/323/323 351/326/326
f 460/455/455 406/400/400 587/595/595
f 476/475/475 586/517/517 406/400/400 337/396/396
f 587/595/595 406/400/400 586/517/517 588/516/516
f 403/393/393 460/455/455 587/595/595
f 407/476/476 403/393/393 587/595/595 588/516/516
f 589/515/515 511/524/524 407/476/476 588/516/516
f 512/521/521 511/524/524 589/515/515
f 322/338/338 365/343/343 203/208/208 54/220/220
f 593/474/474 594/549/549 476/475/475
f 475/473/473 590/472/472 593/474/474 476/475/475
f 421/411/411 590/472/472 475/473/473
f 591/359/359 562/572/572 561/634/569 325/350/350
f 592/360/360 591/359/359 325/350/350 371/352/352
f 531/544/544 593/474/474 592/360/360 371/352/352
f 531/544/544 533/545/545 594/549/549 593/474/474
f 533/545/545 518/526/526 595/548/548 594/549/549
f 534/547/547 595/548/548 518/526/526 517/529/529
f 520/532/532 523/654/535 530/542/542
f 597/596/596 596/606/597 191/194/194 378/356/356
f 596/597/597 598/598/598 69/49/49 191/628/194
f 190/608/216 603/599/599 604/600/600 479/499/499
f 602/601/601 603/607/599 190/216/216 184/187/187
f 326/355/355 599/602/602 597/596/596 378/356/356
f 598/598/598 600/603/603 10/47/47 69/49/49
f 604/600/600 605/604/604 401/480/480 479/499/499
f 94/186/186 601/605/605 602/601/601 184/187/187
f 602/601/601 601/605/605 600/603/603 598/598/598
f 596/597/597 603/607/599 602/601/601 598/598/598
f 604/600/600 603/599/599 596/606/597 597/596/596
f 599/602/602 605/604/604 604/600/600 597/596/596
f 387/371/371 401/480/480 605/604/604 329/367/367
f 94/186/186 78/63/63 13/59/59 601/605/605
f 601/605/605 13/59/59 65/62/62 600/603/603
f 329/367/367 605/604/604 599/602/602 374/368/368
f 67/17/17 10/47/47 66/207/207 42/18/18
f 600/603/603 65/62/62 66/207/207 10/47/47
f 374/368/368 599/602/602 326/355/355 375/493/493
